<?xml version="1.0" encoding="utf-8" standalone="no"?>
<!DOCTYPE svg PUBLIC "-//W3C//DTD SVG 1.1//EN"
  "http://www.w3.org/Graphics/SVG/1.1/DTD/svg11.dtd">
<svg xmlns:xlink="http://www.w3.org/1999/xlink" width="872.39952pt" height="152.406273pt" viewBox="0 0 872.39952 152.406273" xmlns="http://www.w3.org/2000/svg" version="1.1">
 <metadata>
  <rdf:RDF xmlns:dc="http://purl.org/dc/elements/1.1/" xmlns:cc="http://creativecommons.org/ns#" xmlns:rdf="http://www.w3.org/1999/02/22-rdf-syntax-ns#">
   <cc:Work>
    <dc:type rdf:resource="http://purl.org/dc/dcmitype/StillImage"/>
    <dc:format>image/svg+xml</dc:format>
    <dc:creator>
     <cc:Agent>
      <dc:title>Matplotlib, https://matplotlib.org/</dc:title>
     </cc:Agent>
    </dc:creator>
   </cc:Work>
  </rdf:RDF>
 </metadata>
 <defs>
  <style type="text/css">*{stroke-linejoin: round; stroke-linecap: butt}</style>
 </defs>
 <g id="figure_1">
  <g id="patch_1">
   <path d="M 0 152.406273 
L 872.39952 152.406273 
L 872.39952 0 
L 0 0 
z
" style="fill: #ffffff"/>
  </g>
  <g id="axes_1">
   <g id="patch_2">
    <path d="M 7.2 128.528148 
L 865.19952 128.528148 
L 865.19952 20.214138 
L 7.2 20.214138 
z
" style="fill: #ffffff"/>
   </g>
   <g id="matplotlib.axis_1">
    <g id="xtick_1">
     <g id="line2d_1">
      <defs>
       <path id="m8f1de1206a" d="M 0 0 
L 0 3.5 
" style="stroke: #000000; stroke-width: 0.8"/>
      </defs>
      <g>
       <use xlink:href="#m8f1de1206a" x="102.150358" y="128.528148" style="stroke: #000000; stroke-width: 0.8"/>
      </g>
     </g>
     <g id="text_1">
      <!-- −3 -->
      <g transform="translate(94.779265 143.126585) scale(0.1 -0.1)">
       <defs>
        <path id="DejaVuSans-2212" d="M 678 2272 
L 4684 2272 
L 4684 1741 
L 678 1741 
L 678 2272 
z
" transform="scale(0.015625)"/>
        <path id="DejaVuSans-33" d="M 2597 2516 
Q 3050 2419 3304 2112 
Q 3559 1806 3559 1356 
Q 3559 666 3084 287 
Q 2609 -91 1734 -91 
Q 1441 -91 1130 -33 
Q 819 25 488 141 
L 488 750 
Q 750 597 1062 519 
Q 1375 441 1716 441 
Q 2309 441 2620 675 
Q 2931 909 2931 1356 
Q 2931 1769 2642 2001 
Q 2353 2234 1838 2234 
L 1294 2234 
L 1294 2753 
L 1863 2753 
Q 2328 2753 2575 2939 
Q 2822 3125 2822 3475 
Q 2822 3834 2567 4026 
Q 2313 4219 1838 4219 
Q 1578 4219 1281 4162 
Q 984 4106 628 3988 
L 628 4550 
Q 988 4650 1302 4700 
Q 1616 4750 1894 4750 
Q 2613 4750 3031 4423 
Q 3450 4097 3450 3541 
Q 3450 3153 3228 2886 
Q 3006 2619 2597 2516 
z
" transform="scale(0.015625)"/>
       </defs>
       <use xlink:href="#DejaVuSans-2212"/>
       <use xlink:href="#DejaVuSans-33" x="83.789062"/>
      </g>
     </g>
    </g>
    <g id="xtick_2">
     <g id="line2d_2">
      <g>
       <use xlink:href="#m8f1de1206a" x="213.44518" y="128.528148" style="stroke: #000000; stroke-width: 0.8"/>
      </g>
     </g>
     <g id="text_2">
      <!-- −2 -->
      <g transform="translate(206.074086 143.126585) scale(0.1 -0.1)">
       <defs>
        <path id="DejaVuSans-32" d="M 1228 531 
L 3431 531 
L 3431 0 
L 469 0 
L 469 531 
Q 828 903 1448 1529 
Q 2069 2156 2228 2338 
Q 2531 2678 2651 2914 
Q 2772 3150 2772 3378 
Q 2772 3750 2511 3984 
Q 2250 4219 1831 4219 
Q 1534 4219 1204 4116 
Q 875 4013 500 3803 
L 500 4441 
Q 881 4594 1212 4672 
Q 1544 4750 1819 4750 
Q 2544 4750 2975 4387 
Q 3406 4025 3406 3419 
Q 3406 3131 3298 2873 
Q 3191 2616 2906 2266 
Q 2828 2175 2409 1742 
Q 1991 1309 1228 531 
z
" transform="scale(0.015625)"/>
       </defs>
       <use xlink:href="#DejaVuSans-2212"/>
       <use xlink:href="#DejaVuSans-32" x="83.789062"/>
      </g>
     </g>
    </g>
    <g id="xtick_3">
     <g id="line2d_3">
      <g>
       <use xlink:href="#m8f1de1206a" x="324.740002" y="128.528148" style="stroke: #000000; stroke-width: 0.8"/>
      </g>
     </g>
     <g id="text_3">
      <!-- −1 -->
      <g transform="translate(317.368908 143.126585) scale(0.1 -0.1)">
       <defs>
        <path id="DejaVuSans-31" d="M 794 531 
L 1825 531 
L 1825 4091 
L 703 3866 
L 703 4441 
L 1819 4666 
L 2450 4666 
L 2450 531 
L 3481 531 
L 3481 0 
L 794 0 
L 794 531 
z
" transform="scale(0.015625)"/>
       </defs>
       <use xlink:href="#DejaVuSans-2212"/>
       <use xlink:href="#DejaVuSans-31" x="83.789062"/>
      </g>
     </g>
    </g>
    <g id="xtick_4">
     <g id="line2d_4">
      <g>
       <use xlink:href="#m8f1de1206a" x="436.034824" y="128.528148" style="stroke: #000000; stroke-width: 0.8"/>
      </g>
     </g>
     <g id="text_4">
      <!-- 0 -->
      <g transform="translate(432.853574 143.126585) scale(0.1 -0.1)">
       <defs>
        <path id="DejaVuSans-30" d="M 2034 4250 
Q 1547 4250 1301 3770 
Q 1056 3291 1056 2328 
Q 1056 1369 1301 889 
Q 1547 409 2034 409 
Q 2525 409 2770 889 
Q 3016 1369 3016 2328 
Q 3016 3291 2770 3770 
Q 2525 4250 2034 4250 
z
M 2034 4750 
Q 2819 4750 3233 4129 
Q 3647 3509 3647 2328 
Q 3647 1150 3233 529 
Q 2819 -91 2034 -91 
Q 1250 -91 836 529 
Q 422 1150 422 2328 
Q 422 3509 836 4129 
Q 1250 4750 2034 4750 
z
" transform="scale(0.015625)"/>
       </defs>
       <use xlink:href="#DejaVuSans-30"/>
      </g>
     </g>
    </g>
    <g id="xtick_5">
     <g id="line2d_5">
      <g>
       <use xlink:href="#m8f1de1206a" x="547.329645" y="128.528148" style="stroke: #000000; stroke-width: 0.8"/>
      </g>
     </g>
     <g id="text_5">
      <!-- 1 -->
      <g transform="translate(544.148395 143.126585) scale(0.1 -0.1)">
       <use xlink:href="#DejaVuSans-31"/>
      </g>
     </g>
    </g>
    <g id="xtick_6">
     <g id="line2d_6">
      <g>
       <use xlink:href="#m8f1de1206a" x="658.624467" y="128.528148" style="stroke: #000000; stroke-width: 0.8"/>
      </g>
     </g>
     <g id="text_6">
      <!-- 2 -->
      <g transform="translate(655.443217 143.126585) scale(0.1 -0.1)">
       <use xlink:href="#DejaVuSans-32"/>
      </g>
     </g>
    </g>
    <g id="xtick_7">
     <g id="line2d_7">
      <g>
       <use xlink:href="#m8f1de1206a" x="769.919289" y="128.528148" style="stroke: #000000; stroke-width: 0.8"/>
      </g>
     </g>
     <g id="text_7">
      <!-- 3 -->
      <g transform="translate(766.738039 143.126585) scale(0.1 -0.1)">
       <use xlink:href="#DejaVuSans-33"/>
      </g>
     </g>
    </g>
   </g>
   <g id="matplotlib.axis_2"/>
   <g id="line2d_8">
    <path d="M 24.031581 128.528148 
L 24.031581 20.214138 
" clip-path="url(#pacd620a5b4)" style="fill: none; stroke: #000000; stroke-width: 1.5; stroke-linecap: square"/>
   </g>
   <g id="line2d_9">
    <path d="M 126.370804 128.528148 
L 126.370804 20.214138 
" clip-path="url(#pacd620a5b4)" style="fill: none; stroke: #000000; stroke-width: 1.5; stroke-linecap: square"/>
   </g>
   <g id="line2d_10">
    <path d="M 228.710027 128.528148 
L 228.710027 20.214138 
" clip-path="url(#pacd620a5b4)" style="fill: none; stroke: #000000; stroke-width: 1.5; stroke-linecap: square"/>
   </g>
   <g id="line2d_11">
    <path d="M 331.049251 128.528148 
L 331.049251 20.214138 
" clip-path="url(#pacd620a5b4)" style="fill: none; stroke: #000000; stroke-width: 1.5; stroke-linecap: square"/>
   </g>
   <g id="line2d_12">
    <path d="M 433.388474 128.528148 
L 433.388474 20.214138 
" clip-path="url(#pacd620a5b4)" style="fill: none; stroke: #000000; stroke-width: 1.5; stroke-linecap: square"/>
   </g>
   <g id="line2d_13">
    <path d="M 535.727697 128.528148 
L 535.727697 20.214138 
" clip-path="url(#pacd620a5b4)" style="fill: none; stroke: #000000; stroke-width: 1.5; stroke-linecap: square"/>
   </g>
   <g id="line2d_14">
    <path d="M 638.06692 128.528148 
L 638.06692 20.214138 
" clip-path="url(#pacd620a5b4)" style="fill: none; stroke: #000000; stroke-width: 1.5; stroke-linecap: square"/>
   </g>
   <g id="line2d_15">
    <path d="M 740.406143 128.528148 
L 740.406143 20.214138 
" clip-path="url(#pacd620a5b4)" style="fill: none; stroke: #000000; stroke-width: 1.5; stroke-linecap: square"/>
   </g>
   <g id="line2d_16">
    <path d="M 842.745366 128.528148 
L 842.745366 20.214138 
" clip-path="url(#pacd620a5b4)" style="fill: none; stroke: #000000; stroke-width: 1.5; stroke-linecap: square"/>
   </g>
   <g id="line2d_17">
    <path d="M 92.681564 128.528148 
L 92.681564 20.214138 
" clip-path="url(#pacd620a5b4)" style="fill: none; stroke: #ff0000; stroke-width: 1.5; stroke-linecap: square"/>
   </g>
   <g id="line2d_18">
    <path d="M 848.376 128.528148 
L 848.376 20.214138 
" clip-path="url(#pacd620a5b4)" style="fill: none; stroke: #ff0000; stroke-width: 1.5; stroke-linecap: square"/>
   </g>
   <g id="patch_3">
    <path d="M 7.2 128.528148 
L 7.2 20.214138 
" style="fill: none; stroke: #000000; stroke-width: 0.8; stroke-linejoin: miter; stroke-linecap: square"/>
   </g>
   <g id="patch_4">
    <path d="M 865.19952 128.528148 
L 865.19952 20.214138 
" style="fill: none; stroke: #000000; stroke-width: 0.8; stroke-linejoin: miter; stroke-linecap: square"/>
   </g>
   <g id="patch_5">
    <path d="M 7.2 128.528148 
L 865.19952 128.528148 
" style="fill: none; stroke: #000000; stroke-width: 0.8; stroke-linejoin: miter; stroke-linecap: square"/>
   </g>
   <g id="patch_6">
    <path d="M 7.2 20.214138 
L 865.19952 20.214138 
" style="fill: none; stroke: #000000; stroke-width: 0.8; stroke-linejoin: miter; stroke-linecap: square"/>
   </g>
   <g id="text_8">
    <g id="patch_7">
     <path d="M 91.681564 104.10708 
L 91.681564 44.635205 
Q 91.681564 44.635205 91.681564 44.635205 
L 82.003439 44.635205 
Q 82.003439 44.635205 82.003439 44.635205 
L 82.003439 104.10708 
Q 82.003439 104.10708 82.003439 104.10708 
L 91.681564 104.10708 
Q 91.681564 104.10708 91.681564 104.10708 
z
" style="fill: #ffffff"/>
    </g>
    <!-- min=-3.085 -->
    <g transform="translate(89.601877 104.10708) rotate(-90) scale(0.1 -0.1)">
     <defs>
      <path id="DejaVuSans-6d" d="M 3328 2828 
Q 3544 3216 3844 3400 
Q 4144 3584 4550 3584 
Q 5097 3584 5394 3201 
Q 5691 2819 5691 2113 
L 5691 0 
L 5113 0 
L 5113 2094 
Q 5113 2597 4934 2840 
Q 4756 3084 4391 3084 
Q 3944 3084 3684 2787 
Q 3425 2491 3425 1978 
L 3425 0 
L 2847 0 
L 2847 2094 
Q 2847 2600 2669 2842 
Q 2491 3084 2119 3084 
Q 1678 3084 1418 2786 
Q 1159 2488 1159 1978 
L 1159 0 
L 581 0 
L 581 3500 
L 1159 3500 
L 1159 2956 
Q 1356 3278 1631 3431 
Q 1906 3584 2284 3584 
Q 2666 3584 2933 3390 
Q 3200 3197 3328 2828 
z
" transform="scale(0.015625)"/>
      <path id="DejaVuSans-69" d="M 603 3500 
L 1178 3500 
L 1178 0 
L 603 0 
L 603 3500 
z
M 603 4863 
L 1178 4863 
L 1178 4134 
L 603 4134 
L 603 4863 
z
" transform="scale(0.015625)"/>
      <path id="DejaVuSans-6e" d="M 3513 2113 
L 3513 0 
L 2938 0 
L 2938 2094 
Q 2938 2591 2744 2837 
Q 2550 3084 2163 3084 
Q 1697 3084 1428 2787 
Q 1159 2491 1159 1978 
L 1159 0 
L 581 0 
L 581 3500 
L 1159 3500 
L 1159 2956 
Q 1366 3272 1645 3428 
Q 1925 3584 2291 3584 
Q 2894 3584 3203 3211 
Q 3513 2838 3513 2113 
z
" transform="scale(0.015625)"/>
      <path id="DejaVuSans-3d" d="M 678 2906 
L 4684 2906 
L 4684 2381 
L 678 2381 
L 678 2906 
z
M 678 1631 
L 4684 1631 
L 4684 1100 
L 678 1100 
L 678 1631 
z
" transform="scale(0.015625)"/>
      <path id="DejaVuSans-2d" d="M 313 2009 
L 1997 2009 
L 1997 1497 
L 313 1497 
L 313 2009 
z
" transform="scale(0.015625)"/>
      <path id="DejaVuSans-2e" d="M 684 794 
L 1344 794 
L 1344 0 
L 684 0 
L 684 794 
z
" transform="scale(0.015625)"/>
      <path id="DejaVuSans-38" d="M 2034 2216 
Q 1584 2216 1326 1975 
Q 1069 1734 1069 1313 
Q 1069 891 1326 650 
Q 1584 409 2034 409 
Q 2484 409 2743 651 
Q 3003 894 3003 1313 
Q 3003 1734 2745 1975 
Q 2488 2216 2034 2216 
z
M 1403 2484 
Q 997 2584 770 2862 
Q 544 3141 544 3541 
Q 544 4100 942 4425 
Q 1341 4750 2034 4750 
Q 2731 4750 3128 4425 
Q 3525 4100 3525 3541 
Q 3525 3141 3298 2862 
Q 3072 2584 2669 2484 
Q 3125 2378 3379 2068 
Q 3634 1759 3634 1313 
Q 3634 634 3220 271 
Q 2806 -91 2034 -91 
Q 1263 -91 848 271 
Q 434 634 434 1313 
Q 434 1759 690 2068 
Q 947 2378 1403 2484 
z
M 1172 3481 
Q 1172 3119 1398 2916 
Q 1625 2713 2034 2713 
Q 2441 2713 2670 2916 
Q 2900 3119 2900 3481 
Q 2900 3844 2670 4047 
Q 2441 4250 2034 4250 
Q 1625 4250 1398 4047 
Q 1172 3844 1172 3481 
z
" transform="scale(0.015625)"/>
      <path id="DejaVuSans-35" d="M 691 4666 
L 3169 4666 
L 3169 4134 
L 1269 4134 
L 1269 2991 
Q 1406 3038 1543 3061 
Q 1681 3084 1819 3084 
Q 2600 3084 3056 2656 
Q 3513 2228 3513 1497 
Q 3513 744 3044 326 
Q 2575 -91 1722 -91 
Q 1428 -91 1123 -41 
Q 819 9 494 109 
L 494 744 
Q 775 591 1075 516 
Q 1375 441 1709 441 
Q 2250 441 2565 725 
Q 2881 1009 2881 1497 
Q 2881 1984 2565 2268 
Q 2250 2553 1709 2553 
Q 1456 2553 1204 2497 
Q 953 2441 691 2322 
L 691 4666 
z
" transform="scale(0.015625)"/>
     </defs>
     <use xlink:href="#DejaVuSans-6d"/>
     <use xlink:href="#DejaVuSans-69" x="97.412109"/>
     <use xlink:href="#DejaVuSans-6e" x="125.195312"/>
     <use xlink:href="#DejaVuSans-3d" x="188.574219"/>
     <use xlink:href="#DejaVuSans-2d" x="272.363281"/>
     <use xlink:href="#DejaVuSans-33" x="308.447266"/>
     <use xlink:href="#DejaVuSans-2e" x="372.070312"/>
     <use xlink:href="#DejaVuSans-30" x="403.857422"/>
     <use xlink:href="#DejaVuSans-38" x="467.480469"/>
     <use xlink:href="#DejaVuSans-35" x="531.103516"/>
    </g>
   </g>
   <g id="text_9">
    <g id="patch_8">
     <path d="M 860.054125 103.768799 
L 860.054125 44.973487 
Q 860.054125 44.973487 860.054125 44.973487 
L 850.376 44.973487 
Q 850.376 44.973487 850.376 44.973487 
L 850.376 103.768799 
Q 850.376 103.768799 850.376 103.768799 
L 860.054125 103.768799 
Q 860.054125 103.768799 860.054125 103.768799 
z
" style="fill: #ffffff"/>
    </g>
    <!-- max=3.705 -->
    <g transform="translate(857.974438 103.768799) rotate(-90) scale(0.1 -0.1)">
     <defs>
      <path id="DejaVuSans-61" d="M 2194 1759 
Q 1497 1759 1228 1600 
Q 959 1441 959 1056 
Q 959 750 1161 570 
Q 1363 391 1709 391 
Q 2188 391 2477 730 
Q 2766 1069 2766 1631 
L 2766 1759 
L 2194 1759 
z
M 3341 1997 
L 3341 0 
L 2766 0 
L 2766 531 
Q 2569 213 2275 61 
Q 1981 -91 1556 -91 
Q 1019 -91 701 211 
Q 384 513 384 1019 
Q 384 1609 779 1909 
Q 1175 2209 1959 2209 
L 2766 2209 
L 2766 2266 
Q 2766 2663 2505 2880 
Q 2244 3097 1772 3097 
Q 1472 3097 1187 3025 
Q 903 2953 641 2809 
L 641 3341 
Q 956 3463 1253 3523 
Q 1550 3584 1831 3584 
Q 2591 3584 2966 3190 
Q 3341 2797 3341 1997 
z
" transform="scale(0.015625)"/>
      <path id="DejaVuSans-78" d="M 3513 3500 
L 2247 1797 
L 3578 0 
L 2900 0 
L 1881 1375 
L 863 0 
L 184 0 
L 1544 1831 
L 300 3500 
L 978 3500 
L 1906 2253 
L 2834 3500 
L 3513 3500 
z
" transform="scale(0.015625)"/>
      <path id="DejaVuSans-37" d="M 525 4666 
L 3525 4666 
L 3525 4397 
L 1831 0 
L 1172 0 
L 2766 4134 
L 525 4134 
L 525 4666 
z
" transform="scale(0.015625)"/>
     </defs>
     <use xlink:href="#DejaVuSans-6d"/>
     <use xlink:href="#DejaVuSans-61" x="97.412109"/>
     <use xlink:href="#DejaVuSans-78" x="158.691406"/>
     <use xlink:href="#DejaVuSans-3d" x="217.871094"/>
     <use xlink:href="#DejaVuSans-33" x="301.660156"/>
     <use xlink:href="#DejaVuSans-2e" x="365.283203"/>
     <use xlink:href="#DejaVuSans-37" x="397.070312"/>
     <use xlink:href="#DejaVuSans-30" x="460.693359"/>
     <use xlink:href="#DejaVuSans-35" x="524.316406"/>
    </g>
   </g>
   <g id="text_10">
    <!-- 100 samples (μ=-0.024, σ=0.920) of Tensor[1000] x∈[-3.085, 3.705] μ=0.026 σ=1.004 CPU -->
    <g transform="translate(7.2 14.798437) scale(0.1 -0.1)">
     <defs>
      <path id="DejaVuSans-20" transform="scale(0.015625)"/>
      <path id="DejaVuSans-73" d="M 2834 3397 
L 2834 2853 
Q 2591 2978 2328 3040 
Q 2066 3103 1784 3103 
Q 1356 3103 1142 2972 
Q 928 2841 928 2578 
Q 928 2378 1081 2264 
Q 1234 2150 1697 2047 
L 1894 2003 
Q 2506 1872 2764 1633 
Q 3022 1394 3022 966 
Q 3022 478 2636 193 
Q 2250 -91 1575 -91 
Q 1294 -91 989 -36 
Q 684 19 347 128 
L 347 722 
Q 666 556 975 473 
Q 1284 391 1588 391 
Q 1994 391 2212 530 
Q 2431 669 2431 922 
Q 2431 1156 2273 1281 
Q 2116 1406 1581 1522 
L 1381 1569 
Q 847 1681 609 1914 
Q 372 2147 372 2553 
Q 372 3047 722 3315 
Q 1072 3584 1716 3584 
Q 2034 3584 2315 3537 
Q 2597 3491 2834 3397 
z
" transform="scale(0.015625)"/>
      <path id="DejaVuSans-70" d="M 1159 525 
L 1159 -1331 
L 581 -1331 
L 581 3500 
L 1159 3500 
L 1159 2969 
Q 1341 3281 1617 3432 
Q 1894 3584 2278 3584 
Q 2916 3584 3314 3078 
Q 3713 2572 3713 1747 
Q 3713 922 3314 415 
Q 2916 -91 2278 -91 
Q 1894 -91 1617 61 
Q 1341 213 1159 525 
z
M 3116 1747 
Q 3116 2381 2855 2742 
Q 2594 3103 2138 3103 
Q 1681 3103 1420 2742 
Q 1159 2381 1159 1747 
Q 1159 1113 1420 752 
Q 1681 391 2138 391 
Q 2594 391 2855 752 
Q 3116 1113 3116 1747 
z
" transform="scale(0.015625)"/>
      <path id="DejaVuSans-6c" d="M 603 4863 
L 1178 4863 
L 1178 0 
L 603 0 
L 603 4863 
z
" transform="scale(0.015625)"/>
      <path id="DejaVuSans-65" d="M 3597 1894 
L 3597 1613 
L 953 1613 
Q 991 1019 1311 708 
Q 1631 397 2203 397 
Q 2534 397 2845 478 
Q 3156 559 3463 722 
L 3463 178 
Q 3153 47 2828 -22 
Q 2503 -91 2169 -91 
Q 1331 -91 842 396 
Q 353 884 353 1716 
Q 353 2575 817 3079 
Q 1281 3584 2069 3584 
Q 2775 3584 3186 3129 
Q 3597 2675 3597 1894 
z
M 3022 2063 
Q 3016 2534 2758 2815 
Q 2500 3097 2075 3097 
Q 1594 3097 1305 2825 
Q 1016 2553 972 2059 
L 3022 2063 
z
" transform="scale(0.015625)"/>
      <path id="DejaVuSans-28" d="M 1984 4856 
Q 1566 4138 1362 3434 
Q 1159 2731 1159 2009 
Q 1159 1288 1364 580 
Q 1569 -128 1984 -844 
L 1484 -844 
Q 1016 -109 783 600 
Q 550 1309 550 2009 
Q 550 2706 781 3412 
Q 1013 4119 1484 4856 
L 1984 4856 
z
" transform="scale(0.015625)"/>
      <path id="DejaVuSans-3bc" d="M 544 -1331 
L 544 3500 
L 1119 3500 
L 1119 1325 
Q 1119 872 1334 640 
Q 1550 409 1972 409 
Q 2434 409 2667 671 
Q 2900 934 2900 1459 
L 2900 3500 
L 3475 3500 
L 3475 806 
Q 3475 619 3529 530 
Q 3584 441 3700 441 
Q 3728 441 3778 458 
Q 3828 475 3916 513 
L 3916 50 
Q 3788 -22 3673 -56 
Q 3559 -91 3450 -91 
Q 3234 -91 3106 31 
Q 2978 153 2931 403 
Q 2775 156 2548 32 
Q 2322 -91 2016 -91 
Q 1697 -91 1473 31 
Q 1250 153 1119 397 
L 1119 -1331 
L 544 -1331 
z
" transform="scale(0.015625)"/>
      <path id="DejaVuSans-34" d="M 2419 4116 
L 825 1625 
L 2419 1625 
L 2419 4116 
z
M 2253 4666 
L 3047 4666 
L 3047 1625 
L 3713 1625 
L 3713 1100 
L 3047 1100 
L 3047 0 
L 2419 0 
L 2419 1100 
L 313 1100 
L 313 1709 
L 2253 4666 
z
" transform="scale(0.015625)"/>
      <path id="DejaVuSans-2c" d="M 750 794 
L 1409 794 
L 1409 256 
L 897 -744 
L 494 -744 
L 750 256 
L 750 794 
z
" transform="scale(0.015625)"/>
      <path id="DejaVuSans-3c3" d="M 1959 3044 
Q 1484 3044 1228 2700 
Q 959 2341 959 1747 
Q 959 1119 1226 758 
Q 1494 397 1959 397 
Q 2419 397 2687 759 
Q 2956 1122 2956 1747 
Q 2956 2319 2688 2700 
Q 2441 3044 1959 3044 
z
M 1959 3500 
L 3869 3500 
L 3869 2925 
L 3225 2925 
Q 3566 2438 3566 1747 
Q 3566 888 3138 400 
Q 2709 -91 1959 -91 
Q 1206 -91 781 400 
Q 353 888 353 1747 
Q 353 2613 781 3097 
Q 1134 3500 1959 3500 
z
" transform="scale(0.015625)"/>
      <path id="DejaVuSans-39" d="M 703 97 
L 703 672 
Q 941 559 1184 500 
Q 1428 441 1663 441 
Q 2288 441 2617 861 
Q 2947 1281 2994 2138 
Q 2813 1869 2534 1725 
Q 2256 1581 1919 1581 
Q 1219 1581 811 2004 
Q 403 2428 403 3163 
Q 403 3881 828 4315 
Q 1253 4750 1959 4750 
Q 2769 4750 3195 4129 
Q 3622 3509 3622 2328 
Q 3622 1225 3098 567 
Q 2575 -91 1691 -91 
Q 1453 -91 1209 -44 
Q 966 3 703 97 
z
M 1959 2075 
Q 2384 2075 2632 2365 
Q 2881 2656 2881 3163 
Q 2881 3666 2632 3958 
Q 2384 4250 1959 4250 
Q 1534 4250 1286 3958 
Q 1038 3666 1038 3163 
Q 1038 2656 1286 2365 
Q 1534 2075 1959 2075 
z
" transform="scale(0.015625)"/>
      <path id="DejaVuSans-29" d="M 513 4856 
L 1013 4856 
Q 1481 4119 1714 3412 
Q 1947 2706 1947 2009 
Q 1947 1309 1714 600 
Q 1481 -109 1013 -844 
L 513 -844 
Q 928 -128 1133 580 
Q 1338 1288 1338 2009 
Q 1338 2731 1133 3434 
Q 928 4138 513 4856 
z
" transform="scale(0.015625)"/>
      <path id="DejaVuSans-6f" d="M 1959 3097 
Q 1497 3097 1228 2736 
Q 959 2375 959 1747 
Q 959 1119 1226 758 
Q 1494 397 1959 397 
Q 2419 397 2687 759 
Q 2956 1122 2956 1747 
Q 2956 2369 2687 2733 
Q 2419 3097 1959 3097 
z
M 1959 3584 
Q 2709 3584 3137 3096 
Q 3566 2609 3566 1747 
Q 3566 888 3137 398 
Q 2709 -91 1959 -91 
Q 1206 -91 779 398 
Q 353 888 353 1747 
Q 353 2609 779 3096 
Q 1206 3584 1959 3584 
z
" transform="scale(0.015625)"/>
      <path id="DejaVuSans-66" d="M 2375 4863 
L 2375 4384 
L 1825 4384 
Q 1516 4384 1395 4259 
Q 1275 4134 1275 3809 
L 1275 3500 
L 2222 3500 
L 2222 3053 
L 1275 3053 
L 1275 0 
L 697 0 
L 697 3053 
L 147 3053 
L 147 3500 
L 697 3500 
L 697 3744 
Q 697 4328 969 4595 
Q 1241 4863 1831 4863 
L 2375 4863 
z
" transform="scale(0.015625)"/>
      <path id="DejaVuSans-54" d="M -19 4666 
L 3928 4666 
L 3928 4134 
L 2272 4134 
L 2272 0 
L 1638 0 
L 1638 4134 
L -19 4134 
L -19 4666 
z
" transform="scale(0.015625)"/>
      <path id="DejaVuSans-72" d="M 2631 2963 
Q 2534 3019 2420 3045 
Q 2306 3072 2169 3072 
Q 1681 3072 1420 2755 
Q 1159 2438 1159 1844 
L 1159 0 
L 581 0 
L 581 3500 
L 1159 3500 
L 1159 2956 
Q 1341 3275 1631 3429 
Q 1922 3584 2338 3584 
Q 2397 3584 2469 3576 
Q 2541 3569 2628 3553 
L 2631 2963 
z
" transform="scale(0.015625)"/>
      <path id="DejaVuSans-5b" d="M 550 4863 
L 1875 4863 
L 1875 4416 
L 1125 4416 
L 1125 -397 
L 1875 -397 
L 1875 -844 
L 550 -844 
L 550 4863 
z
" transform="scale(0.015625)"/>
      <path id="DejaVuSans-5d" d="M 1947 4863 
L 1947 -844 
L 622 -844 
L 622 -397 
L 1369 -397 
L 1369 4416 
L 622 4416 
L 622 4863 
L 1947 4863 
z
" transform="scale(0.015625)"/>
      <path id="DejaVuSans-2208" d="M 1072 1959 
Q 1094 1728 1291 1353 
Q 1522 919 1959 675 
Q 2388 438 2850 434 
L 5028 434 
L 5028 -63 
L 2850 -63 
Q 2250 -63 1695 246 
Q 1141 556 844 1106 
Q 547 1656 547 2241 
Q 547 2819 844 3369 
Q 1141 3919 1695 4231 
Q 2250 4544 2850 4544 
L 5028 4544 
L 5028 4047 
L 2850 4047 
Q 2388 4044 1959 3803 
Q 1525 3556 1291 3125 
Q 1091 2750 1063 2459 
L 5028 2459 
L 5028 1959 
L 1072 1959 
z
" transform="scale(0.015625)"/>
      <path id="DejaVuSans-36" d="M 2113 2584 
Q 1688 2584 1439 2293 
Q 1191 2003 1191 1497 
Q 1191 994 1439 701 
Q 1688 409 2113 409 
Q 2538 409 2786 701 
Q 3034 994 3034 1497 
Q 3034 2003 2786 2293 
Q 2538 2584 2113 2584 
z
M 3366 4563 
L 3366 3988 
Q 3128 4100 2886 4159 
Q 2644 4219 2406 4219 
Q 1781 4219 1451 3797 
Q 1122 3375 1075 2522 
Q 1259 2794 1537 2939 
Q 1816 3084 2150 3084 
Q 2853 3084 3261 2657 
Q 3669 2231 3669 1497 
Q 3669 778 3244 343 
Q 2819 -91 2113 -91 
Q 1303 -91 875 529 
Q 447 1150 447 2328 
Q 447 3434 972 4092 
Q 1497 4750 2381 4750 
Q 2619 4750 2861 4703 
Q 3103 4656 3366 4563 
z
" transform="scale(0.015625)"/>
      <path id="DejaVuSans-43" d="M 4122 4306 
L 4122 3641 
Q 3803 3938 3442 4084 
Q 3081 4231 2675 4231 
Q 1875 4231 1450 3742 
Q 1025 3253 1025 2328 
Q 1025 1406 1450 917 
Q 1875 428 2675 428 
Q 3081 428 3442 575 
Q 3803 722 4122 1019 
L 4122 359 
Q 3791 134 3420 21 
Q 3050 -91 2638 -91 
Q 1578 -91 968 557 
Q 359 1206 359 2328 
Q 359 3453 968 4101 
Q 1578 4750 2638 4750 
Q 3056 4750 3426 4639 
Q 3797 4528 4122 4306 
z
" transform="scale(0.015625)"/>
      <path id="DejaVuSans-50" d="M 1259 4147 
L 1259 2394 
L 2053 2394 
Q 2494 2394 2734 2622 
Q 2975 2850 2975 3272 
Q 2975 3691 2734 3919 
Q 2494 4147 2053 4147 
L 1259 4147 
z
M 628 4666 
L 2053 4666 
Q 2838 4666 3239 4311 
Q 3641 3956 3641 3272 
Q 3641 2581 3239 2228 
Q 2838 1875 2053 1875 
L 1259 1875 
L 1259 0 
L 628 0 
L 628 4666 
z
" transform="scale(0.015625)"/>
      <path id="DejaVuSans-55" d="M 556 4666 
L 1191 4666 
L 1191 1831 
Q 1191 1081 1462 751 
Q 1734 422 2344 422 
Q 2950 422 3222 751 
Q 3494 1081 3494 1831 
L 3494 4666 
L 4128 4666 
L 4128 1753 
Q 4128 841 3676 375 
Q 3225 -91 2344 -91 
Q 1459 -91 1007 375 
Q 556 841 556 1753 
L 556 4666 
z
" transform="scale(0.015625)"/>
     </defs>
     <use xlink:href="#DejaVuSans-31"/>
     <use xlink:href="#DejaVuSans-30" x="63.623047"/>
     <use xlink:href="#DejaVuSans-30" x="127.246094"/>
     <use xlink:href="#DejaVuSans-20" x="190.869141"/>
     <use xlink:href="#DejaVuSans-73" x="222.65625"/>
     <use xlink:href="#DejaVuSans-61" x="274.755859"/>
     <use xlink:href="#DejaVuSans-6d" x="336.035156"/>
     <use xlink:href="#DejaVuSans-70" x="433.447266"/>
     <use xlink:href="#DejaVuSans-6c" x="496.923828"/>
     <use xlink:href="#DejaVuSans-65" x="524.707031"/>
     <use xlink:href="#DejaVuSans-73" x="586.230469"/>
     <use xlink:href="#DejaVuSans-20" x="638.330078"/>
     <use xlink:href="#DejaVuSans-28" x="670.117188"/>
     <use xlink:href="#DejaVuSans-3bc" x="709.130859"/>
     <use xlink:href="#DejaVuSans-3d" x="772.753906"/>
     <use xlink:href="#DejaVuSans-2d" x="856.542969"/>
     <use xlink:href="#DejaVuSans-30" x="892.626953"/>
     <use xlink:href="#DejaVuSans-2e" x="956.25"/>
     <use xlink:href="#DejaVuSans-30" x="988.037109"/>
     <use xlink:href="#DejaVuSans-32" x="1051.660156"/>
     <use xlink:href="#DejaVuSans-34" x="1115.283203"/>
     <use xlink:href="#DejaVuSans-2c" x="1178.90625"/>
     <use xlink:href="#DejaVuSans-20" x="1210.693359"/>
     <use xlink:href="#DejaVuSans-3c3" x="1242.480469"/>
     <use xlink:href="#DejaVuSans-3d" x="1305.859375"/>
     <use xlink:href="#DejaVuSans-30" x="1389.648438"/>
     <use xlink:href="#DejaVuSans-2e" x="1453.271484"/>
     <use xlink:href="#DejaVuSans-39" x="1485.058594"/>
     <use xlink:href="#DejaVuSans-32" x="1548.681641"/>
     <use xlink:href="#DejaVuSans-30" x="1612.304688"/>
     <use xlink:href="#DejaVuSans-29" x="1675.927734"/>
     <use xlink:href="#DejaVuSans-20" x="1714.941406"/>
     <use xlink:href="#DejaVuSans-6f" x="1746.728516"/>
     <use xlink:href="#DejaVuSans-66" x="1807.910156"/>
     <use xlink:href="#DejaVuSans-20" x="1843.115234"/>
     <use xlink:href="#DejaVuSans-54" x="1874.902344"/>
     <use xlink:href="#DejaVuSans-65" x="1918.986328"/>
     <use xlink:href="#DejaVuSans-6e" x="1980.509766"/>
     <use xlink:href="#DejaVuSans-73" x="2043.888672"/>
     <use xlink:href="#DejaVuSans-6f" x="2095.988281"/>
     <use xlink:href="#DejaVuSans-72" x="2157.169922"/>
     <use xlink:href="#DejaVuSans-5b" x="2198.283203"/>
     <use xlink:href="#DejaVuSans-31" x="2237.296875"/>
     <use xlink:href="#DejaVuSans-30" x="2300.919922"/>
     <use xlink:href="#DejaVuSans-30" x="2364.542969"/>
     <use xlink:href="#DejaVuSans-30" x="2428.166016"/>
     <use xlink:href="#DejaVuSans-5d" x="2491.789062"/>
     <use xlink:href="#DejaVuSans-20" x="2530.802734"/>
     <use xlink:href="#DejaVuSans-78" x="2562.589844"/>
     <use xlink:href="#DejaVuSans-2208" x="2621.769531"/>
     <use xlink:href="#DejaVuSans-5b" x="2708.878906"/>
     <use xlink:href="#DejaVuSans-2d" x="2747.892578"/>
     <use xlink:href="#DejaVuSans-33" x="2783.976562"/>
     <use xlink:href="#DejaVuSans-2e" x="2847.599609"/>
     <use xlink:href="#DejaVuSans-30" x="2879.386719"/>
     <use xlink:href="#DejaVuSans-38" x="2943.009766"/>
     <use xlink:href="#DejaVuSans-35" x="3006.632812"/>
     <use xlink:href="#DejaVuSans-2c" x="3070.255859"/>
     <use xlink:href="#DejaVuSans-20" x="3102.042969"/>
     <use xlink:href="#DejaVuSans-33" x="3133.830078"/>
     <use xlink:href="#DejaVuSans-2e" x="3197.453125"/>
     <use xlink:href="#DejaVuSans-37" x="3229.240234"/>
     <use xlink:href="#DejaVuSans-30" x="3292.863281"/>
     <use xlink:href="#DejaVuSans-35" x="3356.486328"/>
     <use xlink:href="#DejaVuSans-5d" x="3420.109375"/>
     <use xlink:href="#DejaVuSans-20" x="3459.123047"/>
     <use xlink:href="#DejaVuSans-3bc" x="3490.910156"/>
     <use xlink:href="#DejaVuSans-3d" x="3554.533203"/>
     <use xlink:href="#DejaVuSans-30" x="3638.322266"/>
     <use xlink:href="#DejaVuSans-2e" x="3701.945312"/>
     <use xlink:href="#DejaVuSans-30" x="3733.732422"/>
     <use xlink:href="#DejaVuSans-32" x="3797.355469"/>
     <use xlink:href="#DejaVuSans-36" x="3860.978516"/>
     <use xlink:href="#DejaVuSans-20" x="3924.601562"/>
     <use xlink:href="#DejaVuSans-3c3" x="3956.388672"/>
     <use xlink:href="#DejaVuSans-3d" x="4019.767578"/>
     <use xlink:href="#DejaVuSans-31" x="4103.556641"/>
     <use xlink:href="#DejaVuSans-2e" x="4167.179688"/>
     <use xlink:href="#DejaVuSans-30" x="4198.966797"/>
     <use xlink:href="#DejaVuSans-30" x="4262.589844"/>
     <use xlink:href="#DejaVuSans-34" x="4326.212891"/>
     <use xlink:href="#DejaVuSans-20" x="4389.835938"/>
     <use xlink:href="#DejaVuSans-43" x="4421.623047"/>
     <use xlink:href="#DejaVuSans-50" x="4491.447266"/>
     <use xlink:href="#DejaVuSans-55" x="4551.75"/>
    </g>
   </g>
   <g id="patch_9">
    <path d="M 129.165019 128.528148 
L 176.361668 128.528148 
L 176.361668 121.628067 
L 129.165019 121.628067 
z
" clip-path="url(#pacd620a5b4)" style="fill: #00bfff"/>
   </g>
   <g id="patch_10">
    <path d="M 176.361668 128.528148 
L 223.558318 128.528148 
L 223.558318 121.628067 
L 176.361668 121.628067 
z
" clip-path="url(#pacd620a5b4)" style="fill: #00bfff"/>
   </g>
   <g id="patch_11">
    <path d="M 223.558318 128.528148 
L 270.75498 128.528148 
L 270.75498 114.727991 
L 223.558318 114.727991 
z
" clip-path="url(#pacd620a5b4)" style="fill: #00bfff"/>
   </g>
   <g id="patch_12">
    <path d="M 270.75498 128.528148 
L 317.951629 128.528148 
L 317.951629 107.827907 
L 270.75498 107.827907 
z
" clip-path="url(#pacd620a5b4)" style="fill: #00bfff"/>
   </g>
   <g id="patch_13">
    <path d="M 317.951629 128.528148 
L 365.148278 128.528148 
L 365.148278 87.127666 
L 317.951629 87.127666 
z
" clip-path="url(#pacd620a5b4)" style="fill: #00bfff"/>
   </g>
   <g id="patch_14">
    <path d="M 365.148278 128.528148 
L 412.344931 128.528148 
L 412.344931 100.927829 
L 365.148278 100.927829 
z
" clip-path="url(#pacd620a5b4)" style="fill: #00bfff"/>
   </g>
   <g id="patch_15">
    <path d="M 412.344931 128.528148 
L 459.541582 128.528148 
L 459.541582 49.177225 
L 412.344931 49.177225 
z
" clip-path="url(#pacd620a5b4)" style="fill: #00bfff"/>
   </g>
   <g id="patch_16">
    <path d="M 459.541582 128.528148 
L 506.738232 128.528148 
L 506.738232 62.977385 
L 459.541582 62.977385 
z
" clip-path="url(#pacd620a5b4)" style="fill: #00bfff"/>
   </g>
   <g id="patch_17">
    <path d="M 506.738232 128.528148 
L 553.934888 128.528148 
L 553.934888 83.677632 
L 506.738232 83.677632 
z
" clip-path="url(#pacd620a5b4)" style="fill: #00bfff"/>
   </g>
   <g id="patch_18">
    <path d="M 553.934888 128.528148 
L 601.131537 128.528148 
L 601.131537 90.577706 
L 553.934888 90.577706 
z
" clip-path="url(#pacd620a5b4)" style="fill: #00bfff"/>
   </g>
   <g id="line2d_19">
    <path d="M 7.2 128.517267 
L 15.866662 128.512721 
L 24.533324 128.506433 
L 33.199985 128.497799 
L 41.866647 128.486036 
L 50.533309 128.470132 
L 59.199971 128.448792 
L 67.866633 128.420378 
L 76.533295 128.382837 
L 85.199956 128.333617 
L 93.866618 128.269588 
L 102.53328 128.186938 
L 111.199942 128.081088 
L 119.866604 127.946586 
L 128.533265 127.777024 
L 137.199927 127.564956 
L 145.866589 127.301841 
L 154.533251 126.978008 
L 163.199913 126.582662 
L 171.866575 126.103935 
L 180.533236 125.528994 
L 189.199898 124.844211 
L 197.86656 124.035412 
L 206.533222 123.088196 
L 215.199884 121.988345 
L 223.866545 120.722309 
L 232.533207 119.27776 
L 241.199869 117.64422 
L 249.866531 115.813721 
L 258.533193 113.781501 
L 267.199855 111.546682 
L 275.866516 109.112921 
L 284.533178 106.488982 
L 293.19984 103.689199 
L 301.866502 100.733788 
L 310.533164 97.648985 
L 319.199825 94.466963 
L 327.866487 91.225524 
L 336.533149 87.967546 
L 345.199811 84.740179 
L 353.866473 81.593822 
L 362.533135 78.580876 
L 371.199796 75.754351 
L 379.866458 73.166335 
L 388.53312 70.86642 
L 397.199782 68.900128 
L 405.866444 67.307416 
L 414.533105 66.121331 
L 423.199767 65.366866 
L 431.866429 65.060087 
L 440.533091 65.207563 
L 449.199753 65.806135 
L 457.866415 66.843022 
L 466.533076 68.296284 
L 475.199738 70.135584 
L 483.8664 72.323248 
L 492.533062 74.815545 
L 501.199724 77.564136 
L 509.866385 80.517628 
L 518.533047 83.623159 
L 527.199709 86.827945 
L 535.866371 90.080734 
L 544.533033 93.333105 
L 553.199695 96.540579 
L 561.866356 99.663493 
L 570.533018 102.667649 
L 579.19968 105.524707 
L 587.866342 108.212339 
L 596.533004 110.714174 
L 605.199665 113.019538 
L 613.866327 115.123039 
L 622.532989 117.024033 
L 631.199651 118.725995 
L 639.866313 120.235846 
L 648.532975 121.56326 
L 657.199636 122.719988 
L 665.866298 123.719219 
L 674.53296 124.574995 
L 683.199622 125.301704 
L 691.866284 125.913639 
L 700.532945 126.424653 
L 709.199607 126.847881 
L 717.866269 127.195546 
L 726.532931 127.478828 
L 735.199593 127.707795 
L 743.866255 127.891383 
L 752.532916 128.037417 
L 761.199578 128.152663 
L 769.86624 128.242897 
L 778.532902 128.312995 
L 787.199564 128.367027 
L 795.866225 128.408352 
L 804.532887 128.439714 
L 813.199549 128.463332 
L 821.866211 128.480982 
L 830.532873 128.494071 
L 839.199535 128.503703 
L 847.866196 128.510738 
L 856.532858 128.515837 
L 865.19952 128.519505 
" clip-path="url(#pacd620a5b4)" style="fill: none; stroke: #1f77b4; stroke-width: 1.5; stroke-linecap: square"/>
   </g>
   <g id="text_11">
    <g id="patch_19">
     <path d="M 15.877675 38.307963 
L 32.185487 38.307963 
Q 35.185487 38.307963 35.185487 35.307963 
L 35.185487 25.629838 
Q 35.185487 22.629838 32.185487 22.629838 
L 15.877675 22.629838 
Q 12.877675 22.629838 12.877675 25.629838 
L 12.877675 35.307963 
Q 12.877675 38.307963 15.877675 38.307963 
z
" style="fill: #ffffff"/>
    </g>
    <!-- -4σ -->
    <g transform="translate(15.877675 33.228276) scale(0.1 -0.1)">
     <use xlink:href="#DejaVuSans-2d"/>
     <use xlink:href="#DejaVuSans-34" x="36.083984"/>
     <use xlink:href="#DejaVuSans-3c3" x="99.707031"/>
    </g>
   </g>
   <g id="text_12">
    <g id="patch_20">
     <path d="M 118.216898 38.307963 
L 134.524711 38.307963 
Q 137.524711 38.307963 137.524711 35.307963 
L 137.524711 25.629838 
Q 137.524711 22.629838 134.524711 22.629838 
L 118.216898 22.629838 
Q 115.216898 22.629838 115.216898 25.629838 
L 115.216898 35.307963 
Q 115.216898 38.307963 118.216898 38.307963 
z
" style="fill: #ffffff"/>
    </g>
    <!-- -3σ -->
    <g transform="translate(118.216898 33.228276) scale(0.1 -0.1)">
     <use xlink:href="#DejaVuSans-2d"/>
     <use xlink:href="#DejaVuSans-33" x="36.083984"/>
     <use xlink:href="#DejaVuSans-3c3" x="99.707031"/>
    </g>
   </g>
   <g id="text_13">
    <g id="patch_21">
     <path d="M 220.556121 38.307963 
L 236.863934 38.307963 
Q 239.863934 38.307963 239.863934 35.307963 
L 239.863934 25.629838 
Q 239.863934 22.629838 236.863934 22.629838 
L 220.556121 22.629838 
Q 217.556121 22.629838 217.556121 25.629838 
L 217.556121 35.307963 
Q 217.556121 38.307963 220.556121 38.307963 
z
" style="fill: #ffffff"/>
    </g>
    <!-- -2σ -->
    <g transform="translate(220.556121 33.228276) scale(0.1 -0.1)">
     <use xlink:href="#DejaVuSans-2d"/>
     <use xlink:href="#DejaVuSans-32" x="36.083984"/>
     <use xlink:href="#DejaVuSans-3c3" x="99.707031"/>
    </g>
   </g>
   <g id="text_14">
    <g id="patch_22">
     <path d="M 326.076594 38.307963 
L 336.021907 38.307963 
Q 339.021907 38.307963 339.021907 35.307963 
L 339.021907 25.629838 
Q 339.021907 22.629838 336.021907 22.629838 
L 326.076594 22.629838 
Q 323.076594 22.629838 323.076594 25.629838 
L 323.076594 35.307963 
Q 323.076594 38.307963 326.076594 38.307963 
z
" style="fill: #ffffff"/>
    </g>
    <!-- -σ -->
    <g transform="translate(326.076594 33.228276) scale(0.1 -0.1)">
     <use xlink:href="#DejaVuSans-2d"/>
     <use xlink:href="#DejaVuSans-3c3" x="36.083984"/>
    </g>
   </g>
   <g id="text_15">
    <g id="patch_23">
     <path d="M 429.709567 38.307963 
L 437.06738 38.307963 
Q 440.06738 38.307963 440.06738 35.307963 
L 440.06738 25.629838 
Q 440.06738 22.629838 437.06738 22.629838 
L 429.709567 22.629838 
Q 426.709567 22.629838 426.709567 25.629838 
L 426.709567 35.307963 
Q 426.709567 38.307963 429.709567 38.307963 
z
" style="fill: #ffffff"/>
    </g>
    <!-- μ -->
    <g transform="translate(429.709567 33.217338) scale(0.1 -0.1)">
     <defs>
      <path id="DejaVuSans-Bold-3bc" d="M 544 -1338 
L 544 3500 
L 1672 3500 
L 1672 1466 
Q 1672 1103 1828 926 
Q 1984 750 2303 750 
Q 2625 750 2781 926 
Q 2938 1103 2938 1466 
L 2938 3500 
L 4063 3500 
L 4063 1159 
Q 4063 938 4114 850 
Q 4166 763 4288 763 
Q 4344 763 4395 778 
Q 4447 794 4506 831 
L 4506 50 
Q 4341 -22 4195 -56 
Q 4050 -91 3909 -91 
Q 3631 -91 3454 26 
Q 3278 144 3169 403 
Q 3022 156 2811 32 
Q 2600 -91 2322 -91 
Q 2091 -91 1928 -17 
Q 1766 56 1672 206 
L 1672 -1338 
L 544 -1338 
z
" transform="scale(0.015625)"/>
     </defs>
     <use xlink:href="#DejaVuSans-Bold-3bc"/>
    </g>
   </g>
   <g id="text_16">
    <g id="patch_24">
     <path d="M 528.369103 38.307963 
L 543.08629 38.307963 
Q 546.08629 38.307963 546.08629 35.307963 
L 546.08629 25.629838 
Q 546.08629 22.629838 543.08629 22.629838 
L 528.369103 22.629838 
Q 525.369103 22.629838 525.369103 25.629838 
L 525.369103 35.307963 
Q 525.369103 38.307963 528.369103 38.307963 
z
" style="fill: #ffffff"/>
    </g>
    <!-- +σ -->
    <g transform="translate(528.369103 33.228276) scale(0.1 -0.1)">
     <defs>
      <path id="DejaVuSans-2b" d="M 2944 4013 
L 2944 2272 
L 4684 2272 
L 4684 1741 
L 2944 1741 
L 2944 0 
L 2419 0 
L 2419 1741 
L 678 1741 
L 678 2272 
L 2419 2272 
L 2419 4013 
L 2944 4013 
z
" transform="scale(0.015625)"/>
     </defs>
     <use xlink:href="#DejaVuSans-2b"/>
     <use xlink:href="#DejaVuSans-3c3" x="83.789062"/>
    </g>
   </g>
   <g id="text_17">
    <g id="patch_25">
     <path d="M 627.527076 38.307963 
L 648.606764 38.307963 
Q 651.606764 38.307963 651.606764 35.307963 
L 651.606764 25.629838 
Q 651.606764 22.629838 648.606764 22.629838 
L 627.527076 22.629838 
Q 624.527076 22.629838 624.527076 25.629838 
L 624.527076 35.307963 
Q 624.527076 38.307963 627.527076 38.307963 
z
" style="fill: #ffffff"/>
    </g>
    <!-- +2σ -->
    <g transform="translate(627.527076 33.228276) scale(0.1 -0.1)">
     <use xlink:href="#DejaVuSans-2b"/>
     <use xlink:href="#DejaVuSans-32" x="83.789062"/>
     <use xlink:href="#DejaVuSans-3c3" x="147.412109"/>
    </g>
   </g>
   <g id="text_18">
    <g id="patch_26">
     <path d="M 729.866299 38.307963 
L 750.945987 38.307963 
Q 753.945987 38.307963 753.945987 35.307963 
L 753.945987 25.629838 
Q 753.945987 22.629838 750.945987 22.629838 
L 729.866299 22.629838 
Q 726.866299 22.629838 726.866299 25.629838 
L 726.866299 35.307963 
Q 726.866299 38.307963 729.866299 38.307963 
z
" style="fill: #ffffff"/>
    </g>
    <!-- +3σ -->
    <g transform="translate(729.866299 33.228276) scale(0.1 -0.1)">
     <use xlink:href="#DejaVuSans-2b"/>
     <use xlink:href="#DejaVuSans-33" x="83.789062"/>
     <use xlink:href="#DejaVuSans-3c3" x="147.412109"/>
    </g>
   </g>
   <g id="text_19">
    <g id="patch_27">
     <path d="M 832.205522 38.307963 
L 853.28521 38.307963 
Q 856.28521 38.307963 856.28521 35.307963 
L 856.28521 25.629838 
Q 856.28521 22.629838 853.28521 22.629838 
L 832.205522 22.629838 
Q 829.205522 22.629838 829.205522 25.629838 
L 829.205522 35.307963 
Q 829.205522 38.307963 832.205522 38.307963 
z
" style="fill: #ffffff"/>
    </g>
    <!-- +4σ -->
    <g transform="translate(832.205522 33.228276) scale(0.1 -0.1)">
     <use xlink:href="#DejaVuSans-2b"/>
     <use xlink:href="#DejaVuSans-34" x="83.789062"/>
     <use xlink:href="#DejaVuSans-3c3" x="147.412109"/>
    </g>
   </g>
  </g>
 </g>
 <defs>
  <clipPath id="pacd620a5b4">
   <rect x="7.2" y="20.214138" width="857.99952" height="108.31401"/>
  </clipPath>
 </defs>
</svg>
