<?xml version="1.0" encoding="utf-8" standalone="no"?>
<!DOCTYPE svg PUBLIC "-//W3C//DTD SVG 1.1//EN"
  "http://www.w3.org/Graphics/SVG/1.1/DTD/svg11.dtd">
<svg xmlns:xlink="http://www.w3.org/1999/xlink" width="872.39952pt" height="152.406273pt" viewBox="0 0 872.39952 152.406273" xmlns="http://www.w3.org/2000/svg" version="1.1">
 <metadata>
  <rdf:RDF xmlns:dc="http://purl.org/dc/elements/1.1/" xmlns:cc="http://creativecommons.org/ns#" xmlns:rdf="http://www.w3.org/1999/02/22-rdf-syntax-ns#">
   <cc:Work>
    <dc:type rdf:resource="http://purl.org/dc/dcmitype/StillImage"/>
    <dc:format>image/svg+xml</dc:format>
    <dc:creator>
     <cc:Agent>
      <dc:title>Matplotlib, https://matplotlib.org/</dc:title>
     </cc:Agent>
    </dc:creator>
   </cc:Work>
  </rdf:RDF>
 </metadata>
 <defs>
  <style type="text/css">*{stroke-linejoin: round; stroke-linecap: butt}</style>
 </defs>
 <g id="figure_1">
  <g id="patch_1">
   <path d="M 0 152.406273 
L 872.39952 152.406273 
L 872.39952 0 
L 0 0 
z
" style="fill: #ffffff"/>
  </g>
  <g id="axes_1">
   <g id="patch_2">
    <path d="M 7.2 128.528148 
L 865.19952 128.528148 
L 865.19952 20.214138 
L 7.2 20.214138 
z
" style="fill: #ffffff"/>
   </g>
   <g id="matplotlib.axis_1">
    <g id="xtick_1">
     <g id="line2d_1">
      <defs>
       <path id="m8f1de1206a" d="M 0 0 
L 0 3.5 
" style="stroke: #000000; stroke-width: 0.8"/>
      </defs>
      <g>
       <use xlink:href="#m8f1de1206a" x="42.629517" y="128.528148" style="stroke: #000000; stroke-width: 0.8"/>
      </g>
     </g>
     <g id="text_1">
      <!-- −4 -->
      <g transform="translate(35.258423 143.126585) scale(0.1 -0.1)">
       <defs>
        <path id="DejaVuSans-2212" d="M 678 2272 
L 4684 2272 
L 4684 1741 
L 678 1741 
L 678 2272 
z
" transform="scale(0.015625)"/>
        <path id="DejaVuSans-34" d="M 2419 4116 
L 825 1625 
L 2419 1625 
L 2419 4116 
z
M 2253 4666 
L 3047 4666 
L 3047 1625 
L 3713 1625 
L 3713 1100 
L 3047 1100 
L 3047 0 
L 2419 0 
L 2419 1100 
L 313 1100 
L 313 1709 
L 2253 4666 
z
" transform="scale(0.015625)"/>
       </defs>
       <use xlink:href="#DejaVuSans-2212"/>
       <use xlink:href="#DejaVuSans-34" transform="translate(83.789062 0)"/>
      </g>
     </g>
    </g>
    <g id="xtick_2">
     <g id="line2d_2">
      <g>
       <use xlink:href="#m8f1de1206a" x="140.980843" y="128.528148" style="stroke: #000000; stroke-width: 0.8"/>
      </g>
     </g>
     <g id="text_2">
      <!-- −3 -->
      <g transform="translate(133.609749 143.126585) scale(0.1 -0.1)">
       <defs>
        <path id="DejaVuSans-33" d="M 2597 2516 
Q 3050 2419 3304 2112 
Q 3559 1806 3559 1356 
Q 3559 666 3084 287 
Q 2609 -91 1734 -91 
Q 1441 -91 1130 -33 
Q 819 25 488 141 
L 488 750 
Q 750 597 1062 519 
Q 1375 441 1716 441 
Q 2309 441 2620 675 
Q 2931 909 2931 1356 
Q 2931 1769 2642 2001 
Q 2353 2234 1838 2234 
L 1294 2234 
L 1294 2753 
L 1863 2753 
Q 2328 2753 2575 2939 
Q 2822 3125 2822 3475 
Q 2822 3834 2567 4026 
Q 2313 4219 1838 4219 
Q 1578 4219 1281 4162 
Q 984 4106 628 3988 
L 628 4550 
Q 988 4650 1302 4700 
Q 1616 4750 1894 4750 
Q 2613 4750 3031 4423 
Q 3450 4097 3450 3541 
Q 3450 3153 3228 2886 
Q 3006 2619 2597 2516 
z
" transform="scale(0.015625)"/>
       </defs>
       <use xlink:href="#DejaVuSans-2212"/>
       <use xlink:href="#DejaVuSans-33" transform="translate(83.789062 0)"/>
      </g>
     </g>
    </g>
    <g id="xtick_3">
     <g id="line2d_3">
      <g>
       <use xlink:href="#m8f1de1206a" x="239.332169" y="128.528148" style="stroke: #000000; stroke-width: 0.8"/>
      </g>
     </g>
     <g id="text_3">
      <!-- −2 -->
      <g transform="translate(231.961075 143.126585) scale(0.1 -0.1)">
       <defs>
        <path id="DejaVuSans-32" d="M 1228 531 
L 3431 531 
L 3431 0 
L 469 0 
L 469 531 
Q 828 903 1448 1529 
Q 2069 2156 2228 2338 
Q 2531 2678 2651 2914 
Q 2772 3150 2772 3378 
Q 2772 3750 2511 3984 
Q 2250 4219 1831 4219 
Q 1534 4219 1204 4116 
Q 875 4013 500 3803 
L 500 4441 
Q 881 4594 1212 4672 
Q 1544 4750 1819 4750 
Q 2544 4750 2975 4387 
Q 3406 4025 3406 3419 
Q 3406 3131 3298 2873 
Q 3191 2616 2906 2266 
Q 2828 2175 2409 1742 
Q 1991 1309 1228 531 
z
" transform="scale(0.015625)"/>
       </defs>
       <use xlink:href="#DejaVuSans-2212"/>
       <use xlink:href="#DejaVuSans-32" transform="translate(83.789062 0)"/>
      </g>
     </g>
    </g>
    <g id="xtick_4">
     <g id="line2d_4">
      <g>
       <use xlink:href="#m8f1de1206a" x="337.683495" y="128.528148" style="stroke: #000000; stroke-width: 0.8"/>
      </g>
     </g>
     <g id="text_4">
      <!-- −1 -->
      <g transform="translate(330.312401 143.126585) scale(0.1 -0.1)">
       <defs>
        <path id="DejaVuSans-31" d="M 794 531 
L 1825 531 
L 1825 4091 
L 703 3866 
L 703 4441 
L 1819 4666 
L 2450 4666 
L 2450 531 
L 3481 531 
L 3481 0 
L 794 0 
L 794 531 
z
" transform="scale(0.015625)"/>
       </defs>
       <use xlink:href="#DejaVuSans-2212"/>
       <use xlink:href="#DejaVuSans-31" transform="translate(83.789062 0)"/>
      </g>
     </g>
    </g>
    <g id="xtick_5">
     <g id="line2d_5">
      <g>
       <use xlink:href="#m8f1de1206a" x="436.034821" y="128.528148" style="stroke: #000000; stroke-width: 0.8"/>
      </g>
     </g>
     <g id="text_5">
      <!-- 0 -->
      <g transform="translate(432.853571 143.126585) scale(0.1 -0.1)">
       <defs>
        <path id="DejaVuSans-30" d="M 2034 4250 
Q 1547 4250 1301 3770 
Q 1056 3291 1056 2328 
Q 1056 1369 1301 889 
Q 1547 409 2034 409 
Q 2525 409 2770 889 
Q 3016 1369 3016 2328 
Q 3016 3291 2770 3770 
Q 2525 4250 2034 4250 
z
M 2034 4750 
Q 2819 4750 3233 4129 
Q 3647 3509 3647 2328 
Q 3647 1150 3233 529 
Q 2819 -91 2034 -91 
Q 1250 -91 836 529 
Q 422 1150 422 2328 
Q 422 3509 836 4129 
Q 1250 4750 2034 4750 
z
" transform="scale(0.015625)"/>
       </defs>
       <use xlink:href="#DejaVuSans-30"/>
      </g>
     </g>
    </g>
    <g id="xtick_6">
     <g id="line2d_6">
      <g>
       <use xlink:href="#m8f1de1206a" x="534.386147" y="128.528148" style="stroke: #000000; stroke-width: 0.8"/>
      </g>
     </g>
     <g id="text_6">
      <!-- 1 -->
      <g transform="translate(531.204897 143.126585) scale(0.1 -0.1)">
       <use xlink:href="#DejaVuSans-31"/>
      </g>
     </g>
    </g>
    <g id="xtick_7">
     <g id="line2d_7">
      <g>
       <use xlink:href="#m8f1de1206a" x="632.737473" y="128.528148" style="stroke: #000000; stroke-width: 0.8"/>
      </g>
     </g>
     <g id="text_7">
      <!-- 2 -->
      <g transform="translate(629.556223 143.126585) scale(0.1 -0.1)">
       <use xlink:href="#DejaVuSans-32"/>
      </g>
     </g>
    </g>
    <g id="xtick_8">
     <g id="line2d_8">
      <g>
       <use xlink:href="#m8f1de1206a" x="731.088799" y="128.528148" style="stroke: #000000; stroke-width: 0.8"/>
      </g>
     </g>
     <g id="text_8">
      <!-- 3 -->
      <g transform="translate(727.907549 143.126585) scale(0.1 -0.1)">
       <use xlink:href="#DejaVuSans-33"/>
      </g>
     </g>
    </g>
    <g id="xtick_9">
     <g id="line2d_9">
      <g>
       <use xlink:href="#m8f1de1206a" x="829.440125" y="128.528148" style="stroke: #000000; stroke-width: 0.8"/>
      </g>
     </g>
     <g id="text_9">
      <!-- 4 -->
      <g transform="translate(826.258875 143.126585) scale(0.1 -0.1)">
       <use xlink:href="#DejaVuSans-34"/>
      </g>
     </g>
    </g>
   </g>
   <g id="matplotlib.axis_2"/>
   <g id="line2d_10">
    <path d="M 128.501026 128.528148 
L 128.501026 20.214138 
" clip-path="url(#p8856780484)" style="fill: none; stroke: #000000; stroke-width: 1.5; stroke-linecap: square"/>
   </g>
   <g id="line2d_11">
    <path d="M 186.298595 128.528148 
L 186.298595 20.214138 
" clip-path="url(#p8856780484)" style="fill: none; stroke: #000000; stroke-width: 1.5; stroke-linecap: square"/>
   </g>
   <g id="line2d_12">
    <path d="M 244.09613 128.528148 
L 244.09613 20.214138 
" clip-path="url(#p8856780484)" style="fill: none; stroke: #000000; stroke-width: 1.5; stroke-linecap: square"/>
   </g>
   <g id="line2d_13">
    <path d="M 301.893676 128.528148 
L 301.893676 20.214138 
" clip-path="url(#p8856780484)" style="fill: none; stroke: #000000; stroke-width: 1.5; stroke-linecap: square"/>
   </g>
   <g id="line2d_14">
    <path d="M 359.691234 128.528148 
L 359.691234 20.214138 
" clip-path="url(#p8856780484)" style="fill: none; stroke: #000000; stroke-width: 1.5; stroke-linecap: square"/>
   </g>
   <g id="line2d_15">
    <path d="M 417.488789 128.528148 
L 417.488789 20.214138 
" clip-path="url(#p8856780484)" style="fill: none; stroke: #000000; stroke-width: 1.5; stroke-linecap: square"/>
   </g>
   <g id="line2d_16">
    <path d="M 475.286341 128.528148 
L 475.286341 20.214138 
" clip-path="url(#p8856780484)" style="fill: none; stroke: #000000; stroke-width: 1.5; stroke-linecap: square"/>
   </g>
   <g id="line2d_17">
    <path d="M 533.083896 128.528148 
L 533.083896 20.214138 
" clip-path="url(#p8856780484)" style="fill: none; stroke: #000000; stroke-width: 1.5; stroke-linecap: square"/>
   </g>
   <g id="line2d_18">
    <path d="M 590.881442 128.528148 
L 590.881442 20.214138 
" clip-path="url(#p8856780484)" style="fill: none; stroke: #000000; stroke-width: 1.5; stroke-linecap: square"/>
   </g>
   <g id="line2d_19">
    <path d="M 648.679011 128.528148 
L 648.679011 20.214138 
" clip-path="url(#p8856780484)" style="fill: none; stroke: #000000; stroke-width: 1.5; stroke-linecap: square"/>
   </g>
   <g id="line2d_20">
    <path d="M 706.476558 128.528148 
L 706.476558 20.214138 
" clip-path="url(#p8856780484)" style="fill: none; stroke: #000000; stroke-width: 1.5; stroke-linecap: square"/>
   </g>
   <g id="line2d_21">
    <path d="M 764.274104 128.528148 
L 764.274104 20.214138 
" clip-path="url(#p8856780484)" style="fill: none; stroke: #000000; stroke-width: 1.5; stroke-linecap: square"/>
   </g>
   <g id="line2d_22">
    <path d="M 822.071673 128.528148 
L 822.071673 20.214138 
" clip-path="url(#p8856780484)" style="fill: none; stroke: #000000; stroke-width: 1.5; stroke-linecap: square"/>
   </g>
   <g id="line2d_23">
    <path d="M 436.034821 128.528148 
L 436.034821 20.214138 
" clip-path="url(#p8856780484)" style="fill: none; stroke: #ff0000; stroke-width: 1.5; stroke-linecap: square"/>
   </g>
   <g id="line2d_24">
    <path d="M 848.376003 128.528148 
L 848.376003 20.214138 
" clip-path="url(#p8856780484)" style="fill: none; stroke: #ff0000; stroke-width: 1.5; stroke-linecap: square"/>
   </g>
   <g id="patch_3">
    <path d="M 7.2 128.528148 
L 7.2 20.214138 
" style="fill: none; stroke: #000000; stroke-width: 0.8; stroke-linejoin: miter; stroke-linecap: square"/>
   </g>
   <g id="patch_4">
    <path d="M 865.19952 128.528148 
L 865.19952 20.214138 
" style="fill: none; stroke: #000000; stroke-width: 0.8; stroke-linejoin: miter; stroke-linecap: square"/>
   </g>
   <g id="patch_5">
    <path d="M 7.2 128.528148 
L 865.19952 128.528148 
" style="fill: none; stroke: #000000; stroke-width: 0.8; stroke-linejoin: miter; stroke-linecap: square"/>
   </g>
   <g id="patch_6">
    <path d="M 7.2 20.214138 
L 865.19952 20.214138 
" style="fill: none; stroke: #000000; stroke-width: 0.8; stroke-linejoin: miter; stroke-linecap: square"/>
   </g>
   <g id="text_10">
    <g id="patch_7">
     <path d="M 435.034821 92.759424 
L 435.034821 55.982862 
Q 435.034821 55.982862 435.034821 55.982862 
L 425.356696 55.982862 
Q 425.356696 55.982862 425.356696 55.982862 
L 425.356696 92.759424 
Q 425.356696 92.759424 425.356696 92.759424 
L 435.034821 92.759424 
Q 435.034821 92.759424 435.034821 92.759424 
z
" style="fill: #ffffff"/>
    </g>
    <!-- min=0. -->
    <g transform="translate(432.955134 92.759424) rotate(-90) scale(0.1 -0.1)">
     <defs>
      <path id="DejaVuSans-6d" d="M 3328 2828 
Q 3544 3216 3844 3400 
Q 4144 3584 4550 3584 
Q 5097 3584 5394 3201 
Q 5691 2819 5691 2113 
L 5691 0 
L 5113 0 
L 5113 2094 
Q 5113 2597 4934 2840 
Q 4756 3084 4391 3084 
Q 3944 3084 3684 2787 
Q 3425 2491 3425 1978 
L 3425 0 
L 2847 0 
L 2847 2094 
Q 2847 2600 2669 2842 
Q 2491 3084 2119 3084 
Q 1678 3084 1418 2786 
Q 1159 2488 1159 1978 
L 1159 0 
L 581 0 
L 581 3500 
L 1159 3500 
L 1159 2956 
Q 1356 3278 1631 3431 
Q 1906 3584 2284 3584 
Q 2666 3584 2933 3390 
Q 3200 3197 3328 2828 
z
" transform="scale(0.015625)"/>
      <path id="DejaVuSans-69" d="M 603 3500 
L 1178 3500 
L 1178 0 
L 603 0 
L 603 3500 
z
M 603 4863 
L 1178 4863 
L 1178 4134 
L 603 4134 
L 603 4863 
z
" transform="scale(0.015625)"/>
      <path id="DejaVuSans-6e" d="M 3513 2113 
L 3513 0 
L 2938 0 
L 2938 2094 
Q 2938 2591 2744 2837 
Q 2550 3084 2163 3084 
Q 1697 3084 1428 2787 
Q 1159 2491 1159 1978 
L 1159 0 
L 581 0 
L 581 3500 
L 1159 3500 
L 1159 2956 
Q 1366 3272 1645 3428 
Q 1925 3584 2291 3584 
Q 2894 3584 3203 3211 
Q 3513 2838 3513 2113 
z
" transform="scale(0.015625)"/>
      <path id="DejaVuSans-3d" d="M 678 2906 
L 4684 2906 
L 4684 2381 
L 678 2381 
L 678 2906 
z
M 678 1631 
L 4684 1631 
L 4684 1100 
L 678 1100 
L 678 1631 
z
" transform="scale(0.015625)"/>
      <path id="DejaVuSans-2e" d="M 684 794 
L 1344 794 
L 1344 0 
L 684 0 
L 684 794 
z
" transform="scale(0.015625)"/>
     </defs>
     <use xlink:href="#DejaVuSans-6d"/>
     <use xlink:href="#DejaVuSans-69" transform="translate(97.412109 0)"/>
     <use xlink:href="#DejaVuSans-6e" transform="translate(125.195312 0)"/>
     <use xlink:href="#DejaVuSans-3d" transform="translate(188.574219 0)"/>
     <use xlink:href="#DejaVuSans-30" transform="translate(272.363281 0)"/>
     <use xlink:href="#DejaVuSans-2e" transform="translate(335.986328 0)"/>
    </g>
   </g>
   <g id="text_11">
    <g id="patch_8">
     <path d="M 860.054128 103.768799 
L 860.054128 44.973487 
Q 860.054128 44.973487 860.054128 44.973487 
L 850.376003 44.973487 
Q 850.376003 44.973487 850.376003 44.973487 
L 850.376003 103.768799 
Q 850.376003 103.768799 850.376003 103.768799 
L 860.054128 103.768799 
Q 860.054128 103.768799 860.054128 103.768799 
z
" style="fill: #ffffff"/>
    </g>
    <!-- max=4.193 -->
    <g transform="translate(857.97444 103.768799) rotate(-90) scale(0.1 -0.1)">
     <defs>
      <path id="DejaVuSans-61" d="M 2194 1759 
Q 1497 1759 1228 1600 
Q 959 1441 959 1056 
Q 959 750 1161 570 
Q 1363 391 1709 391 
Q 2188 391 2477 730 
Q 2766 1069 2766 1631 
L 2766 1759 
L 2194 1759 
z
M 3341 1997 
L 3341 0 
L 2766 0 
L 2766 531 
Q 2569 213 2275 61 
Q 1981 -91 1556 -91 
Q 1019 -91 701 211 
Q 384 513 384 1019 
Q 384 1609 779 1909 
Q 1175 2209 1959 2209 
L 2766 2209 
L 2766 2266 
Q 2766 2663 2505 2880 
Q 2244 3097 1772 3097 
Q 1472 3097 1187 3025 
Q 903 2953 641 2809 
L 641 3341 
Q 956 3463 1253 3523 
Q 1550 3584 1831 3584 
Q 2591 3584 2966 3190 
Q 3341 2797 3341 1997 
z
" transform="scale(0.015625)"/>
      <path id="DejaVuSans-78" d="M 3513 3500 
L 2247 1797 
L 3578 0 
L 2900 0 
L 1881 1375 
L 863 0 
L 184 0 
L 1544 1831 
L 300 3500 
L 978 3500 
L 1906 2253 
L 2834 3500 
L 3513 3500 
z
" transform="scale(0.015625)"/>
      <path id="DejaVuSans-39" d="M 703 97 
L 703 672 
Q 941 559 1184 500 
Q 1428 441 1663 441 
Q 2288 441 2617 861 
Q 2947 1281 2994 2138 
Q 2813 1869 2534 1725 
Q 2256 1581 1919 1581 
Q 1219 1581 811 2004 
Q 403 2428 403 3163 
Q 403 3881 828 4315 
Q 1253 4750 1959 4750 
Q 2769 4750 3195 4129 
Q 3622 3509 3622 2328 
Q 3622 1225 3098 567 
Q 2575 -91 1691 -91 
Q 1453 -91 1209 -44 
Q 966 3 703 97 
z
M 1959 2075 
Q 2384 2075 2632 2365 
Q 2881 2656 2881 3163 
Q 2881 3666 2632 3958 
Q 2384 4250 1959 4250 
Q 1534 4250 1286 3958 
Q 1038 3666 1038 3163 
Q 1038 2656 1286 2365 
Q 1534 2075 1959 2075 
z
" transform="scale(0.015625)"/>
     </defs>
     <use xlink:href="#DejaVuSans-6d"/>
     <use xlink:href="#DejaVuSans-61" transform="translate(97.412109 0)"/>
     <use xlink:href="#DejaVuSans-78" transform="translate(158.691406 0)"/>
     <use xlink:href="#DejaVuSans-3d" transform="translate(217.871094 0)"/>
     <use xlink:href="#DejaVuSans-34" transform="translate(301.660156 0)"/>
     <use xlink:href="#DejaVuSans-2e" transform="translate(365.283203 0)"/>
     <use xlink:href="#DejaVuSans-31" transform="translate(397.070312 0)"/>
     <use xlink:href="#DejaVuSans-39" transform="translate(460.693359 0)"/>
     <use xlink:href="#DejaVuSans-33" transform="translate(524.316406 0)"/>
    </g>
   </g>
   <g id="text_12">
    <!-- 10000 samples (μ=0.399, σ=0.588) of Tensor[100000] x∈[0., 4.193] μ=0.400 σ=0.587 CPU Realized WHERE -->
    <g transform="translate(7.2 14.798437) scale(0.1 -0.1)">
     <defs>
      <path id="DejaVuSans-20" transform="scale(0.015625)"/>
      <path id="DejaVuSans-73" d="M 2834 3397 
L 2834 2853 
Q 2591 2978 2328 3040 
Q 2066 3103 1784 3103 
Q 1356 3103 1142 2972 
Q 928 2841 928 2578 
Q 928 2378 1081 2264 
Q 1234 2150 1697 2047 
L 1894 2003 
Q 2506 1872 2764 1633 
Q 3022 1394 3022 966 
Q 3022 478 2636 193 
Q 2250 -91 1575 -91 
Q 1294 -91 989 -36 
Q 684 19 347 128 
L 347 722 
Q 666 556 975 473 
Q 1284 391 1588 391 
Q 1994 391 2212 530 
Q 2431 669 2431 922 
Q 2431 1156 2273 1281 
Q 2116 1406 1581 1522 
L 1381 1569 
Q 847 1681 609 1914 
Q 372 2147 372 2553 
Q 372 3047 722 3315 
Q 1072 3584 1716 3584 
Q 2034 3584 2315 3537 
Q 2597 3491 2834 3397 
z
" transform="scale(0.015625)"/>
      <path id="DejaVuSans-70" d="M 1159 525 
L 1159 -1331 
L 581 -1331 
L 581 3500 
L 1159 3500 
L 1159 2969 
Q 1341 3281 1617 3432 
Q 1894 3584 2278 3584 
Q 2916 3584 3314 3078 
Q 3713 2572 3713 1747 
Q 3713 922 3314 415 
Q 2916 -91 2278 -91 
Q 1894 -91 1617 61 
Q 1341 213 1159 525 
z
M 3116 1747 
Q 3116 2381 2855 2742 
Q 2594 3103 2138 3103 
Q 1681 3103 1420 2742 
Q 1159 2381 1159 1747 
Q 1159 1113 1420 752 
Q 1681 391 2138 391 
Q 2594 391 2855 752 
Q 3116 1113 3116 1747 
z
" transform="scale(0.015625)"/>
      <path id="DejaVuSans-6c" d="M 603 4863 
L 1178 4863 
L 1178 0 
L 603 0 
L 603 4863 
z
" transform="scale(0.015625)"/>
      <path id="DejaVuSans-65" d="M 3597 1894 
L 3597 1613 
L 953 1613 
Q 991 1019 1311 708 
Q 1631 397 2203 397 
Q 2534 397 2845 478 
Q 3156 559 3463 722 
L 3463 178 
Q 3153 47 2828 -22 
Q 2503 -91 2169 -91 
Q 1331 -91 842 396 
Q 353 884 353 1716 
Q 353 2575 817 3079 
Q 1281 3584 2069 3584 
Q 2775 3584 3186 3129 
Q 3597 2675 3597 1894 
z
M 3022 2063 
Q 3016 2534 2758 2815 
Q 2500 3097 2075 3097 
Q 1594 3097 1305 2825 
Q 1016 2553 972 2059 
L 3022 2063 
z
" transform="scale(0.015625)"/>
      <path id="DejaVuSans-28" d="M 1984 4856 
Q 1566 4138 1362 3434 
Q 1159 2731 1159 2009 
Q 1159 1288 1364 580 
Q 1569 -128 1984 -844 
L 1484 -844 
Q 1016 -109 783 600 
Q 550 1309 550 2009 
Q 550 2706 781 3412 
Q 1013 4119 1484 4856 
L 1984 4856 
z
" transform="scale(0.015625)"/>
      <path id="DejaVuSans-3bc" d="M 544 -1331 
L 544 3500 
L 1119 3500 
L 1119 1325 
Q 1119 872 1334 640 
Q 1550 409 1972 409 
Q 2434 409 2667 671 
Q 2900 934 2900 1459 
L 2900 3500 
L 3475 3500 
L 3475 806 
Q 3475 619 3529 530 
Q 3584 441 3700 441 
Q 3728 441 3778 458 
Q 3828 475 3916 513 
L 3916 50 
Q 3788 -22 3673 -56 
Q 3559 -91 3450 -91 
Q 3234 -91 3106 31 
Q 2978 153 2931 403 
Q 2775 156 2548 32 
Q 2322 -91 2016 -91 
Q 1697 -91 1473 31 
Q 1250 153 1119 397 
L 1119 -1331 
L 544 -1331 
z
" transform="scale(0.015625)"/>
      <path id="DejaVuSans-2c" d="M 750 794 
L 1409 794 
L 1409 256 
L 897 -744 
L 494 -744 
L 750 256 
L 750 794 
z
" transform="scale(0.015625)"/>
      <path id="DejaVuSans-3c3" d="M 1959 3044 
Q 1484 3044 1228 2700 
Q 959 2341 959 1747 
Q 959 1119 1226 758 
Q 1494 397 1959 397 
Q 2419 397 2687 759 
Q 2956 1122 2956 1747 
Q 2956 2319 2688 2700 
Q 2441 3044 1959 3044 
z
M 1959 3500 
L 3869 3500 
L 3869 2925 
L 3225 2925 
Q 3566 2438 3566 1747 
Q 3566 888 3138 400 
Q 2709 -91 1959 -91 
Q 1206 -91 781 400 
Q 353 888 353 1747 
Q 353 2613 781 3097 
Q 1134 3500 1959 3500 
z
" transform="scale(0.015625)"/>
      <path id="DejaVuSans-35" d="M 691 4666 
L 3169 4666 
L 3169 4134 
L 1269 4134 
L 1269 2991 
Q 1406 3038 1543 3061 
Q 1681 3084 1819 3084 
Q 2600 3084 3056 2656 
Q 3513 2228 3513 1497 
Q 3513 744 3044 326 
Q 2575 -91 1722 -91 
Q 1428 -91 1123 -41 
Q 819 9 494 109 
L 494 744 
Q 775 591 1075 516 
Q 1375 441 1709 441 
Q 2250 441 2565 725 
Q 2881 1009 2881 1497 
Q 2881 1984 2565 2268 
Q 2250 2553 1709 2553 
Q 1456 2553 1204 2497 
Q 953 2441 691 2322 
L 691 4666 
z
" transform="scale(0.015625)"/>
      <path id="DejaVuSans-38" d="M 2034 2216 
Q 1584 2216 1326 1975 
Q 1069 1734 1069 1313 
Q 1069 891 1326 650 
Q 1584 409 2034 409 
Q 2484 409 2743 651 
Q 3003 894 3003 1313 
Q 3003 1734 2745 1975 
Q 2488 2216 2034 2216 
z
M 1403 2484 
Q 997 2584 770 2862 
Q 544 3141 544 3541 
Q 544 4100 942 4425 
Q 1341 4750 2034 4750 
Q 2731 4750 3128 4425 
Q 3525 4100 3525 3541 
Q 3525 3141 3298 2862 
Q 3072 2584 2669 2484 
Q 3125 2378 3379 2068 
Q 3634 1759 3634 1313 
Q 3634 634 3220 271 
Q 2806 -91 2034 -91 
Q 1263 -91 848 271 
Q 434 634 434 1313 
Q 434 1759 690 2068 
Q 947 2378 1403 2484 
z
M 1172 3481 
Q 1172 3119 1398 2916 
Q 1625 2713 2034 2713 
Q 2441 2713 2670 2916 
Q 2900 3119 2900 3481 
Q 2900 3844 2670 4047 
Q 2441 4250 2034 4250 
Q 1625 4250 1398 4047 
Q 1172 3844 1172 3481 
z
" transform="scale(0.015625)"/>
      <path id="DejaVuSans-29" d="M 513 4856 
L 1013 4856 
Q 1481 4119 1714 3412 
Q 1947 2706 1947 2009 
Q 1947 1309 1714 600 
Q 1481 -109 1013 -844 
L 513 -844 
Q 928 -128 1133 580 
Q 1338 1288 1338 2009 
Q 1338 2731 1133 3434 
Q 928 4138 513 4856 
z
" transform="scale(0.015625)"/>
      <path id="DejaVuSans-6f" d="M 1959 3097 
Q 1497 3097 1228 2736 
Q 959 2375 959 1747 
Q 959 1119 1226 758 
Q 1494 397 1959 397 
Q 2419 397 2687 759 
Q 2956 1122 2956 1747 
Q 2956 2369 2687 2733 
Q 2419 3097 1959 3097 
z
M 1959 3584 
Q 2709 3584 3137 3096 
Q 3566 2609 3566 1747 
Q 3566 888 3137 398 
Q 2709 -91 1959 -91 
Q 1206 -91 779 398 
Q 353 888 353 1747 
Q 353 2609 779 3096 
Q 1206 3584 1959 3584 
z
" transform="scale(0.015625)"/>
      <path id="DejaVuSans-66" d="M 2375 4863 
L 2375 4384 
L 1825 4384 
Q 1516 4384 1395 4259 
Q 1275 4134 1275 3809 
L 1275 3500 
L 2222 3500 
L 2222 3053 
L 1275 3053 
L 1275 0 
L 697 0 
L 697 3053 
L 147 3053 
L 147 3500 
L 697 3500 
L 697 3744 
Q 697 4328 969 4595 
Q 1241 4863 1831 4863 
L 2375 4863 
z
" transform="scale(0.015625)"/>
      <path id="DejaVuSans-54" d="M -19 4666 
L 3928 4666 
L 3928 4134 
L 2272 4134 
L 2272 0 
L 1638 0 
L 1638 4134 
L -19 4134 
L -19 4666 
z
" transform="scale(0.015625)"/>
      <path id="DejaVuSans-72" d="M 2631 2963 
Q 2534 3019 2420 3045 
Q 2306 3072 2169 3072 
Q 1681 3072 1420 2755 
Q 1159 2438 1159 1844 
L 1159 0 
L 581 0 
L 581 3500 
L 1159 3500 
L 1159 2956 
Q 1341 3275 1631 3429 
Q 1922 3584 2338 3584 
Q 2397 3584 2469 3576 
Q 2541 3569 2628 3553 
L 2631 2963 
z
" transform="scale(0.015625)"/>
      <path id="DejaVuSans-5b" d="M 550 4863 
L 1875 4863 
L 1875 4416 
L 1125 4416 
L 1125 -397 
L 1875 -397 
L 1875 -844 
L 550 -844 
L 550 4863 
z
" transform="scale(0.015625)"/>
      <path id="DejaVuSans-5d" d="M 1947 4863 
L 1947 -844 
L 622 -844 
L 622 -397 
L 1369 -397 
L 1369 4416 
L 622 4416 
L 622 4863 
L 1947 4863 
z
" transform="scale(0.015625)"/>
      <path id="DejaVuSans-2208" d="M 1072 1959 
Q 1094 1728 1291 1353 
Q 1522 919 1959 675 
Q 2388 438 2850 434 
L 5028 434 
L 5028 -63 
L 2850 -63 
Q 2250 -63 1695 246 
Q 1141 556 844 1106 
Q 547 1656 547 2241 
Q 547 2819 844 3369 
Q 1141 3919 1695 4231 
Q 2250 4544 2850 4544 
L 5028 4544 
L 5028 4047 
L 2850 4047 
Q 2388 4044 1959 3803 
Q 1525 3556 1291 3125 
Q 1091 2750 1063 2459 
L 5028 2459 
L 5028 1959 
L 1072 1959 
z
" transform="scale(0.015625)"/>
      <path id="DejaVuSans-37" d="M 525 4666 
L 3525 4666 
L 3525 4397 
L 1831 0 
L 1172 0 
L 2766 4134 
L 525 4134 
L 525 4666 
z
" transform="scale(0.015625)"/>
      <path id="DejaVuSans-43" d="M 4122 4306 
L 4122 3641 
Q 3803 3938 3442 4084 
Q 3081 4231 2675 4231 
Q 1875 4231 1450 3742 
Q 1025 3253 1025 2328 
Q 1025 1406 1450 917 
Q 1875 428 2675 428 
Q 3081 428 3442 575 
Q 3803 722 4122 1019 
L 4122 359 
Q 3791 134 3420 21 
Q 3050 -91 2638 -91 
Q 1578 -91 968 557 
Q 359 1206 359 2328 
Q 359 3453 968 4101 
Q 1578 4750 2638 4750 
Q 3056 4750 3426 4639 
Q 3797 4528 4122 4306 
z
" transform="scale(0.015625)"/>
      <path id="DejaVuSans-50" d="M 1259 4147 
L 1259 2394 
L 2053 2394 
Q 2494 2394 2734 2622 
Q 2975 2850 2975 3272 
Q 2975 3691 2734 3919 
Q 2494 4147 2053 4147 
L 1259 4147 
z
M 628 4666 
L 2053 4666 
Q 2838 4666 3239 4311 
Q 3641 3956 3641 3272 
Q 3641 2581 3239 2228 
Q 2838 1875 2053 1875 
L 1259 1875 
L 1259 0 
L 628 0 
L 628 4666 
z
" transform="scale(0.015625)"/>
      <path id="DejaVuSans-55" d="M 556 4666 
L 1191 4666 
L 1191 1831 
Q 1191 1081 1462 751 
Q 1734 422 2344 422 
Q 2950 422 3222 751 
Q 3494 1081 3494 1831 
L 3494 4666 
L 4128 4666 
L 4128 1753 
Q 4128 841 3676 375 
Q 3225 -91 2344 -91 
Q 1459 -91 1007 375 
Q 556 841 556 1753 
L 556 4666 
z
" transform="scale(0.015625)"/>
      <path id="DejaVuSans-52" d="M 2841 2188 
Q 3044 2119 3236 1894 
Q 3428 1669 3622 1275 
L 4263 0 
L 3584 0 
L 2988 1197 
Q 2756 1666 2539 1819 
Q 2322 1972 1947 1972 
L 1259 1972 
L 1259 0 
L 628 0 
L 628 4666 
L 2053 4666 
Q 2853 4666 3247 4331 
Q 3641 3997 3641 3322 
Q 3641 2881 3436 2590 
Q 3231 2300 2841 2188 
z
M 1259 4147 
L 1259 2491 
L 2053 2491 
Q 2509 2491 2742 2702 
Q 2975 2913 2975 3322 
Q 2975 3731 2742 3939 
Q 2509 4147 2053 4147 
L 1259 4147 
z
" transform="scale(0.015625)"/>
      <path id="DejaVuSans-7a" d="M 353 3500 
L 3084 3500 
L 3084 2975 
L 922 459 
L 3084 459 
L 3084 0 
L 275 0 
L 275 525 
L 2438 3041 
L 353 3041 
L 353 3500 
z
" transform="scale(0.015625)"/>
      <path id="DejaVuSans-64" d="M 2906 2969 
L 2906 4863 
L 3481 4863 
L 3481 0 
L 2906 0 
L 2906 525 
Q 2725 213 2448 61 
Q 2172 -91 1784 -91 
Q 1150 -91 751 415 
Q 353 922 353 1747 
Q 353 2572 751 3078 
Q 1150 3584 1784 3584 
Q 2172 3584 2448 3432 
Q 2725 3281 2906 2969 
z
M 947 1747 
Q 947 1113 1208 752 
Q 1469 391 1925 391 
Q 2381 391 2643 752 
Q 2906 1113 2906 1747 
Q 2906 2381 2643 2742 
Q 2381 3103 1925 3103 
Q 1469 3103 1208 2742 
Q 947 2381 947 1747 
z
" transform="scale(0.015625)"/>
      <path id="DejaVuSans-57" d="M 213 4666 
L 850 4666 
L 1831 722 
L 2809 4666 
L 3519 4666 
L 4500 722 
L 5478 4666 
L 6119 4666 
L 4947 0 
L 4153 0 
L 3169 4050 
L 2175 0 
L 1381 0 
L 213 4666 
z
" transform="scale(0.015625)"/>
      <path id="DejaVuSans-48" d="M 628 4666 
L 1259 4666 
L 1259 2753 
L 3553 2753 
L 3553 4666 
L 4184 4666 
L 4184 0 
L 3553 0 
L 3553 2222 
L 1259 2222 
L 1259 0 
L 628 0 
L 628 4666 
z
" transform="scale(0.015625)"/>
      <path id="DejaVuSans-45" d="M 628 4666 
L 3578 4666 
L 3578 4134 
L 1259 4134 
L 1259 2753 
L 3481 2753 
L 3481 2222 
L 1259 2222 
L 1259 531 
L 3634 531 
L 3634 0 
L 628 0 
L 628 4666 
z
" transform="scale(0.015625)"/>
     </defs>
     <use xlink:href="#DejaVuSans-31"/>
     <use xlink:href="#DejaVuSans-30" transform="translate(63.623047 0)"/>
     <use xlink:href="#DejaVuSans-30" transform="translate(127.246094 0)"/>
     <use xlink:href="#DejaVuSans-30" transform="translate(190.869141 0)"/>
     <use xlink:href="#DejaVuSans-30" transform="translate(254.492188 0)"/>
     <use xlink:href="#DejaVuSans-20" transform="translate(318.115234 0)"/>
     <use xlink:href="#DejaVuSans-73" transform="translate(349.902344 0)"/>
     <use xlink:href="#DejaVuSans-61" transform="translate(402.001953 0)"/>
     <use xlink:href="#DejaVuSans-6d" transform="translate(463.28125 0)"/>
     <use xlink:href="#DejaVuSans-70" transform="translate(560.693359 0)"/>
     <use xlink:href="#DejaVuSans-6c" transform="translate(624.169922 0)"/>
     <use xlink:href="#DejaVuSans-65" transform="translate(651.953125 0)"/>
     <use xlink:href="#DejaVuSans-73" transform="translate(713.476562 0)"/>
     <use xlink:href="#DejaVuSans-20" transform="translate(765.576172 0)"/>
     <use xlink:href="#DejaVuSans-28" transform="translate(797.363281 0)"/>
     <use xlink:href="#DejaVuSans-3bc" transform="translate(836.376953 0)"/>
     <use xlink:href="#DejaVuSans-3d" transform="translate(900 0)"/>
     <use xlink:href="#DejaVuSans-30" transform="translate(983.789062 0)"/>
     <use xlink:href="#DejaVuSans-2e" transform="translate(1047.412109 0)"/>
     <use xlink:href="#DejaVuSans-33" transform="translate(1079.199219 0)"/>
     <use xlink:href="#DejaVuSans-39" transform="translate(1142.822266 0)"/>
     <use xlink:href="#DejaVuSans-39" transform="translate(1206.445312 0)"/>
     <use xlink:href="#DejaVuSans-2c" transform="translate(1270.068359 0)"/>
     <use xlink:href="#DejaVuSans-20" transform="translate(1301.855469 0)"/>
     <use xlink:href="#DejaVuSans-3c3" transform="translate(1333.642578 0)"/>
     <use xlink:href="#DejaVuSans-3d" transform="translate(1397.021484 0)"/>
     <use xlink:href="#DejaVuSans-30" transform="translate(1480.810547 0)"/>
     <use xlink:href="#DejaVuSans-2e" transform="translate(1544.433594 0)"/>
     <use xlink:href="#DejaVuSans-35" transform="translate(1576.220703 0)"/>
     <use xlink:href="#DejaVuSans-38" transform="translate(1639.84375 0)"/>
     <use xlink:href="#DejaVuSans-38" transform="translate(1703.466797 0)"/>
     <use xlink:href="#DejaVuSans-29" transform="translate(1767.089844 0)"/>
     <use xlink:href="#DejaVuSans-20" transform="translate(1806.103516 0)"/>
     <use xlink:href="#DejaVuSans-6f" transform="translate(1837.890625 0)"/>
     <use xlink:href="#DejaVuSans-66" transform="translate(1899.072266 0)"/>
     <use xlink:href="#DejaVuSans-20" transform="translate(1934.277344 0)"/>
     <use xlink:href="#DejaVuSans-54" transform="translate(1966.064453 0)"/>
     <use xlink:href="#DejaVuSans-65" transform="translate(2010.148438 0)"/>
     <use xlink:href="#DejaVuSans-6e" transform="translate(2071.671875 0)"/>
     <use xlink:href="#DejaVuSans-73" transform="translate(2135.050781 0)"/>
     <use xlink:href="#DejaVuSans-6f" transform="translate(2187.150391 0)"/>
     <use xlink:href="#DejaVuSans-72" transform="translate(2248.332031 0)"/>
     <use xlink:href="#DejaVuSans-5b" transform="translate(2289.445312 0)"/>
     <use xlink:href="#DejaVuSans-31" transform="translate(2328.458984 0)"/>
     <use xlink:href="#DejaVuSans-30" transform="translate(2392.082031 0)"/>
     <use xlink:href="#DejaVuSans-30" transform="translate(2455.705078 0)"/>
     <use xlink:href="#DejaVuSans-30" transform="translate(2519.328125 0)"/>
     <use xlink:href="#DejaVuSans-30" transform="translate(2582.951172 0)"/>
     <use xlink:href="#DejaVuSans-30" transform="translate(2646.574219 0)"/>
     <use xlink:href="#DejaVuSans-5d" transform="translate(2710.197266 0)"/>
     <use xlink:href="#DejaVuSans-20" transform="translate(2749.210938 0)"/>
     <use xlink:href="#DejaVuSans-78" transform="translate(2780.998047 0)"/>
     <use xlink:href="#DejaVuSans-2208" transform="translate(2840.177734 0)"/>
     <use xlink:href="#DejaVuSans-5b" transform="translate(2927.287109 0)"/>
     <use xlink:href="#DejaVuSans-30" transform="translate(2966.300781 0)"/>
     <use xlink:href="#DejaVuSans-2e" transform="translate(3029.923828 0)"/>
     <use xlink:href="#DejaVuSans-2c" transform="translate(3061.710938 0)"/>
     <use xlink:href="#DejaVuSans-20" transform="translate(3093.498047 0)"/>
     <use xlink:href="#DejaVuSans-34" transform="translate(3125.285156 0)"/>
     <use xlink:href="#DejaVuSans-2e" transform="translate(3188.908203 0)"/>
     <use xlink:href="#DejaVuSans-31" transform="translate(3220.695312 0)"/>
     <use xlink:href="#DejaVuSans-39" transform="translate(3284.318359 0)"/>
     <use xlink:href="#DejaVuSans-33" transform="translate(3347.941406 0)"/>
     <use xlink:href="#DejaVuSans-5d" transform="translate(3411.564453 0)"/>
     <use xlink:href="#DejaVuSans-20" transform="translate(3450.578125 0)"/>
     <use xlink:href="#DejaVuSans-3bc" transform="translate(3482.365234 0)"/>
     <use xlink:href="#DejaVuSans-3d" transform="translate(3545.988281 0)"/>
     <use xlink:href="#DejaVuSans-30" transform="translate(3629.777344 0)"/>
     <use xlink:href="#DejaVuSans-2e" transform="translate(3693.400391 0)"/>
     <use xlink:href="#DejaVuSans-34" transform="translate(3725.1875 0)"/>
     <use xlink:href="#DejaVuSans-30" transform="translate(3788.810547 0)"/>
     <use xlink:href="#DejaVuSans-30" transform="translate(3852.433594 0)"/>
     <use xlink:href="#DejaVuSans-20" transform="translate(3916.056641 0)"/>
     <use xlink:href="#DejaVuSans-3c3" transform="translate(3947.84375 0)"/>
     <use xlink:href="#DejaVuSans-3d" transform="translate(4011.222656 0)"/>
     <use xlink:href="#DejaVuSans-30" transform="translate(4095.011719 0)"/>
     <use xlink:href="#DejaVuSans-2e" transform="translate(4158.634766 0)"/>
     <use xlink:href="#DejaVuSans-35" transform="translate(4190.421875 0)"/>
     <use xlink:href="#DejaVuSans-38" transform="translate(4254.044922 0)"/>
     <use xlink:href="#DejaVuSans-37" transform="translate(4317.667969 0)"/>
     <use xlink:href="#DejaVuSans-20" transform="translate(4381.291016 0)"/>
     <use xlink:href="#DejaVuSans-43" transform="translate(4413.078125 0)"/>
     <use xlink:href="#DejaVuSans-50" transform="translate(4482.902344 0)"/>
     <use xlink:href="#DejaVuSans-55" transform="translate(4543.205078 0)"/>
     <use xlink:href="#DejaVuSans-20" transform="translate(4616.398438 0)"/>
     <use xlink:href="#DejaVuSans-52" transform="translate(4648.185547 0)"/>
     <use xlink:href="#DejaVuSans-65" transform="translate(4713.167969 0)"/>
     <use xlink:href="#DejaVuSans-61" transform="translate(4774.691406 0)"/>
     <use xlink:href="#DejaVuSans-6c" transform="translate(4835.970703 0)"/>
     <use xlink:href="#DejaVuSans-69" transform="translate(4863.753906 0)"/>
     <use xlink:href="#DejaVuSans-7a" transform="translate(4891.537109 0)"/>
     <use xlink:href="#DejaVuSans-65" transform="translate(4944.027344 0)"/>
     <use xlink:href="#DejaVuSans-64" transform="translate(5005.550781 0)"/>
     <use xlink:href="#DejaVuSans-20" transform="translate(5069.027344 0)"/>
     <use xlink:href="#DejaVuSans-57" transform="translate(5100.814453 0)"/>
     <use xlink:href="#DejaVuSans-48" transform="translate(5199.691406 0)"/>
     <use xlink:href="#DejaVuSans-45" transform="translate(5274.886719 0)"/>
     <use xlink:href="#DejaVuSans-52" transform="translate(5338.070312 0)"/>
     <use xlink:href="#DejaVuSans-45" transform="translate(5407.552734 0)"/>
    </g>
   </g>
   <g id="patch_9">
    <path d="M 436.034821 128.528148 
L 444.484707 128.528148 
L 444.484707 49.177225 
L 436.034821 49.177225 
z
" clip-path="url(#p8856780484)" style="fill: #00bfff"/>
   </g>
   <g id="patch_10">
    <path d="M 444.484707 128.528148 
L 452.934592 128.528148 
L 452.934592 123.539282 
L 444.484707 123.539282 
z
" clip-path="url(#p8856780484)" style="fill: #00bfff"/>
   </g>
   <g id="patch_11">
    <path d="M 452.934592 128.528148 
L 461.384477 128.528148 
L 461.384477 123.951341 
L 452.934592 123.951341 
z
" clip-path="url(#p8856780484)" style="fill: #00bfff"/>
   </g>
   <g id="patch_12">
    <path d="M 461.384477 128.528148 
L 469.834364 128.528148 
L 469.834364 123.921909 
L 461.384477 123.921909 
z
" clip-path="url(#p8856780484)" style="fill: #00bfff"/>
   </g>
   <g id="patch_13">
    <path d="M 469.834364 128.528148 
L 478.28425 128.528148 
L 478.28425 123.50985 
L 469.834364 123.50985 
z
" clip-path="url(#p8856780484)" style="fill: #00bfff"/>
   </g>
   <g id="patch_14">
    <path d="M 478.28425 128.528148 
L 486.734133 128.528148 
L 486.734133 124.098505 
L 478.28425 124.098505 
z
" clip-path="url(#p8856780484)" style="fill: #00bfff"/>
   </g>
   <g id="patch_15">
    <path d="M 486.734133 128.528148 
L 495.18402 128.528148 
L 495.18402 124.245671 
L 486.734133 124.245671 
z
" clip-path="url(#p8856780484)" style="fill: #00bfff"/>
   </g>
   <g id="patch_16">
    <path d="M 495.18402 128.528148 
L 503.633906 128.528148 
L 503.633906 124.569432 
L 495.18402 124.569432 
z
" clip-path="url(#p8856780484)" style="fill: #00bfff"/>
   </g>
   <g id="patch_17">
    <path d="M 503.633906 128.528148 
L 512.083792 128.528148 
L 512.083792 124.65773 
L 503.633906 124.65773 
z
" clip-path="url(#p8856780484)" style="fill: #00bfff"/>
   </g>
   <g id="patch_18">
    <path d="M 512.083792 128.528148 
L 520.533679 128.528148 
L 520.533679 125.27582 
L 512.083792 125.27582 
z
" clip-path="url(#p8856780484)" style="fill: #00bfff"/>
   </g>
   <g id="patch_19">
    <path d="M 520.533679 128.528148 
L 528.983565 128.528148 
L 528.983565 125.496566 
L 520.533679 125.496566 
z
" clip-path="url(#p8856780484)" style="fill: #00bfff"/>
   </g>
   <g id="patch_20">
    <path d="M 528.983565 128.528148 
L 537.433446 128.528148 
L 537.433446 125.584862 
L 528.983565 125.584862 
z
" clip-path="url(#p8856780484)" style="fill: #00bfff"/>
   </g>
   <g id="patch_21">
    <path d="M 537.433446 128.528148 
L 545.883332 128.528148 
L 545.883332 125.673163 
L 537.433446 125.673163 
z
" clip-path="url(#p8856780484)" style="fill: #00bfff"/>
   </g>
   <g id="patch_22">
    <path d="M 545.883332 128.528148 
L 554.333218 128.528148 
L 554.333218 126.232387 
L 545.883332 126.232387 
z
" clip-path="url(#p8856780484)" style="fill: #00bfff"/>
   </g>
   <g id="patch_23">
    <path d="M 554.333218 128.528148 
L 562.783105 128.528148 
L 562.783105 125.84976 
L 554.333218 125.84976 
z
" clip-path="url(#p8856780484)" style="fill: #00bfff"/>
   </g>
   <g id="patch_24">
    <path d="M 562.783105 128.528148 
L 571.232991 128.528148 
L 571.232991 126.158805 
L 562.783105 126.158805 
z
" clip-path="url(#p8856780484)" style="fill: #00bfff"/>
   </g>
   <g id="patch_25">
    <path d="M 571.232991 128.528148 
L 579.682877 128.528148 
L 579.682877 126.62973 
L 571.232991 126.62973 
z
" clip-path="url(#p8856780484)" style="fill: #00bfff"/>
   </g>
   <g id="patch_26">
    <path d="M 579.682877 128.528148 
L 588.132764 128.528148 
L 588.132764 126.776894 
L 579.682877 126.776894 
z
" clip-path="url(#p8856780484)" style="fill: #00bfff"/>
   </g>
   <g id="patch_27">
    <path d="M 588.132764 128.528148 
L 596.58265 128.528148 
L 596.58265 127.04179 
L 588.132764 127.04179 
z
" clip-path="url(#p8856780484)" style="fill: #00bfff"/>
   </g>
   <g id="patch_28">
    <path d="M 596.58265 128.528148 
L 605.032536 128.528148 
L 605.032536 127.115372 
L 596.58265 127.115372 
z
" clip-path="url(#p8856780484)" style="fill: #00bfff"/>
   </g>
   <g id="patch_29">
    <path d="M 605.032536 128.528148 
L 613.482423 128.528148 
L 613.482423 127.542148 
L 605.032536 127.542148 
z
" clip-path="url(#p8856780484)" style="fill: #00bfff"/>
   </g>
   <g id="patch_30">
    <path d="M 613.482423 128.528148 
L 621.932309 128.528148 
L 621.932309 127.733461 
L 613.482423 127.733461 
z
" clip-path="url(#p8856780484)" style="fill: #00bfff"/>
   </g>
   <g id="patch_31">
    <path d="M 621.932309 128.528148 
L 630.382195 128.528148 
L 630.382195 127.836476 
L 621.932309 127.836476 
z
" clip-path="url(#p8856780484)" style="fill: #00bfff"/>
   </g>
   <g id="patch_32">
    <path d="M 630.382195 128.528148 
L 638.83207 128.528148 
L 638.83207 128.14552 
L 630.382195 128.14552 
z
" clip-path="url(#p8856780484)" style="fill: #00bfff"/>
   </g>
   <g id="patch_33">
    <path d="M 638.83207 128.528148 
L 647.281956 128.528148 
L 647.281956 127.762894 
L 638.83207 127.762894 
z
" clip-path="url(#p8856780484)" style="fill: #00bfff"/>
   </g>
   <g id="patch_34">
    <path d="M 647.281956 128.528148 
L 655.731843 128.528148 
L 655.731843 128.027789 
L 647.281956 128.027789 
z
" clip-path="url(#p8856780484)" style="fill: #00bfff"/>
   </g>
   <g id="patch_35">
    <path d="M 655.731843 128.528148 
L 664.181729 128.528148 
L 664.181729 128.160237 
L 655.731843 128.160237 
z
" clip-path="url(#p8856780484)" style="fill: #00bfff"/>
   </g>
   <g id="patch_36">
    <path d="M 664.181729 128.528148 
L 672.631615 128.528148 
L 672.631615 128.086655 
L 664.181729 128.086655 
z
" clip-path="url(#p8856780484)" style="fill: #00bfff"/>
   </g>
   <g id="patch_37">
    <path d="M 672.631615 128.528148 
L 681.081502 128.528148 
L 681.081502 128.351551 
L 672.631615 128.351551 
z
" clip-path="url(#p8856780484)" style="fill: #00bfff"/>
   </g>
   <g id="patch_38">
    <path d="M 681.081502 128.528148 
L 689.531388 128.528148 
L 689.531388 128.292685 
L 681.081502 128.292685 
z
" clip-path="url(#p8856780484)" style="fill: #00bfff"/>
   </g>
   <g id="patch_39">
    <path d="M 689.531388 128.528148 
L 697.981274 128.528148 
L 697.981274 128.277969 
L 689.531388 128.277969 
z
" clip-path="url(#p8856780484)" style="fill: #00bfff"/>
   </g>
   <g id="patch_40">
    <path d="M 697.981274 128.528148 
L 706.431161 128.528148 
L 706.431161 128.410416 
L 697.981274 128.410416 
z
" clip-path="url(#p8856780484)" style="fill: #00bfff"/>
   </g>
   <g id="patch_41">
    <path d="M 706.431161 128.528148 
L 714.881047 128.528148 
L 714.881047 128.454566 
L 706.431161 128.454566 
z
" clip-path="url(#p8856780484)" style="fill: #00bfff"/>
   </g>
   <g id="patch_42">
    <path d="M 714.881047 128.528148 
L 723.330933 128.528148 
L 723.330933 128.454566 
L 714.881047 128.454566 
z
" clip-path="url(#p8856780484)" style="fill: #00bfff"/>
   </g>
   <g id="patch_43">
    <path d="M 723.330933 128.528148 
L 731.78082 128.528148 
L 731.78082 128.425133 
L 723.330933 128.425133 
z
" clip-path="url(#p8856780484)" style="fill: #00bfff"/>
   </g>
   <g id="patch_44">
    <path d="M 731.78082 128.528148 
L 740.230706 128.528148 
L 740.230706 128.498715 
L 731.78082 128.498715 
z
" clip-path="url(#p8856780484)" style="fill: #00bfff"/>
   </g>
   <g id="patch_45">
    <path d="M 740.230706 128.528148 
L 748.680592 128.528148 
L 748.680592 128.483998 
L 740.230706 128.483998 
z
" clip-path="url(#p8856780484)" style="fill: #00bfff"/>
   </g>
   <g id="patch_46">
    <path d="M 748.680592 128.528148 
L 757.130479 128.528148 
L 757.130479 128.528148 
L 748.680592 128.528148 
z
" clip-path="url(#p8856780484)" style="fill: #00bfff"/>
   </g>
   <g id="patch_47">
    <path d="M 757.130479 128.528148 
L 765.580365 128.528148 
L 765.580365 128.513431 
L 757.130479 128.513431 
z
" clip-path="url(#p8856780484)" style="fill: #00bfff"/>
   </g>
   <g id="patch_48">
    <path d="M 765.580365 128.528148 
L 774.030252 128.528148 
L 774.030252 128.528148 
L 765.580365 128.528148 
z
" clip-path="url(#p8856780484)" style="fill: #00bfff"/>
   </g>
   <g id="patch_49">
    <path d="M 774.030252 128.528148 
L 782.480138 128.528148 
L 782.480138 128.528148 
L 774.030252 128.528148 
z
" clip-path="url(#p8856780484)" style="fill: #00bfff"/>
   </g>
   <g id="patch_50">
    <path d="M 782.480138 128.528148 
L 790.930024 128.528148 
L 790.930024 128.513431 
L 782.480138 128.513431 
z
" clip-path="url(#p8856780484)" style="fill: #00bfff"/>
   </g>
   <g id="patch_51">
    <path d="M 790.930024 128.528148 
L 799.379911 128.528148 
L 799.379911 128.528148 
L 790.930024 128.528148 
z
" clip-path="url(#p8856780484)" style="fill: #00bfff"/>
   </g>
   <g id="patch_52">
    <path d="M 799.379911 128.528148 
L 807.829797 128.528148 
L 807.829797 128.513431 
L 799.379911 128.513431 
z
" clip-path="url(#p8856780484)" style="fill: #00bfff"/>
   </g>
   <g id="patch_53">
    <path d="M 807.829797 128.528148 
L 816.279683 128.528148 
L 816.279683 128.528148 
L 807.829797 128.528148 
z
" clip-path="url(#p8856780484)" style="fill: #00bfff"/>
   </g>
   <g id="patch_54">
    <path d="M 816.279683 128.528148 
L 824.729546 128.528148 
L 824.729546 128.498715 
L 816.279683 128.498715 
z
" clip-path="url(#p8856780484)" style="fill: #00bfff"/>
   </g>
   <g id="line2d_25">
    <path d="M 7.2 128.528148 
L 15.866662 128.528148 
L 24.533324 128.528148 
L 33.199985 128.528148 
L 41.866647 128.528148 
L 50.533309 128.528148 
L 59.199971 128.528148 
L 67.866633 128.528148 
L 76.533295 128.528148 
L 85.199956 128.528148 
L 93.866618 128.528148 
L 102.53328 128.528148 
L 111.199942 128.528148 
L 119.866604 128.528148 
L 128.533265 128.528147 
L 137.199927 128.528147 
L 145.866589 128.528147 
L 154.533251 128.528146 
L 163.199913 128.528144 
L 171.866575 128.528139 
L 180.533236 128.528128 
L 189.199898 128.528107 
L 197.86656 128.528062 
L 206.533222 128.527974 
L 215.199884 128.527804 
L 223.866545 128.52748 
L 232.533207 128.52688 
L 241.199869 128.525794 
L 249.866531 128.523876 
L 258.533193 128.520568 
L 267.199855 128.514995 
L 275.866516 128.505833 
L 284.533178 128.491131 
L 293.19984 128.468108 
L 301.866502 128.43293 
L 310.533164 128.380499 
L 319.199825 128.304287 
L 327.866487 128.196282 
L 336.533149 128.047108 
L 345.199811 127.846382 
L 353.866473 127.583382 
L 362.533135 127.248036 
L 371.199796 126.83222 
L 379.866458 126.331292 
L 388.53312 125.745676 
L 397.199782 125.082307 
L 405.866444 124.355663 
L 414.533105 123.588122 
L 423.199767 122.809427 
L 431.866429 122.055178 
L 440.533091 121.36435 
L 449.199753 120.776069 
L 457.866415 120.325991 
L 466.533076 120.042734 
L 475.199738 119.944872 
L 483.8664 120.03892 
L 492.533062 120.318616 
L 501.199724 120.765612 
L 509.866385 121.351462 
L 518.533047 122.040618 
L 527.199709 122.793988 
L 535.866371 123.572558 
L 544.533033 124.340637 
L 553.199695 125.068343 
L 561.866356 125.733144 
L 570.533018 126.320406 
L 579.19968 126.823051 
L 587.866342 127.240536 
L 596.533004 127.57742 
L 605.199665 127.841772 
L 613.866327 128.043637 
L 622.532989 128.193737 
L 631.199651 128.302469 
L 639.866313 128.379233 
L 648.532975 128.432071 
L 657.199636 128.467539 
L 665.866298 128.490764 
L 674.53296 128.505601 
L 683.199622 128.514852 
L 691.866284 128.520482 
L 700.532945 128.523826 
L 709.199607 128.525765 
L 717.866269 128.526864 
L 726.532931 128.527471 
L 735.199593 128.527799 
L 743.866255 128.527972 
L 752.532916 128.528061 
L 761.199578 128.528106 
L 769.86624 128.528128 
L 778.532902 128.528139 
L 787.199564 128.528144 
L 795.866225 128.528146 
L 804.532887 128.528147 
L 813.199549 128.528147 
L 821.866211 128.528147 
L 830.532873 128.528148 
L 839.199535 128.528148 
L 847.866196 128.528148 
L 856.532858 128.528148 
L 865.19952 128.528148 
" clip-path="url(#p8856780484)" style="fill: none; stroke: #1f77b4; stroke-width: 1.5; stroke-linecap: square"/>
   </g>
   <g id="text_13">
    <g id="patch_55">
     <path d="M 120.347119 38.307963 
L 136.654932 38.307963 
Q 139.654932 38.307963 139.654932 35.307963 
L 139.654932 25.629838 
Q 139.654932 22.629838 136.654932 22.629838 
L 120.347119 22.629838 
Q 117.347119 22.629838 117.347119 25.629838 
L 117.347119 35.307963 
Q 117.347119 38.307963 120.347119 38.307963 
z
" style="fill: #ffffff"/>
    </g>
    <!-- -6σ -->
    <g transform="translate(120.347119 33.228276) scale(0.1 -0.1)">
     <defs>
      <path id="DejaVuSans-2d" d="M 313 2009 
L 1997 2009 
L 1997 1497 
L 313 1497 
L 313 2009 
z
" transform="scale(0.015625)"/>
      <path id="DejaVuSans-36" d="M 2113 2584 
Q 1688 2584 1439 2293 
Q 1191 2003 1191 1497 
Q 1191 994 1439 701 
Q 1688 409 2113 409 
Q 2538 409 2786 701 
Q 3034 994 3034 1497 
Q 3034 2003 2786 2293 
Q 2538 2584 2113 2584 
z
M 3366 4563 
L 3366 3988 
Q 3128 4100 2886 4159 
Q 2644 4219 2406 4219 
Q 1781 4219 1451 3797 
Q 1122 3375 1075 2522 
Q 1259 2794 1537 2939 
Q 1816 3084 2150 3084 
Q 2853 3084 3261 2657 
Q 3669 2231 3669 1497 
Q 3669 778 3244 343 
Q 2819 -91 2113 -91 
Q 1303 -91 875 529 
Q 447 1150 447 2328 
Q 447 3434 972 4092 
Q 1497 4750 2381 4750 
Q 2619 4750 2861 4703 
Q 3103 4656 3366 4563 
z
" transform="scale(0.015625)"/>
     </defs>
     <use xlink:href="#DejaVuSans-2d"/>
     <use xlink:href="#DejaVuSans-36" transform="translate(36.083984 0)"/>
     <use xlink:href="#DejaVuSans-3c3" transform="translate(99.707031 0)"/>
    </g>
   </g>
   <g id="text_14">
    <g id="patch_56">
     <path d="M 178.144689 38.307963 
L 194.452501 38.307963 
Q 197.452501 38.307963 197.452501 35.307963 
L 197.452501 25.629838 
Q 197.452501 22.629838 194.452501 22.629838 
L 178.144689 22.629838 
Q 175.144689 22.629838 175.144689 25.629838 
L 175.144689 35.307963 
Q 175.144689 38.307963 178.144689 38.307963 
z
" style="fill: #ffffff"/>
    </g>
    <!-- -5σ -->
    <g transform="translate(178.144689 33.228276) scale(0.1 -0.1)">
     <use xlink:href="#DejaVuSans-2d"/>
     <use xlink:href="#DejaVuSans-35" transform="translate(36.083984 0)"/>
     <use xlink:href="#DejaVuSans-3c3" transform="translate(99.707031 0)"/>
    </g>
   </g>
   <g id="text_15">
    <g id="patch_57">
     <path d="M 235.942223 38.307963 
L 252.250036 38.307963 
Q 255.250036 38.307963 255.250036 35.307963 
L 255.250036 25.629838 
Q 255.250036 22.629838 252.250036 22.629838 
L 235.942223 22.629838 
Q 232.942223 22.629838 232.942223 25.629838 
L 232.942223 35.307963 
Q 232.942223 38.307963 235.942223 38.307963 
z
" style="fill: #ffffff"/>
    </g>
    <!-- -4σ -->
    <g transform="translate(235.942223 33.228276) scale(0.1 -0.1)">
     <use xlink:href="#DejaVuSans-2d"/>
     <use xlink:href="#DejaVuSans-34" transform="translate(36.083984 0)"/>
     <use xlink:href="#DejaVuSans-3c3" transform="translate(99.707031 0)"/>
    </g>
   </g>
   <g id="text_16">
    <g id="patch_58">
     <path d="M 293.73977 38.307963 
L 310.047582 38.307963 
Q 313.047582 38.307963 313.047582 35.307963 
L 313.047582 25.629838 
Q 313.047582 22.629838 310.047582 22.629838 
L 293.73977 22.629838 
Q 290.73977 22.629838 290.73977 25.629838 
L 290.73977 35.307963 
Q 290.73977 38.307963 293.73977 38.307963 
z
" style="fill: #ffffff"/>
    </g>
    <!-- -3σ -->
    <g transform="translate(293.73977 33.228276) scale(0.1 -0.1)">
     <use xlink:href="#DejaVuSans-2d"/>
     <use xlink:href="#DejaVuSans-33" transform="translate(36.083984 0)"/>
     <use xlink:href="#DejaVuSans-3c3" transform="translate(99.707031 0)"/>
    </g>
   </g>
   <g id="text_17">
    <g id="patch_59">
     <path d="M 351.537327 38.307963 
L 367.84514 38.307963 
Q 370.84514 38.307963 370.84514 35.307963 
L 370.84514 25.629838 
Q 370.84514 22.629838 367.84514 22.629838 
L 351.537327 22.629838 
Q 348.537327 22.629838 348.537327 25.629838 
L 348.537327 35.307963 
Q 348.537327 38.307963 351.537327 38.307963 
z
" style="fill: #ffffff"/>
    </g>
    <!-- -2σ -->
    <g transform="translate(351.537327 33.228276) scale(0.1 -0.1)">
     <use xlink:href="#DejaVuSans-2d"/>
     <use xlink:href="#DejaVuSans-32" transform="translate(36.083984 0)"/>
     <use xlink:href="#DejaVuSans-3c3" transform="translate(99.707031 0)"/>
    </g>
   </g>
   <g id="text_18">
    <g id="patch_60">
     <path d="M 412.516132 38.307963 
L 422.461445 38.307963 
Q 425.461445 38.307963 425.461445 35.307963 
L 425.461445 25.629838 
Q 425.461445 22.629838 422.461445 22.629838 
L 412.516132 22.629838 
Q 409.516132 22.629838 409.516132 25.629838 
L 409.516132 35.307963 
Q 409.516132 38.307963 412.516132 38.307963 
z
" style="fill: #ffffff"/>
    </g>
    <!-- -σ -->
    <g transform="translate(412.516132 33.228276) scale(0.1 -0.1)">
     <use xlink:href="#DejaVuSans-2d"/>
     <use xlink:href="#DejaVuSans-3c3" transform="translate(36.083984 0)"/>
    </g>
   </g>
   <g id="text_19">
    <g id="patch_61">
     <path d="M 471.607434 38.307963 
L 478.965247 38.307963 
Q 481.965247 38.307963 481.965247 35.307963 
L 481.965247 25.629838 
Q 481.965247 22.629838 478.965247 22.629838 
L 471.607434 22.629838 
Q 468.607434 22.629838 468.607434 25.629838 
L 468.607434 35.307963 
Q 468.607434 38.307963 471.607434 38.307963 
z
" style="fill: #ffffff"/>
    </g>
    <!-- μ -->
    <g transform="translate(471.607434 33.217338) scale(0.1 -0.1)">
     <defs>
      <path id="DejaVuSans-Bold-3bc" d="M 544 -1338 
L 544 3500 
L 1672 3500 
L 1672 1466 
Q 1672 1103 1828 926 
Q 1984 750 2303 750 
Q 2625 750 2781 926 
Q 2938 1103 2938 1466 
L 2938 3500 
L 4063 3500 
L 4063 1159 
Q 4063 938 4114 850 
Q 4166 763 4288 763 
Q 4344 763 4395 778 
Q 4447 794 4506 831 
L 4506 50 
Q 4341 -22 4195 -56 
Q 4050 -91 3909 -91 
Q 3631 -91 3454 26 
Q 3278 144 3169 403 
Q 3022 156 2811 32 
Q 2600 -91 2322 -91 
Q 2091 -91 1928 -17 
Q 1766 56 1672 206 
L 1672 -1338 
L 544 -1338 
z
" transform="scale(0.015625)"/>
     </defs>
     <use xlink:href="#DejaVuSans-Bold-3bc"/>
    </g>
   </g>
   <g id="text_20">
    <g id="patch_62">
     <path d="M 525.725302 38.307963 
L 540.442489 38.307963 
Q 543.442489 38.307963 543.442489 35.307963 
L 543.442489 25.629838 
Q 543.442489 22.629838 540.442489 22.629838 
L 525.725302 22.629838 
Q 522.725302 22.629838 522.725302 25.629838 
L 522.725302 35.307963 
Q 522.725302 38.307963 525.725302 38.307963 
z
" style="fill: #ffffff"/>
    </g>
    <!-- +σ -->
    <g transform="translate(525.725302 33.228276) scale(0.1 -0.1)">
     <defs>
      <path id="DejaVuSans-2b" d="M 2944 4013 
L 2944 2272 
L 4684 2272 
L 4684 1741 
L 2944 1741 
L 2944 0 
L 2419 0 
L 2419 1741 
L 678 1741 
L 678 2272 
L 2419 2272 
L 2419 4013 
L 2944 4013 
z
" transform="scale(0.015625)"/>
     </defs>
     <use xlink:href="#DejaVuSans-2b"/>
     <use xlink:href="#DejaVuSans-3c3" transform="translate(83.789062 0)"/>
    </g>
   </g>
   <g id="text_21">
    <g id="patch_63">
     <path d="M 580.341598 38.307963 
L 601.421286 38.307963 
Q 604.421286 38.307963 604.421286 35.307963 
L 604.421286 25.629838 
Q 604.421286 22.629838 601.421286 22.629838 
L 580.341598 22.629838 
Q 577.341598 22.629838 577.341598 25.629838 
L 577.341598 35.307963 
Q 577.341598 38.307963 580.341598 38.307963 
z
" style="fill: #ffffff"/>
    </g>
    <!-- +2σ -->
    <g transform="translate(580.341598 33.228276) scale(0.1 -0.1)">
     <use xlink:href="#DejaVuSans-2b"/>
     <use xlink:href="#DejaVuSans-32" transform="translate(83.789062 0)"/>
     <use xlink:href="#DejaVuSans-3c3" transform="translate(147.412109 0)"/>
    </g>
   </g>
   <g id="text_22">
    <g id="patch_64">
     <path d="M 638.139168 38.307963 
L 659.218855 38.307963 
Q 662.218855 38.307963 662.218855 35.307963 
L 662.218855 25.629838 
Q 662.218855 22.629838 659.218855 22.629838 
L 638.139168 22.629838 
Q 635.139168 22.629838 635.139168 25.629838 
L 635.139168 35.307963 
Q 635.139168 38.307963 638.139168 38.307963 
z
" style="fill: #ffffff"/>
    </g>
    <!-- +3σ -->
    <g transform="translate(638.139168 33.228276) scale(0.1 -0.1)">
     <use xlink:href="#DejaVuSans-2b"/>
     <use xlink:href="#DejaVuSans-33" transform="translate(83.789062 0)"/>
     <use xlink:href="#DejaVuSans-3c3" transform="translate(147.412109 0)"/>
    </g>
   </g>
   <g id="text_23">
    <g id="patch_65">
     <path d="M 695.936714 38.307963 
L 717.016401 38.307963 
Q 720.016401 38.307963 720.016401 35.307963 
L 720.016401 25.629838 
Q 720.016401 22.629838 717.016401 22.629838 
L 695.936714 22.629838 
Q 692.936714 22.629838 692.936714 25.629838 
L 692.936714 35.307963 
Q 692.936714 38.307963 695.936714 38.307963 
z
" style="fill: #ffffff"/>
    </g>
    <!-- +4σ -->
    <g transform="translate(695.936714 33.228276) scale(0.1 -0.1)">
     <use xlink:href="#DejaVuSans-2b"/>
     <use xlink:href="#DejaVuSans-34" transform="translate(83.789062 0)"/>
     <use xlink:href="#DejaVuSans-3c3" transform="translate(147.412109 0)"/>
    </g>
   </g>
   <g id="text_24">
    <g id="patch_66">
     <path d="M 753.73426 38.307963 
L 774.813948 38.307963 
Q 777.813948 38.307963 777.813948 35.307963 
L 777.813948 25.629838 
Q 777.813948 22.629838 774.813948 22.629838 
L 753.73426 22.629838 
Q 750.73426 22.629838 750.73426 25.629838 
L 750.73426 35.307963 
Q 750.73426 38.307963 753.73426 38.307963 
z
" style="fill: #ffffff"/>
    </g>
    <!-- +5σ -->
    <g transform="translate(753.73426 33.228276) scale(0.1 -0.1)">
     <use xlink:href="#DejaVuSans-2b"/>
     <use xlink:href="#DejaVuSans-35" transform="translate(83.789062 0)"/>
     <use xlink:href="#DejaVuSans-3c3" transform="translate(147.412109 0)"/>
    </g>
   </g>
   <g id="text_25">
    <g id="patch_67">
     <path d="M 811.53183 38.307963 
L 832.611517 38.307963 
Q 835.611517 38.307963 835.611517 35.307963 
L 835.611517 25.629838 
Q 835.611517 22.629838 832.611517 22.629838 
L 811.53183 22.629838 
Q 808.53183 22.629838 808.53183 25.629838 
L 808.53183 35.307963 
Q 808.53183 38.307963 811.53183 38.307963 
z
" style="fill: #ffffff"/>
    </g>
    <!-- +6σ -->
    <g transform="translate(811.53183 33.228276) scale(0.1 -0.1)">
     <use xlink:href="#DejaVuSans-2b"/>
     <use xlink:href="#DejaVuSans-36" transform="translate(83.789062 0)"/>
     <use xlink:href="#DejaVuSans-3c3" transform="translate(147.412109 0)"/>
    </g>
   </g>
  </g>
 </g>
 <defs>
  <clipPath id="p8856780484">
   <rect x="7.2" y="20.214138" width="857.99952" height="108.31401"/>
  </clipPath>
 </defs>
</svg>
