<?xml version="1.0" encoding="utf-8" standalone="no"?>
<!DOCTYPE svg PUBLIC "-//W3C//DTD SVG 1.1//EN"
  "http://www.w3.org/Graphics/SVG/1.1/DTD/svg11.dtd">
<svg xmlns:xlink="http://www.w3.org/1999/xlink" width="872.39952pt" height="152.406273pt" viewBox="0 0 872.39952 152.406273" xmlns="http://www.w3.org/2000/svg" version="1.1">
 <metadata>
  <rdf:RDF xmlns:dc="http://purl.org/dc/elements/1.1/" xmlns:cc="http://creativecommons.org/ns#" xmlns:rdf="http://www.w3.org/1999/02/22-rdf-syntax-ns#">
   <cc:Work>
    <dc:type rdf:resource="http://purl.org/dc/dcmitype/StillImage"/>
    <dc:format>image/svg+xml</dc:format>
    <dc:creator>
     <cc:Agent>
      <dc:title>Matplotlib, https://matplotlib.org/</dc:title>
     </cc:Agent>
    </dc:creator>
   </cc:Work>
  </rdf:RDF>
 </metadata>
 <defs>
  <style type="text/css">*{stroke-linejoin: round; stroke-linecap: butt}</style>
 </defs>
 <g id="figure_1">
  <g id="patch_1">
   <path d="M 0 152.406273 
L 872.39952 152.406273 
L 872.39952 0 
L 0 0 
z
" style="fill: #ffffff"/>
  </g>
  <g id="axes_1">
   <g id="patch_2">
    <path d="M 7.2 128.528148 
L 865.19952 128.528148 
L 865.19952 20.214138 
L 7.2 20.214138 
z
" style="fill: #ffffff"/>
   </g>
   <g id="matplotlib.axis_1">
    <g id="xtick_1">
     <g id="line2d_1">
      <defs>
       <path id="m8f1de1206a" d="M 0 0 
L 0 3.5 
" style="stroke: #000000; stroke-width: 0.8"/>
      </defs>
      <g>
       <use xlink:href="#m8f1de1206a" x="56.7" y="128.528148" style="stroke: #000000; stroke-width: 0.8"/>
      </g>
     </g>
     <g id="text_1">
      <!-- −1 -->
      <g transform="translate(49.328907 143.126585) scale(0.1 -0.1)">
       <defs>
        <path id="DejaVuSans-2212" d="M 678 2272 
L 4684 2272 
L 4684 1741 
L 678 1741 
L 678 2272 
z
" transform="scale(0.015625)"/>
        <path id="DejaVuSans-31" d="M 794 531 
L 1825 531 
L 1825 4091 
L 703 3866 
L 703 4441 
L 1819 4666 
L 2450 4666 
L 2450 531 
L 3481 531 
L 3481 0 
L 794 0 
L 794 531 
z
" transform="scale(0.015625)"/>
       </defs>
       <use xlink:href="#DejaVuSans-2212"/>
       <use xlink:href="#DejaVuSans-31" x="83.789062"/>
      </g>
     </g>
    </g>
    <g id="xtick_2">
     <g id="line2d_2">
      <g>
       <use xlink:href="#m8f1de1206a" x="153.823367" y="128.528148" style="stroke: #000000; stroke-width: 0.8"/>
      </g>
     </g>
     <g id="text_2">
      <!-- 0 -->
      <g transform="translate(150.642117 143.126585) scale(0.1 -0.1)">
       <defs>
        <path id="DejaVuSans-30" d="M 2034 4250 
Q 1547 4250 1301 3770 
Q 1056 3291 1056 2328 
Q 1056 1369 1301 889 
Q 1547 409 2034 409 
Q 2525 409 2770 889 
Q 3016 1369 3016 2328 
Q 3016 3291 2770 3770 
Q 2525 4250 2034 4250 
z
M 2034 4750 
Q 2819 4750 3233 4129 
Q 3647 3509 3647 2328 
Q 3647 1150 3233 529 
Q 2819 -91 2034 -91 
Q 1250 -91 836 529 
Q 422 1150 422 2328 
Q 422 3509 836 4129 
Q 1250 4750 2034 4750 
z
" transform="scale(0.015625)"/>
       </defs>
       <use xlink:href="#DejaVuSans-30"/>
      </g>
     </g>
    </g>
    <g id="xtick_3">
     <g id="line2d_3">
      <g>
       <use xlink:href="#m8f1de1206a" x="250.946734" y="128.528148" style="stroke: #000000; stroke-width: 0.8"/>
      </g>
     </g>
     <g id="text_3">
      <!-- 1 -->
      <g transform="translate(247.765484 143.126585) scale(0.1 -0.1)">
       <use xlink:href="#DejaVuSans-31"/>
      </g>
     </g>
    </g>
    <g id="xtick_4">
     <g id="line2d_4">
      <g>
       <use xlink:href="#m8f1de1206a" x="348.070101" y="128.528148" style="stroke: #000000; stroke-width: 0.8"/>
      </g>
     </g>
     <g id="text_4">
      <!-- 2 -->
      <g transform="translate(344.888851 143.126585) scale(0.1 -0.1)">
       <defs>
        <path id="DejaVuSans-32" d="M 1228 531 
L 3431 531 
L 3431 0 
L 469 0 
L 469 531 
Q 828 903 1448 1529 
Q 2069 2156 2228 2338 
Q 2531 2678 2651 2914 
Q 2772 3150 2772 3378 
Q 2772 3750 2511 3984 
Q 2250 4219 1831 4219 
Q 1534 4219 1204 4116 
Q 875 4013 500 3803 
L 500 4441 
Q 881 4594 1212 4672 
Q 1544 4750 1819 4750 
Q 2544 4750 2975 4387 
Q 3406 4025 3406 3419 
Q 3406 3131 3298 2873 
Q 3191 2616 2906 2266 
Q 2828 2175 2409 1742 
Q 1991 1309 1228 531 
z
" transform="scale(0.015625)"/>
       </defs>
       <use xlink:href="#DejaVuSans-32"/>
      </g>
     </g>
    </g>
    <g id="xtick_5">
     <g id="line2d_5">
      <g>
       <use xlink:href="#m8f1de1206a" x="445.193468" y="128.528148" style="stroke: #000000; stroke-width: 0.8"/>
      </g>
     </g>
     <g id="text_5">
      <!-- 3 -->
      <g transform="translate(442.012218 143.126585) scale(0.1 -0.1)">
       <defs>
        <path id="DejaVuSans-33" d="M 2597 2516 
Q 3050 2419 3304 2112 
Q 3559 1806 3559 1356 
Q 3559 666 3084 287 
Q 2609 -91 1734 -91 
Q 1441 -91 1130 -33 
Q 819 25 488 141 
L 488 750 
Q 750 597 1062 519 
Q 1375 441 1716 441 
Q 2309 441 2620 675 
Q 2931 909 2931 1356 
Q 2931 1769 2642 2001 
Q 2353 2234 1838 2234 
L 1294 2234 
L 1294 2753 
L 1863 2753 
Q 2328 2753 2575 2939 
Q 2822 3125 2822 3475 
Q 2822 3834 2567 4026 
Q 2313 4219 1838 4219 
Q 1578 4219 1281 4162 
Q 984 4106 628 3988 
L 628 4550 
Q 988 4650 1302 4700 
Q 1616 4750 1894 4750 
Q 2613 4750 3031 4423 
Q 3450 4097 3450 3541 
Q 3450 3153 3228 2886 
Q 3006 2619 2597 2516 
z
" transform="scale(0.015625)"/>
       </defs>
       <use xlink:href="#DejaVuSans-33"/>
      </g>
     </g>
    </g>
    <g id="xtick_6">
     <g id="line2d_6">
      <g>
       <use xlink:href="#m8f1de1206a" x="542.316835" y="128.528148" style="stroke: #000000; stroke-width: 0.8"/>
      </g>
     </g>
     <g id="text_6">
      <!-- 4 -->
      <g transform="translate(539.135585 143.126585) scale(0.1 -0.1)">
       <defs>
        <path id="DejaVuSans-34" d="M 2419 4116 
L 825 1625 
L 2419 1625 
L 2419 4116 
z
M 2253 4666 
L 3047 4666 
L 3047 1625 
L 3713 1625 
L 3713 1100 
L 3047 1100 
L 3047 0 
L 2419 0 
L 2419 1100 
L 313 1100 
L 313 1709 
L 2253 4666 
z
" transform="scale(0.015625)"/>
       </defs>
       <use xlink:href="#DejaVuSans-34"/>
      </g>
     </g>
    </g>
    <g id="xtick_7">
     <g id="line2d_7">
      <g>
       <use xlink:href="#m8f1de1206a" x="639.440202" y="128.528148" style="stroke: #000000; stroke-width: 0.8"/>
      </g>
     </g>
     <g id="text_7">
      <!-- 5 -->
      <g transform="translate(636.258952 143.126585) scale(0.1 -0.1)">
       <defs>
        <path id="DejaVuSans-35" d="M 691 4666 
L 3169 4666 
L 3169 4134 
L 1269 4134 
L 1269 2991 
Q 1406 3038 1543 3061 
Q 1681 3084 1819 3084 
Q 2600 3084 3056 2656 
Q 3513 2228 3513 1497 
Q 3513 744 3044 326 
Q 2575 -91 1722 -91 
Q 1428 -91 1123 -41 
Q 819 9 494 109 
L 494 744 
Q 775 591 1075 516 
Q 1375 441 1709 441 
Q 2250 441 2565 725 
Q 2881 1009 2881 1497 
Q 2881 1984 2565 2268 
Q 2250 2553 1709 2553 
Q 1456 2553 1204 2497 
Q 953 2441 691 2322 
L 691 4666 
z
" transform="scale(0.015625)"/>
       </defs>
       <use xlink:href="#DejaVuSans-35"/>
      </g>
     </g>
    </g>
    <g id="xtick_8">
     <g id="line2d_8">
      <g>
       <use xlink:href="#m8f1de1206a" x="736.563569" y="128.528148" style="stroke: #000000; stroke-width: 0.8"/>
      </g>
     </g>
     <g id="text_8">
      <!-- 6 -->
      <g transform="translate(733.382319 143.126585) scale(0.1 -0.1)">
       <defs>
        <path id="DejaVuSans-36" d="M 2113 2584 
Q 1688 2584 1439 2293 
Q 1191 2003 1191 1497 
Q 1191 994 1439 701 
Q 1688 409 2113 409 
Q 2538 409 2786 701 
Q 3034 994 3034 1497 
Q 3034 2003 2786 2293 
Q 2538 2584 2113 2584 
z
M 3366 4563 
L 3366 3988 
Q 3128 4100 2886 4159 
Q 2644 4219 2406 4219 
Q 1781 4219 1451 3797 
Q 1122 3375 1075 2522 
Q 1259 2794 1537 2939 
Q 1816 3084 2150 3084 
Q 2853 3084 3261 2657 
Q 3669 2231 3669 1497 
Q 3669 778 3244 343 
Q 2819 -91 2113 -91 
Q 1303 -91 875 529 
Q 447 1150 447 2328 
Q 447 3434 972 4092 
Q 1497 4750 2381 4750 
Q 2619 4750 2861 4703 
Q 3103 4656 3366 4563 
z
" transform="scale(0.015625)"/>
       </defs>
       <use xlink:href="#DejaVuSans-36"/>
      </g>
     </g>
    </g>
    <g id="xtick_9">
     <g id="line2d_9">
      <g>
       <use xlink:href="#m8f1de1206a" x="833.686935" y="128.528148" style="stroke: #000000; stroke-width: 0.8"/>
      </g>
     </g>
     <g id="text_9">
      <!-- 7 -->
      <g transform="translate(830.505685 143.126585) scale(0.1 -0.1)">
       <defs>
        <path id="DejaVuSans-37" d="M 525 4666 
L 3525 4666 
L 3525 4397 
L 1831 0 
L 1172 0 
L 2766 4134 
L 525 4134 
L 525 4666 
z
" transform="scale(0.015625)"/>
       </defs>
       <use xlink:href="#DejaVuSans-37"/>
      </g>
     </g>
    </g>
   </g>
   <g id="matplotlib.axis_2"/>
   <g id="line2d_10">
    <path d="M 57.600028 128.528148 
L 57.600028 20.214138 
" clip-path="url(#p4e7146a8b3)" style="fill: none; stroke: #000000; stroke-width: 1.5; stroke-linecap: square"/>
   </g>
   <g id="line2d_11">
    <path d="M 154.396085 128.528148 
L 154.396085 20.214138 
" clip-path="url(#p4e7146a8b3)" style="fill: none; stroke: #000000; stroke-width: 1.5; stroke-linecap: square"/>
   </g>
   <g id="line2d_12">
    <path d="M 251.192142 128.528148 
L 251.192142 20.214138 
" clip-path="url(#p4e7146a8b3)" style="fill: none; stroke: #000000; stroke-width: 1.5; stroke-linecap: square"/>
   </g>
   <g id="line2d_13">
    <path d="M 347.988198 128.528148 
L 347.988198 20.214138 
" clip-path="url(#p4e7146a8b3)" style="fill: none; stroke: #000000; stroke-width: 1.5; stroke-linecap: square"/>
   </g>
   <g id="line2d_14">
    <path d="M 444.784255 128.528148 
L 444.784255 20.214138 
" clip-path="url(#p4e7146a8b3)" style="fill: none; stroke: #000000; stroke-width: 1.5; stroke-linecap: square"/>
   </g>
   <g id="line2d_15">
    <path d="M 541.580311 128.528148 
L 541.580311 20.214138 
" clip-path="url(#p4e7146a8b3)" style="fill: none; stroke: #000000; stroke-width: 1.5; stroke-linecap: square"/>
   </g>
   <g id="line2d_16">
    <path d="M 638.376368 128.528148 
L 638.376368 20.214138 
" clip-path="url(#p4e7146a8b3)" style="fill: none; stroke: #000000; stroke-width: 1.5; stroke-linecap: square"/>
   </g>
   <g id="line2d_17">
    <path d="M 735.172425 128.528148 
L 735.172425 20.214138 
" clip-path="url(#p4e7146a8b3)" style="fill: none; stroke: #000000; stroke-width: 1.5; stroke-linecap: square"/>
   </g>
   <g id="line2d_18">
    <path d="M 831.968481 128.528148 
L 831.968481 20.214138 
" clip-path="url(#p4e7146a8b3)" style="fill: none; stroke: #000000; stroke-width: 1.5; stroke-linecap: square"/>
   </g>
   <g id="line2d_19">
    <path d="M 23.693648 128.528148 
L 23.693648 20.214138 
" clip-path="url(#p4e7146a8b3)" style="fill: none; stroke: #ff0000; stroke-width: 1.5; stroke-linecap: square"/>
   </g>
   <g id="line2d_20">
    <path d="M 848.376 128.528148 
L 848.376 20.214138 
" clip-path="url(#p4e7146a8b3)" style="fill: none; stroke: #ff0000; stroke-width: 1.5; stroke-linecap: square"/>
   </g>
   <g id="patch_3">
    <path d="M 7.2 128.528148 
L 7.2 20.214138 
" style="fill: none; stroke: #000000; stroke-width: 0.8; stroke-linejoin: miter; stroke-linecap: square"/>
   </g>
   <g id="patch_4">
    <path d="M 865.19952 128.528148 
L 865.19952 20.214138 
" style="fill: none; stroke: #000000; stroke-width: 0.8; stroke-linejoin: miter; stroke-linecap: square"/>
   </g>
   <g id="patch_5">
    <path d="M 7.2 128.528148 
L 865.19952 128.528148 
" style="fill: none; stroke: #000000; stroke-width: 0.8; stroke-linejoin: miter; stroke-linecap: square"/>
   </g>
   <g id="patch_6">
    <path d="M 7.2 20.214138 
L 865.19952 20.214138 
" style="fill: none; stroke: #000000; stroke-width: 0.8; stroke-linejoin: miter; stroke-linecap: square"/>
   </g>
   <g id="text_10">
    <g id="patch_7">
     <path d="M 22.693648 104.10708 
L 22.693648 44.635205 
Q 22.693648 44.635205 22.693648 44.635205 
L 13.015523 44.635205 
Q 13.015523 44.635205 13.015523 44.635205 
L 13.015523 104.10708 
Q 13.015523 104.10708 13.015523 104.10708 
L 22.693648 104.10708 
Q 22.693648 104.10708 22.693648 104.10708 
z
" style="fill: #ffffff"/>
    </g>
    <!-- min=-1.340 -->
    <g transform="translate(20.61396 104.10708) rotate(-90) scale(0.1 -0.1)">
     <defs>
      <path id="DejaVuSans-6d" d="M 3328 2828 
Q 3544 3216 3844 3400 
Q 4144 3584 4550 3584 
Q 5097 3584 5394 3201 
Q 5691 2819 5691 2113 
L 5691 0 
L 5113 0 
L 5113 2094 
Q 5113 2597 4934 2840 
Q 4756 3084 4391 3084 
Q 3944 3084 3684 2787 
Q 3425 2491 3425 1978 
L 3425 0 
L 2847 0 
L 2847 2094 
Q 2847 2600 2669 2842 
Q 2491 3084 2119 3084 
Q 1678 3084 1418 2786 
Q 1159 2488 1159 1978 
L 1159 0 
L 581 0 
L 581 3500 
L 1159 3500 
L 1159 2956 
Q 1356 3278 1631 3431 
Q 1906 3584 2284 3584 
Q 2666 3584 2933 3390 
Q 3200 3197 3328 2828 
z
" transform="scale(0.015625)"/>
      <path id="DejaVuSans-69" d="M 603 3500 
L 1178 3500 
L 1178 0 
L 603 0 
L 603 3500 
z
M 603 4863 
L 1178 4863 
L 1178 4134 
L 603 4134 
L 603 4863 
z
" transform="scale(0.015625)"/>
      <path id="DejaVuSans-6e" d="M 3513 2113 
L 3513 0 
L 2938 0 
L 2938 2094 
Q 2938 2591 2744 2837 
Q 2550 3084 2163 3084 
Q 1697 3084 1428 2787 
Q 1159 2491 1159 1978 
L 1159 0 
L 581 0 
L 581 3500 
L 1159 3500 
L 1159 2956 
Q 1366 3272 1645 3428 
Q 1925 3584 2291 3584 
Q 2894 3584 3203 3211 
Q 3513 2838 3513 2113 
z
" transform="scale(0.015625)"/>
      <path id="DejaVuSans-3d" d="M 678 2906 
L 4684 2906 
L 4684 2381 
L 678 2381 
L 678 2906 
z
M 678 1631 
L 4684 1631 
L 4684 1100 
L 678 1100 
L 678 1631 
z
" transform="scale(0.015625)"/>
      <path id="DejaVuSans-2d" d="M 313 2009 
L 1997 2009 
L 1997 1497 
L 313 1497 
L 313 2009 
z
" transform="scale(0.015625)"/>
      <path id="DejaVuSans-2e" d="M 684 794 
L 1344 794 
L 1344 0 
L 684 0 
L 684 794 
z
" transform="scale(0.015625)"/>
     </defs>
     <use xlink:href="#DejaVuSans-6d"/>
     <use xlink:href="#DejaVuSans-69" x="97.412109"/>
     <use xlink:href="#DejaVuSans-6e" x="125.195312"/>
     <use xlink:href="#DejaVuSans-3d" x="188.574219"/>
     <use xlink:href="#DejaVuSans-2d" x="272.363281"/>
     <use xlink:href="#DejaVuSans-31" x="308.447266"/>
     <use xlink:href="#DejaVuSans-2e" x="372.070312"/>
     <use xlink:href="#DejaVuSans-33" x="403.857422"/>
     <use xlink:href="#DejaVuSans-34" x="467.480469"/>
     <use xlink:href="#DejaVuSans-30" x="531.103516"/>
    </g>
   </g>
   <g id="text_11">
    <g id="patch_8">
     <path d="M 860.054125 103.768799 
L 860.054125 44.973487 
Q 860.054125 44.973487 860.054125 44.973487 
L 850.376 44.973487 
Q 850.376 44.973487 850.376 44.973487 
L 850.376 103.768799 
Q 850.376 103.768799 850.376 103.768799 
L 860.054125 103.768799 
Q 860.054125 103.768799 860.054125 103.768799 
z
" style="fill: #ffffff"/>
    </g>
    <!-- max=7.151 -->
    <g transform="translate(857.974438 103.768799) rotate(-90) scale(0.1 -0.1)">
     <defs>
      <path id="DejaVuSans-61" d="M 2194 1759 
Q 1497 1759 1228 1600 
Q 959 1441 959 1056 
Q 959 750 1161 570 
Q 1363 391 1709 391 
Q 2188 391 2477 730 
Q 2766 1069 2766 1631 
L 2766 1759 
L 2194 1759 
z
M 3341 1997 
L 3341 0 
L 2766 0 
L 2766 531 
Q 2569 213 2275 61 
Q 1981 -91 1556 -91 
Q 1019 -91 701 211 
Q 384 513 384 1019 
Q 384 1609 779 1909 
Q 1175 2209 1959 2209 
L 2766 2209 
L 2766 2266 
Q 2766 2663 2505 2880 
Q 2244 3097 1772 3097 
Q 1472 3097 1187 3025 
Q 903 2953 641 2809 
L 641 3341 
Q 956 3463 1253 3523 
Q 1550 3584 1831 3584 
Q 2591 3584 2966 3190 
Q 3341 2797 3341 1997 
z
" transform="scale(0.015625)"/>
      <path id="DejaVuSans-78" d="M 3513 3500 
L 2247 1797 
L 3578 0 
L 2900 0 
L 1881 1375 
L 863 0 
L 184 0 
L 1544 1831 
L 300 3500 
L 978 3500 
L 1906 2253 
L 2834 3500 
L 3513 3500 
z
" transform="scale(0.015625)"/>
     </defs>
     <use xlink:href="#DejaVuSans-6d"/>
     <use xlink:href="#DejaVuSans-61" x="97.412109"/>
     <use xlink:href="#DejaVuSans-78" x="158.691406"/>
     <use xlink:href="#DejaVuSans-3d" x="217.871094"/>
     <use xlink:href="#DejaVuSans-37" x="301.660156"/>
     <use xlink:href="#DejaVuSans-2e" x="365.283203"/>
     <use xlink:href="#DejaVuSans-31" x="397.070312"/>
     <use xlink:href="#DejaVuSans-35" x="460.693359"/>
     <use xlink:href="#DejaVuSans-31" x="524.316406"/>
    </g>
   </g>
   <g id="text_12">
    <!-- 10000 samples (μ=2.996, σ=0.997) of Tensor[100000] x∈[-1.340, 7.151] μ=2.998 σ=0.999 GPU -->
    <g transform="translate(7.2 14.798437) scale(0.1 -0.1)">
     <defs>
      <path id="DejaVuSans-20" transform="scale(0.015625)"/>
      <path id="DejaVuSans-73" d="M 2834 3397 
L 2834 2853 
Q 2591 2978 2328 3040 
Q 2066 3103 1784 3103 
Q 1356 3103 1142 2972 
Q 928 2841 928 2578 
Q 928 2378 1081 2264 
Q 1234 2150 1697 2047 
L 1894 2003 
Q 2506 1872 2764 1633 
Q 3022 1394 3022 966 
Q 3022 478 2636 193 
Q 2250 -91 1575 -91 
Q 1294 -91 989 -36 
Q 684 19 347 128 
L 347 722 
Q 666 556 975 473 
Q 1284 391 1588 391 
Q 1994 391 2212 530 
Q 2431 669 2431 922 
Q 2431 1156 2273 1281 
Q 2116 1406 1581 1522 
L 1381 1569 
Q 847 1681 609 1914 
Q 372 2147 372 2553 
Q 372 3047 722 3315 
Q 1072 3584 1716 3584 
Q 2034 3584 2315 3537 
Q 2597 3491 2834 3397 
z
" transform="scale(0.015625)"/>
      <path id="DejaVuSans-70" d="M 1159 525 
L 1159 -1331 
L 581 -1331 
L 581 3500 
L 1159 3500 
L 1159 2969 
Q 1341 3281 1617 3432 
Q 1894 3584 2278 3584 
Q 2916 3584 3314 3078 
Q 3713 2572 3713 1747 
Q 3713 922 3314 415 
Q 2916 -91 2278 -91 
Q 1894 -91 1617 61 
Q 1341 213 1159 525 
z
M 3116 1747 
Q 3116 2381 2855 2742 
Q 2594 3103 2138 3103 
Q 1681 3103 1420 2742 
Q 1159 2381 1159 1747 
Q 1159 1113 1420 752 
Q 1681 391 2138 391 
Q 2594 391 2855 752 
Q 3116 1113 3116 1747 
z
" transform="scale(0.015625)"/>
      <path id="DejaVuSans-6c" d="M 603 4863 
L 1178 4863 
L 1178 0 
L 603 0 
L 603 4863 
z
" transform="scale(0.015625)"/>
      <path id="DejaVuSans-65" d="M 3597 1894 
L 3597 1613 
L 953 1613 
Q 991 1019 1311 708 
Q 1631 397 2203 397 
Q 2534 397 2845 478 
Q 3156 559 3463 722 
L 3463 178 
Q 3153 47 2828 -22 
Q 2503 -91 2169 -91 
Q 1331 -91 842 396 
Q 353 884 353 1716 
Q 353 2575 817 3079 
Q 1281 3584 2069 3584 
Q 2775 3584 3186 3129 
Q 3597 2675 3597 1894 
z
M 3022 2063 
Q 3016 2534 2758 2815 
Q 2500 3097 2075 3097 
Q 1594 3097 1305 2825 
Q 1016 2553 972 2059 
L 3022 2063 
z
" transform="scale(0.015625)"/>
      <path id="DejaVuSans-28" d="M 1984 4856 
Q 1566 4138 1362 3434 
Q 1159 2731 1159 2009 
Q 1159 1288 1364 580 
Q 1569 -128 1984 -844 
L 1484 -844 
Q 1016 -109 783 600 
Q 550 1309 550 2009 
Q 550 2706 781 3412 
Q 1013 4119 1484 4856 
L 1984 4856 
z
" transform="scale(0.015625)"/>
      <path id="DejaVuSans-3bc" d="M 544 -1331 
L 544 3500 
L 1119 3500 
L 1119 1325 
Q 1119 872 1334 640 
Q 1550 409 1972 409 
Q 2434 409 2667 671 
Q 2900 934 2900 1459 
L 2900 3500 
L 3475 3500 
L 3475 806 
Q 3475 619 3529 530 
Q 3584 441 3700 441 
Q 3728 441 3778 458 
Q 3828 475 3916 513 
L 3916 50 
Q 3788 -22 3673 -56 
Q 3559 -91 3450 -91 
Q 3234 -91 3106 31 
Q 2978 153 2931 403 
Q 2775 156 2548 32 
Q 2322 -91 2016 -91 
Q 1697 -91 1473 31 
Q 1250 153 1119 397 
L 1119 -1331 
L 544 -1331 
z
" transform="scale(0.015625)"/>
      <path id="DejaVuSans-39" d="M 703 97 
L 703 672 
Q 941 559 1184 500 
Q 1428 441 1663 441 
Q 2288 441 2617 861 
Q 2947 1281 2994 2138 
Q 2813 1869 2534 1725 
Q 2256 1581 1919 1581 
Q 1219 1581 811 2004 
Q 403 2428 403 3163 
Q 403 3881 828 4315 
Q 1253 4750 1959 4750 
Q 2769 4750 3195 4129 
Q 3622 3509 3622 2328 
Q 3622 1225 3098 567 
Q 2575 -91 1691 -91 
Q 1453 -91 1209 -44 
Q 966 3 703 97 
z
M 1959 2075 
Q 2384 2075 2632 2365 
Q 2881 2656 2881 3163 
Q 2881 3666 2632 3958 
Q 2384 4250 1959 4250 
Q 1534 4250 1286 3958 
Q 1038 3666 1038 3163 
Q 1038 2656 1286 2365 
Q 1534 2075 1959 2075 
z
" transform="scale(0.015625)"/>
      <path id="DejaVuSans-2c" d="M 750 794 
L 1409 794 
L 1409 256 
L 897 -744 
L 494 -744 
L 750 256 
L 750 794 
z
" transform="scale(0.015625)"/>
      <path id="DejaVuSans-3c3" d="M 1959 3044 
Q 1484 3044 1228 2700 
Q 959 2341 959 1747 
Q 959 1119 1226 758 
Q 1494 397 1959 397 
Q 2419 397 2687 759 
Q 2956 1122 2956 1747 
Q 2956 2319 2688 2700 
Q 2441 3044 1959 3044 
z
M 1959 3500 
L 3869 3500 
L 3869 2925 
L 3225 2925 
Q 3566 2438 3566 1747 
Q 3566 888 3138 400 
Q 2709 -91 1959 -91 
Q 1206 -91 781 400 
Q 353 888 353 1747 
Q 353 2613 781 3097 
Q 1134 3500 1959 3500 
z
" transform="scale(0.015625)"/>
      <path id="DejaVuSans-29" d="M 513 4856 
L 1013 4856 
Q 1481 4119 1714 3412 
Q 1947 2706 1947 2009 
Q 1947 1309 1714 600 
Q 1481 -109 1013 -844 
L 513 -844 
Q 928 -128 1133 580 
Q 1338 1288 1338 2009 
Q 1338 2731 1133 3434 
Q 928 4138 513 4856 
z
" transform="scale(0.015625)"/>
      <path id="DejaVuSans-6f" d="M 1959 3097 
Q 1497 3097 1228 2736 
Q 959 2375 959 1747 
Q 959 1119 1226 758 
Q 1494 397 1959 397 
Q 2419 397 2687 759 
Q 2956 1122 2956 1747 
Q 2956 2369 2687 2733 
Q 2419 3097 1959 3097 
z
M 1959 3584 
Q 2709 3584 3137 3096 
Q 3566 2609 3566 1747 
Q 3566 888 3137 398 
Q 2709 -91 1959 -91 
Q 1206 -91 779 398 
Q 353 888 353 1747 
Q 353 2609 779 3096 
Q 1206 3584 1959 3584 
z
" transform="scale(0.015625)"/>
      <path id="DejaVuSans-66" d="M 2375 4863 
L 2375 4384 
L 1825 4384 
Q 1516 4384 1395 4259 
Q 1275 4134 1275 3809 
L 1275 3500 
L 2222 3500 
L 2222 3053 
L 1275 3053 
L 1275 0 
L 697 0 
L 697 3053 
L 147 3053 
L 147 3500 
L 697 3500 
L 697 3744 
Q 697 4328 969 4595 
Q 1241 4863 1831 4863 
L 2375 4863 
z
" transform="scale(0.015625)"/>
      <path id="DejaVuSans-54" d="M -19 4666 
L 3928 4666 
L 3928 4134 
L 2272 4134 
L 2272 0 
L 1638 0 
L 1638 4134 
L -19 4134 
L -19 4666 
z
" transform="scale(0.015625)"/>
      <path id="DejaVuSans-72" d="M 2631 2963 
Q 2534 3019 2420 3045 
Q 2306 3072 2169 3072 
Q 1681 3072 1420 2755 
Q 1159 2438 1159 1844 
L 1159 0 
L 581 0 
L 581 3500 
L 1159 3500 
L 1159 2956 
Q 1341 3275 1631 3429 
Q 1922 3584 2338 3584 
Q 2397 3584 2469 3576 
Q 2541 3569 2628 3553 
L 2631 2963 
z
" transform="scale(0.015625)"/>
      <path id="DejaVuSans-5b" d="M 550 4863 
L 1875 4863 
L 1875 4416 
L 1125 4416 
L 1125 -397 
L 1875 -397 
L 1875 -844 
L 550 -844 
L 550 4863 
z
" transform="scale(0.015625)"/>
      <path id="DejaVuSans-5d" d="M 1947 4863 
L 1947 -844 
L 622 -844 
L 622 -397 
L 1369 -397 
L 1369 4416 
L 622 4416 
L 622 4863 
L 1947 4863 
z
" transform="scale(0.015625)"/>
      <path id="DejaVuSans-2208" d="M 1072 1959 
Q 1094 1728 1291 1353 
Q 1522 919 1959 675 
Q 2388 438 2850 434 
L 5028 434 
L 5028 -63 
L 2850 -63 
Q 2250 -63 1695 246 
Q 1141 556 844 1106 
Q 547 1656 547 2241 
Q 547 2819 844 3369 
Q 1141 3919 1695 4231 
Q 2250 4544 2850 4544 
L 5028 4544 
L 5028 4047 
L 2850 4047 
Q 2388 4044 1959 3803 
Q 1525 3556 1291 3125 
Q 1091 2750 1063 2459 
L 5028 2459 
L 5028 1959 
L 1072 1959 
z
" transform="scale(0.015625)"/>
      <path id="DejaVuSans-38" d="M 2034 2216 
Q 1584 2216 1326 1975 
Q 1069 1734 1069 1313 
Q 1069 891 1326 650 
Q 1584 409 2034 409 
Q 2484 409 2743 651 
Q 3003 894 3003 1313 
Q 3003 1734 2745 1975 
Q 2488 2216 2034 2216 
z
M 1403 2484 
Q 997 2584 770 2862 
Q 544 3141 544 3541 
Q 544 4100 942 4425 
Q 1341 4750 2034 4750 
Q 2731 4750 3128 4425 
Q 3525 4100 3525 3541 
Q 3525 3141 3298 2862 
Q 3072 2584 2669 2484 
Q 3125 2378 3379 2068 
Q 3634 1759 3634 1313 
Q 3634 634 3220 271 
Q 2806 -91 2034 -91 
Q 1263 -91 848 271 
Q 434 634 434 1313 
Q 434 1759 690 2068 
Q 947 2378 1403 2484 
z
M 1172 3481 
Q 1172 3119 1398 2916 
Q 1625 2713 2034 2713 
Q 2441 2713 2670 2916 
Q 2900 3119 2900 3481 
Q 2900 3844 2670 4047 
Q 2441 4250 2034 4250 
Q 1625 4250 1398 4047 
Q 1172 3844 1172 3481 
z
" transform="scale(0.015625)"/>
      <path id="DejaVuSans-47" d="M 3809 666 
L 3809 1919 
L 2778 1919 
L 2778 2438 
L 4434 2438 
L 4434 434 
Q 4069 175 3628 42 
Q 3188 -91 2688 -91 
Q 1594 -91 976 548 
Q 359 1188 359 2328 
Q 359 3472 976 4111 
Q 1594 4750 2688 4750 
Q 3144 4750 3555 4637 
Q 3966 4525 4313 4306 
L 4313 3634 
Q 3963 3931 3569 4081 
Q 3175 4231 2741 4231 
Q 1884 4231 1454 3753 
Q 1025 3275 1025 2328 
Q 1025 1384 1454 906 
Q 1884 428 2741 428 
Q 3075 428 3337 486 
Q 3600 544 3809 666 
z
" transform="scale(0.015625)"/>
      <path id="DejaVuSans-50" d="M 1259 4147 
L 1259 2394 
L 2053 2394 
Q 2494 2394 2734 2622 
Q 2975 2850 2975 3272 
Q 2975 3691 2734 3919 
Q 2494 4147 2053 4147 
L 1259 4147 
z
M 628 4666 
L 2053 4666 
Q 2838 4666 3239 4311 
Q 3641 3956 3641 3272 
Q 3641 2581 3239 2228 
Q 2838 1875 2053 1875 
L 1259 1875 
L 1259 0 
L 628 0 
L 628 4666 
z
" transform="scale(0.015625)"/>
      <path id="DejaVuSans-55" d="M 556 4666 
L 1191 4666 
L 1191 1831 
Q 1191 1081 1462 751 
Q 1734 422 2344 422 
Q 2950 422 3222 751 
Q 3494 1081 3494 1831 
L 3494 4666 
L 4128 4666 
L 4128 1753 
Q 4128 841 3676 375 
Q 3225 -91 2344 -91 
Q 1459 -91 1007 375 
Q 556 841 556 1753 
L 556 4666 
z
" transform="scale(0.015625)"/>
     </defs>
     <use xlink:href="#DejaVuSans-31"/>
     <use xlink:href="#DejaVuSans-30" x="63.623047"/>
     <use xlink:href="#DejaVuSans-30" x="127.246094"/>
     <use xlink:href="#DejaVuSans-30" x="190.869141"/>
     <use xlink:href="#DejaVuSans-30" x="254.492188"/>
     <use xlink:href="#DejaVuSans-20" x="318.115234"/>
     <use xlink:href="#DejaVuSans-73" x="349.902344"/>
     <use xlink:href="#DejaVuSans-61" x="402.001953"/>
     <use xlink:href="#DejaVuSans-6d" x="463.28125"/>
     <use xlink:href="#DejaVuSans-70" x="560.693359"/>
     <use xlink:href="#DejaVuSans-6c" x="624.169922"/>
     <use xlink:href="#DejaVuSans-65" x="651.953125"/>
     <use xlink:href="#DejaVuSans-73" x="713.476562"/>
     <use xlink:href="#DejaVuSans-20" x="765.576172"/>
     <use xlink:href="#DejaVuSans-28" x="797.363281"/>
     <use xlink:href="#DejaVuSans-3bc" x="836.376953"/>
     <use xlink:href="#DejaVuSans-3d" x="900"/>
     <use xlink:href="#DejaVuSans-32" x="983.789062"/>
     <use xlink:href="#DejaVuSans-2e" x="1047.412109"/>
     <use xlink:href="#DejaVuSans-39" x="1079.199219"/>
     <use xlink:href="#DejaVuSans-39" x="1142.822266"/>
     <use xlink:href="#DejaVuSans-36" x="1206.445312"/>
     <use xlink:href="#DejaVuSans-2c" x="1270.068359"/>
     <use xlink:href="#DejaVuSans-20" x="1301.855469"/>
     <use xlink:href="#DejaVuSans-3c3" x="1333.642578"/>
     <use xlink:href="#DejaVuSans-3d" x="1397.021484"/>
     <use xlink:href="#DejaVuSans-30" x="1480.810547"/>
     <use xlink:href="#DejaVuSans-2e" x="1544.433594"/>
     <use xlink:href="#DejaVuSans-39" x="1576.220703"/>
     <use xlink:href="#DejaVuSans-39" x="1639.84375"/>
     <use xlink:href="#DejaVuSans-37" x="1703.466797"/>
     <use xlink:href="#DejaVuSans-29" x="1767.089844"/>
     <use xlink:href="#DejaVuSans-20" x="1806.103516"/>
     <use xlink:href="#DejaVuSans-6f" x="1837.890625"/>
     <use xlink:href="#DejaVuSans-66" x="1899.072266"/>
     <use xlink:href="#DejaVuSans-20" x="1934.277344"/>
     <use xlink:href="#DejaVuSans-54" x="1966.064453"/>
     <use xlink:href="#DejaVuSans-65" x="2010.148438"/>
     <use xlink:href="#DejaVuSans-6e" x="2071.671875"/>
     <use xlink:href="#DejaVuSans-73" x="2135.050781"/>
     <use xlink:href="#DejaVuSans-6f" x="2187.150391"/>
     <use xlink:href="#DejaVuSans-72" x="2248.332031"/>
     <use xlink:href="#DejaVuSans-5b" x="2289.445312"/>
     <use xlink:href="#DejaVuSans-31" x="2328.458984"/>
     <use xlink:href="#DejaVuSans-30" x="2392.082031"/>
     <use xlink:href="#DejaVuSans-30" x="2455.705078"/>
     <use xlink:href="#DejaVuSans-30" x="2519.328125"/>
     <use xlink:href="#DejaVuSans-30" x="2582.951172"/>
     <use xlink:href="#DejaVuSans-30" x="2646.574219"/>
     <use xlink:href="#DejaVuSans-5d" x="2710.197266"/>
     <use xlink:href="#DejaVuSans-20" x="2749.210938"/>
     <use xlink:href="#DejaVuSans-78" x="2780.998047"/>
     <use xlink:href="#DejaVuSans-2208" x="2840.177734"/>
     <use xlink:href="#DejaVuSans-5b" x="2927.287109"/>
     <use xlink:href="#DejaVuSans-2d" x="2966.300781"/>
     <use xlink:href="#DejaVuSans-31" x="3002.384766"/>
     <use xlink:href="#DejaVuSans-2e" x="3066.007812"/>
     <use xlink:href="#DejaVuSans-33" x="3097.794922"/>
     <use xlink:href="#DejaVuSans-34" x="3161.417969"/>
     <use xlink:href="#DejaVuSans-30" x="3225.041016"/>
     <use xlink:href="#DejaVuSans-2c" x="3288.664062"/>
     <use xlink:href="#DejaVuSans-20" x="3320.451172"/>
     <use xlink:href="#DejaVuSans-37" x="3352.238281"/>
     <use xlink:href="#DejaVuSans-2e" x="3415.861328"/>
     <use xlink:href="#DejaVuSans-31" x="3447.648438"/>
     <use xlink:href="#DejaVuSans-35" x="3511.271484"/>
     <use xlink:href="#DejaVuSans-31" x="3574.894531"/>
     <use xlink:href="#DejaVuSans-5d" x="3638.517578"/>
     <use xlink:href="#DejaVuSans-20" x="3677.53125"/>
     <use xlink:href="#DejaVuSans-3bc" x="3709.318359"/>
     <use xlink:href="#DejaVuSans-3d" x="3772.941406"/>
     <use xlink:href="#DejaVuSans-32" x="3856.730469"/>
     <use xlink:href="#DejaVuSans-2e" x="3920.353516"/>
     <use xlink:href="#DejaVuSans-39" x="3952.140625"/>
     <use xlink:href="#DejaVuSans-39" x="4015.763672"/>
     <use xlink:href="#DejaVuSans-38" x="4079.386719"/>
     <use xlink:href="#DejaVuSans-20" x="4143.009766"/>
     <use xlink:href="#DejaVuSans-3c3" x="4174.796875"/>
     <use xlink:href="#DejaVuSans-3d" x="4238.175781"/>
     <use xlink:href="#DejaVuSans-30" x="4321.964844"/>
     <use xlink:href="#DejaVuSans-2e" x="4385.587891"/>
     <use xlink:href="#DejaVuSans-39" x="4417.375"/>
     <use xlink:href="#DejaVuSans-39" x="4480.998047"/>
     <use xlink:href="#DejaVuSans-39" x="4544.621094"/>
     <use xlink:href="#DejaVuSans-20" x="4608.244141"/>
     <use xlink:href="#DejaVuSans-47" x="4640.03125"/>
     <use xlink:href="#DejaVuSans-50" x="4717.521484"/>
     <use xlink:href="#DejaVuSans-55" x="4777.824219"/>
    </g>
   </g>
   <g id="patch_9">
    <path d="M 93.146642 128.528148 
L 101.671749 128.528148 
L 101.671749 128.310748 
L 93.146642 128.310748 
z
" clip-path="url(#p4e7146a8b3)" style="fill: #00bfff"/>
   </g>
   <g id="patch_10">
    <path d="M 101.671749 128.528148 
L 110.196859 128.528148 
L 110.196859 128.093349 
L 101.671749 128.093349 
z
" clip-path="url(#p4e7146a8b3)" style="fill: #00bfff"/>
   </g>
   <g id="patch_11">
    <path d="M 110.196859 128.528148 
L 118.721969 128.528148 
L 118.721969 128.093349 
L 110.196859 128.093349 
z
" clip-path="url(#p4e7146a8b3)" style="fill: #00bfff"/>
   </g>
   <g id="patch_12">
    <path d="M 118.721969 128.528148 
L 127.247076 128.528148 
L 127.247076 128.528148 
L 118.721969 128.528148 
z
" clip-path="url(#p4e7146a8b3)" style="fill: #00bfff"/>
   </g>
   <g id="patch_13">
    <path d="M 127.247076 128.528148 
L 135.772184 128.528148 
L 135.772184 128.310748 
L 127.247076 128.310748 
z
" clip-path="url(#p4e7146a8b3)" style="fill: #00bfff"/>
   </g>
   <g id="patch_14">
    <path d="M 135.772184 128.528148 
L 144.297292 128.528148 
L 144.297292 127.006351 
L 135.772184 127.006351 
z
" clip-path="url(#p4e7146a8b3)" style="fill: #00bfff"/>
   </g>
   <g id="patch_15">
    <path d="M 144.297292 128.528148 
L 152.822401 128.528148 
L 152.822401 127.65855 
L 144.297292 127.65855 
z
" clip-path="url(#p4e7146a8b3)" style="fill: #00bfff"/>
   </g>
   <g id="patch_16">
    <path d="M 152.822401 128.528148 
L 161.347509 128.528148 
L 161.347509 127.65855 
L 152.822401 127.65855 
z
" clip-path="url(#p4e7146a8b3)" style="fill: #00bfff"/>
   </g>
   <g id="patch_17">
    <path d="M 161.347509 128.528148 
L 169.872618 128.528148 
L 169.872618 126.571552 
L 161.347509 126.571552 
z
" clip-path="url(#p4e7146a8b3)" style="fill: #00bfff"/>
   </g>
   <g id="patch_18">
    <path d="M 169.872618 128.528148 
L 178.397726 128.528148 
L 178.397726 126.571552 
L 169.872618 126.571552 
z
" clip-path="url(#p4e7146a8b3)" style="fill: #00bfff"/>
   </g>
   <g id="patch_19">
    <path d="M 178.397726 128.528148 
L 186.922836 128.528148 
L 186.922836 126.354153 
L 178.397726 126.354153 
z
" clip-path="url(#p4e7146a8b3)" style="fill: #00bfff"/>
   </g>
   <g id="patch_20">
    <path d="M 186.922836 128.528148 
L 195.447943 128.528148 
L 195.447943 126.354153 
L 186.922836 126.354153 
z
" clip-path="url(#p4e7146a8b3)" style="fill: #00bfff"/>
   </g>
   <g id="patch_21">
    <path d="M 195.447943 128.528148 
L 203.97305 128.528148 
L 203.97305 124.832356 
L 195.447943 124.832356 
z
" clip-path="url(#p4e7146a8b3)" style="fill: #00bfff"/>
   </g>
   <g id="patch_22">
    <path d="M 203.97305 128.528148 
L 212.498162 128.528148 
L 212.498162 125.267157 
L 203.97305 125.267157 
z
" clip-path="url(#p4e7146a8b3)" style="fill: #00bfff"/>
   </g>
   <g id="patch_23">
    <path d="M 212.498162 128.528148 
L 221.023269 128.528148 
L 221.023269 123.962758 
L 212.498162 123.962758 
z
" clip-path="url(#p4e7146a8b3)" style="fill: #00bfff"/>
   </g>
   <g id="patch_24">
    <path d="M 221.023269 128.528148 
L 229.548376 128.528148 
L 229.548376 123.31056 
L 221.023269 123.31056 
z
" clip-path="url(#p4e7146a8b3)" style="fill: #00bfff"/>
   </g>
   <g id="patch_25">
    <path d="M 229.548376 128.528148 
L 238.073483 128.528148 
L 238.073483 121.136565 
L 229.548376 121.136565 
z
" clip-path="url(#p4e7146a8b3)" style="fill: #00bfff"/>
   </g>
   <g id="patch_26">
    <path d="M 238.073483 128.528148 
L 246.598596 128.528148 
L 246.598596 119.397375 
L 238.073483 119.397375 
z
" clip-path="url(#p4e7146a8b3)" style="fill: #00bfff"/>
   </g>
   <g id="patch_27">
    <path d="M 246.598596 128.528148 
L 255.123697 128.528148 
L 255.123697 117.223366 
L 246.598596 117.223366 
z
" clip-path="url(#p4e7146a8b3)" style="fill: #00bfff"/>
   </g>
   <g id="patch_28">
    <path d="M 255.123697 128.528148 
L 263.648816 128.528148 
L 263.648816 118.745184 
L 255.123697 118.745184 
z
" clip-path="url(#p4e7146a8b3)" style="fill: #00bfff"/>
   </g>
   <g id="patch_29">
    <path d="M 263.648816 128.528148 
L 272.173923 128.528148 
L 272.173923 113.962382 
L 263.648816 113.962382 
z
" clip-path="url(#p4e7146a8b3)" style="fill: #00bfff"/>
   </g>
   <g id="patch_30">
    <path d="M 272.173923 128.528148 
L 280.69903 128.528148 
L 280.69903 112.223186 
L 272.173923 112.223186 
z
" clip-path="url(#p4e7146a8b3)" style="fill: #00bfff"/>
   </g>
   <g id="patch_31">
    <path d="M 280.69903 128.528148 
L 289.224137 128.528148 
L 289.224137 107.222997 
L 280.69903 107.222997 
z
" clip-path="url(#p4e7146a8b3)" style="fill: #00bfff"/>
   </g>
   <g id="patch_32">
    <path d="M 289.224137 128.528148 
L 297.749244 128.528148 
L 297.749244 101.57061 
L 289.224137 101.57061 
z
" clip-path="url(#p4e7146a8b3)" style="fill: #00bfff"/>
   </g>
   <g id="patch_33">
    <path d="M 297.749244 128.528148 
L 306.274351 128.528148 
L 306.274351 100.918412 
L 297.749244 100.918412 
z
" clip-path="url(#p4e7146a8b3)" style="fill: #00bfff"/>
   </g>
   <g id="patch_34">
    <path d="M 306.274351 128.528148 
L 314.799457 128.528148 
L 314.799457 99.614015 
L 306.274351 99.614015 
z
" clip-path="url(#p4e7146a8b3)" style="fill: #00bfff"/>
   </g>
   <g id="patch_35">
    <path d="M 314.799457 128.528148 
L 323.324564 128.528148 
L 323.324564 100.483613 
L 314.799457 100.483613 
z
" clip-path="url(#p4e7146a8b3)" style="fill: #00bfff"/>
   </g>
   <g id="patch_36">
    <path d="M 323.324564 128.528148 
L 331.849683 128.528148 
L 331.849683 89.396292 
L 323.324564 89.396292 
z
" clip-path="url(#p4e7146a8b3)" style="fill: #00bfff"/>
   </g>
   <g id="patch_37">
    <path d="M 331.849683 128.528148 
L 340.37479 128.528148 
L 340.37479 86.352646 
L 331.849683 86.352646 
z
" clip-path="url(#p4e7146a8b3)" style="fill: #00bfff"/>
   </g>
   <g id="patch_38">
    <path d="M 340.37479 128.528148 
L 348.899897 128.528148 
L 348.899897 88.96144 
L 340.37479 88.96144 
z
" clip-path="url(#p4e7146a8b3)" style="fill: #00bfff"/>
   </g>
   <g id="patch_39">
    <path d="M 348.899897 128.528148 
L 357.424992 128.528148 
L 357.424992 86.787388 
L 348.899897 86.787388 
z
" clip-path="url(#p4e7146a8b3)" style="fill: #00bfff"/>
   </g>
   <g id="patch_40">
    <path d="M 357.424992 128.528148 
L 365.950111 128.528148 
L 365.950111 80.265526 
L 357.424992 80.265526 
z
" clip-path="url(#p4e7146a8b3)" style="fill: #00bfff"/>
   </g>
   <g id="patch_41">
    <path d="M 365.950111 128.528148 
L 374.475229 128.528148 
L 374.475229 67.004175 
L 365.950111 67.004175 
z
" clip-path="url(#p4e7146a8b3)" style="fill: #00bfff"/>
   </g>
   <g id="patch_42">
    <path d="M 374.475229 128.528148 
L 383.000325 128.528148 
L 383.000325 70.265004 
L 374.475229 70.265004 
z
" clip-path="url(#p4e7146a8b3)" style="fill: #00bfff"/>
   </g>
   <g id="patch_43">
    <path d="M 383.000325 128.528148 
L 391.525443 128.528148 
L 391.525443 68.30857 
L 383.000325 68.30857 
z
" clip-path="url(#p4e7146a8b3)" style="fill: #00bfff"/>
   </g>
   <g id="patch_44">
    <path d="M 391.525443 128.528148 
L 400.050539 128.528148 
L 400.050539 62.656012 
L 391.525443 62.656012 
z
" clip-path="url(#p4e7146a8b3)" style="fill: #00bfff"/>
   </g>
   <g id="patch_45">
    <path d="M 400.050539 128.528148 
L 408.575657 128.528148 
L 408.575657 60.0474 
L 400.050539 60.0474 
z
" clip-path="url(#p4e7146a8b3)" style="fill: #00bfff"/>
   </g>
   <g id="patch_46">
    <path d="M 408.575657 128.528148 
L 417.100752 128.528148 
L 417.100752 50.916423 
L 408.575657 50.916423 
z
" clip-path="url(#p4e7146a8b3)" style="fill: #00bfff"/>
   </g>
   <g id="patch_47">
    <path d="M 417.100752 128.528148 
L 425.625871 128.528148 
L 425.625871 54.395021 
L 417.100752 54.395021 
z
" clip-path="url(#p4e7146a8b3)" style="fill: #00bfff"/>
   </g>
   <g id="patch_48">
    <path d="M 425.625871 128.528148 
L 434.15099 128.528148 
L 434.15099 51.568832 
L 425.625871 51.568832 
z
" clip-path="url(#p4e7146a8b3)" style="fill: #00bfff"/>
   </g>
   <g id="patch_49">
    <path d="M 434.15099 128.528148 
L 442.676085 128.528148 
L 442.676085 49.177225 
L 434.15099 49.177225 
z
" clip-path="url(#p4e7146a8b3)" style="fill: #00bfff"/>
   </g>
   <g id="patch_50">
    <path d="M 442.676085 128.528148 
L 451.201203 128.528148 
L 451.201203 50.699235 
L 442.676085 50.699235 
z
" clip-path="url(#p4e7146a8b3)" style="fill: #00bfff"/>
   </g>
   <g id="patch_51">
    <path d="M 451.201203 128.528148 
L 459.726299 128.528148 
L 459.726299 55.047019 
L 451.201203 55.047019 
z
" clip-path="url(#p4e7146a8b3)" style="fill: #00bfff"/>
   </g>
   <g id="patch_52">
    <path d="M 459.726299 128.528148 
L 468.251417 128.528148 
L 468.251417 50.699235 
L 459.726299 50.699235 
z
" clip-path="url(#p4e7146a8b3)" style="fill: #00bfff"/>
   </g>
   <g id="patch_53">
    <path d="M 468.251417 128.528148 
L 476.776513 128.528148 
L 476.776513 60.264614 
L 468.251417 60.264614 
z
" clip-path="url(#p4e7146a8b3)" style="fill: #00bfff"/>
   </g>
   <g id="patch_54">
    <path d="M 476.776513 128.528148 
L 485.301631 128.528148 
L 485.301631 60.482199 
L 476.776513 60.482199 
z
" clip-path="url(#p4e7146a8b3)" style="fill: #00bfff"/>
   </g>
   <g id="patch_55">
    <path d="M 485.301631 128.528148 
L 493.826727 128.528148 
L 493.826727 58.090616 
L 485.301631 58.090616 
z
" clip-path="url(#p4e7146a8b3)" style="fill: #00bfff"/>
   </g>
   <g id="patch_56">
    <path d="M 493.826727 128.528148 
L 502.351845 128.528148 
L 502.351845 57.003811 
L 493.826727 57.003811 
z
" clip-path="url(#p4e7146a8b3)" style="fill: #00bfff"/>
   </g>
   <g id="patch_57">
    <path d="M 502.351845 128.528148 
L 510.876964 128.528148 
L 510.876964 67.004175 
L 502.351845 67.004175 
z
" clip-path="url(#p4e7146a8b3)" style="fill: #00bfff"/>
   </g>
   <g id="patch_58">
    <path d="M 510.876964 128.528148 
L 519.402059 128.528148 
L 519.402059 71.352003 
L 510.876964 71.352003 
z
" clip-path="url(#p4e7146a8b3)" style="fill: #00bfff"/>
   </g>
   <g id="patch_59">
    <path d="M 519.402059 128.528148 
L 527.927178 128.528148 
L 527.927178 69.612965 
L 519.402059 69.612965 
z
" clip-path="url(#p4e7146a8b3)" style="fill: #00bfff"/>
   </g>
   <g id="patch_60">
    <path d="M 527.927178 128.528148 
L 536.452273 128.528148 
L 536.452273 76.786998 
L 527.927178 76.786998 
z
" clip-path="url(#p4e7146a8b3)" style="fill: #00bfff"/>
   </g>
   <g id="patch_61">
    <path d="M 536.452273 128.528148 
L 544.977368 128.528148 
L 544.977368 76.352198 
L 536.452273 76.352198 
z
" clip-path="url(#p4e7146a8b3)" style="fill: #00bfff"/>
   </g>
   <g id="patch_62">
    <path d="M 544.977368 128.528148 
L 553.502487 128.528148 
L 553.502487 83.743913 
L 544.977368 83.743913 
z
" clip-path="url(#p4e7146a8b3)" style="fill: #00bfff"/>
   </g>
   <g id="patch_63">
    <path d="M 553.502487 128.528148 
L 562.027605 128.528148 
L 562.027605 86.352703 
L 553.502487 86.352703 
z
" clip-path="url(#p4e7146a8b3)" style="fill: #00bfff"/>
   </g>
   <g id="patch_64">
    <path d="M 562.027605 128.528148 
L 570.552724 128.528148 
L 570.552724 98.309659 
L 562.027605 98.309659 
z
" clip-path="url(#p4e7146a8b3)" style="fill: #00bfff"/>
   </g>
   <g id="patch_65">
    <path d="M 570.552724 128.528148 
L 579.077842 128.528148 
L 579.077842 97.657461 
L 570.552724 97.657461 
z
" clip-path="url(#p4e7146a8b3)" style="fill: #00bfff"/>
   </g>
   <g id="patch_66">
    <path d="M 579.077842 128.528148 
L 587.602915 128.528148 
L 587.602915 105.266307 
L 579.077842 105.266307 
z
" clip-path="url(#p4e7146a8b3)" style="fill: #00bfff"/>
   </g>
   <g id="patch_67">
    <path d="M 587.602915 128.528148 
L 596.128033 128.528148 
L 596.128033 102.005445 
L 587.602915 102.005445 
z
" clip-path="url(#p4e7146a8b3)" style="fill: #00bfff"/>
   </g>
   <g id="patch_68">
    <path d="M 596.128033 128.528148 
L 604.653152 128.528148 
L 604.653152 109.831817 
L 596.128033 109.831817 
z
" clip-path="url(#p4e7146a8b3)" style="fill: #00bfff"/>
   </g>
   <g id="patch_69">
    <path d="M 604.653152 128.528148 
L 613.17827 128.528148 
L 613.17827 108.092623 
L 604.653152 108.092623 
z
" clip-path="url(#p4e7146a8b3)" style="fill: #00bfff"/>
   </g>
   <g id="patch_70">
    <path d="M 613.17827 128.528148 
L 621.703342 128.528148 
L 621.703342 113.744922 
L 613.17827 113.744922 
z
" clip-path="url(#p4e7146a8b3)" style="fill: #00bfff"/>
   </g>
   <g id="patch_71">
    <path d="M 621.703342 128.528148 
L 630.228461 128.528148 
L 630.228461 115.701595 
L 621.703342 115.701595 
z
" clip-path="url(#p4e7146a8b3)" style="fill: #00bfff"/>
   </g>
   <g id="patch_72">
    <path d="M 630.228461 128.528148 
L 638.75358 128.528148 
L 638.75358 116.353793 
L 630.228461 116.353793 
z
" clip-path="url(#p4e7146a8b3)" style="fill: #00bfff"/>
   </g>
   <g id="patch_73">
    <path d="M 638.75358 128.528148 
L 647.278698 128.528148 
L 647.278698 120.484377 
L 638.75358 120.484377 
z
" clip-path="url(#p4e7146a8b3)" style="fill: #00bfff"/>
   </g>
   <g id="patch_74">
    <path d="M 647.278698 128.528148 
L 655.803817 128.528148 
L 655.803817 122.658369 
L 647.278698 122.658369 
z
" clip-path="url(#p4e7146a8b3)" style="fill: #00bfff"/>
   </g>
   <g id="patch_75">
    <path d="M 655.803817 128.528148 
L 664.328889 128.528148 
L 664.328889 123.310539 
L 655.803817 123.310539 
z
" clip-path="url(#p4e7146a8b3)" style="fill: #00bfff"/>
   </g>
   <g id="patch_76">
    <path d="M 664.328889 128.528148 
L 672.854007 128.528148 
L 672.854007 123.527966 
L 664.328889 123.527966 
z
" clip-path="url(#p4e7146a8b3)" style="fill: #00bfff"/>
   </g>
   <g id="patch_77">
    <path d="M 672.854007 128.528148 
L 681.379126 128.528148 
L 681.379126 124.832361 
L 672.854007 124.832361 
z
" clip-path="url(#p4e7146a8b3)" style="fill: #00bfff"/>
   </g>
   <g id="patch_78">
    <path d="M 681.379126 128.528148 
L 689.904244 128.528148 
L 689.904244 124.180164 
L 681.379126 124.180164 
z
" clip-path="url(#p4e7146a8b3)" style="fill: #00bfff"/>
   </g>
   <g id="patch_79">
    <path d="M 689.904244 128.528148 
L 698.429317 128.528148 
L 698.429317 126.788945 
L 689.904244 126.788945 
z
" clip-path="url(#p4e7146a8b3)" style="fill: #00bfff"/>
   </g>
   <g id="patch_80">
    <path d="M 698.429317 128.528148 
L 706.954435 128.528148 
L 706.954435 126.571555 
L 698.429317 126.571555 
z
" clip-path="url(#p4e7146a8b3)" style="fill: #00bfff"/>
   </g>
   <g id="patch_81">
    <path d="M 706.954435 128.528148 
L 715.479554 128.528148 
L 715.479554 126.136756 
L 706.954435 126.136756 
z
" clip-path="url(#p4e7146a8b3)" style="fill: #00bfff"/>
   </g>
   <g id="patch_82">
    <path d="M 715.479554 128.528148 
L 724.004672 128.528148 
L 724.004672 127.006353 
L 715.479554 127.006353 
z
" clip-path="url(#p4e7146a8b3)" style="fill: #00bfff"/>
   </g>
   <g id="patch_83">
    <path d="M 724.004672 128.528148 
L 732.529791 128.528148 
L 732.529791 127.441152 
L 724.004672 127.441152 
z
" clip-path="url(#p4e7146a8b3)" style="fill: #00bfff"/>
   </g>
   <g id="patch_84">
    <path d="M 732.529791 128.528148 
L 741.054863 128.528148 
L 741.054863 127.875946 
L 732.529791 127.875946 
z
" clip-path="url(#p4e7146a8b3)" style="fill: #00bfff"/>
   </g>
   <g id="patch_85">
    <path d="M 741.054863 128.528148 
L 749.579982 128.528148 
L 749.579982 128.310748 
L 741.054863 128.310748 
z
" clip-path="url(#p4e7146a8b3)" style="fill: #00bfff"/>
   </g>
   <g id="patch_86">
    <path d="M 749.579982 128.528148 
L 758.1051 128.528148 
L 758.1051 128.528148 
L 749.579982 128.528148 
z
" clip-path="url(#p4e7146a8b3)" style="fill: #00bfff"/>
   </g>
   <g id="patch_87">
    <path d="M 758.1051 128.528148 
L 766.630219 128.528148 
L 766.630219 127.441152 
L 758.1051 127.441152 
z
" clip-path="url(#p4e7146a8b3)" style="fill: #00bfff"/>
   </g>
   <g id="patch_88">
    <path d="M 766.630219 128.528148 
L 775.155337 128.528148 
L 775.155337 128.310748 
L 766.630219 128.310748 
z
" clip-path="url(#p4e7146a8b3)" style="fill: #00bfff"/>
   </g>
   <g id="patch_89">
    <path d="M 775.155337 128.528148 
L 783.680409 128.528148 
L 783.680409 128.093347 
L 775.155337 128.093347 
z
" clip-path="url(#p4e7146a8b3)" style="fill: #00bfff"/>
   </g>
   <g id="patch_90">
    <path d="M 783.680409 128.528148 
L 792.205528 128.528148 
L 792.205528 128.528148 
L 783.680409 128.528148 
z
" clip-path="url(#p4e7146a8b3)" style="fill: #00bfff"/>
   </g>
   <g id="patch_91">
    <path d="M 792.205528 128.528148 
L 800.730646 128.528148 
L 800.730646 128.310748 
L 792.205528 128.310748 
z
" clip-path="url(#p4e7146a8b3)" style="fill: #00bfff"/>
   </g>
   <g id="patch_92">
    <path d="M 800.730646 128.528148 
L 809.255765 128.528148 
L 809.255765 128.310748 
L 800.730646 128.310748 
z
" clip-path="url(#p4e7146a8b3)" style="fill: #00bfff"/>
   </g>
   <g id="patch_93">
    <path d="M 809.255765 128.528148 
L 817.780837 128.528148 
L 817.780837 128.528148 
L 809.255765 128.528148 
z
" clip-path="url(#p4e7146a8b3)" style="fill: #00bfff"/>
   </g>
   <g id="patch_94">
    <path d="M 817.780837 128.528148 
L 826.305956 128.528148 
L 826.305956 128.528148 
L 817.780837 128.528148 
z
" clip-path="url(#p4e7146a8b3)" style="fill: #00bfff"/>
   </g>
   <g id="patch_95">
    <path d="M 826.305956 128.528148 
L 834.831074 128.528148 
L 834.831074 128.310748 
L 826.305956 128.310748 
z
" clip-path="url(#p4e7146a8b3)" style="fill: #00bfff"/>
   </g>
   <g id="line2d_21">
    <path d="M 7.2 128.52536 
L 15.866662 128.523986 
L 24.533324 128.521983 
L 33.199985 128.519091 
L 41.866647 128.514948 
L 50.533309 128.509063 
L 59.199971 128.500775 
L 67.866633 128.489201 
L 76.533295 128.473176 
L 85.199956 128.451176 
L 93.866618 128.421232 
L 102.53328 128.380825 
L 111.199942 128.326767 
L 119.866604 128.255072 
L 128.533265 128.160808 
L 137.199927 128.037951 
L 145.866589 127.879227 
L 154.533251 127.675967 
L 163.199913 127.417977 
L 171.866575 127.093431 
L 180.533236 126.688811 
L 189.199898 126.188908 
L 197.86656 125.576893 
L 206.533222 124.834486 
L 215.199884 123.942233 
L 223.866545 122.879906 
L 232.533207 121.627037 
L 241.199869 120.163586 
L 249.866531 118.470745 
L 258.533193 116.531858 
L 267.199855 114.333438 
L 275.866516 111.866249 
L 284.533178 109.126396 
L 293.19984 106.116394 
L 301.866502 102.846127 
L 310.533164 99.333651 
L 319.199825 95.605766 
L 327.866487 91.698299 
L 336.533149 87.656035 
L 345.199811 83.532275 
L 353.866473 79.387969 
L 362.533135 75.290455 
L 371.199796 71.311795 
L 379.866458 67.526781 
L 388.53312 64.010666 
L 397.199782 60.836715 
L 405.866444 58.073695 
L 414.533105 55.7834 
L 423.199767 54.018367 
L 431.866429 52.819868 
L 440.533091 52.216309 
L 449.199753 52.222109 
L 457.866415 52.837129 
L 466.533076 54.046677 
L 475.199738 55.822092 
L 483.8664 58.121871 
L 492.533062 60.893285 
L 501.199724 64.074381 
L 509.866385 67.596286 
L 518.533047 71.385674 
L 527.199709 75.367278 
L 535.866371 79.466338 
L 544.533033 83.610862 
L 553.199695 87.733622 
L 561.866356 91.7738 
L 570.533018 95.678251 
L 579.19968 99.402355 
L 587.866342 102.910459 
L 596.533004 106.175932 
L 605.199665 109.180879 
L 613.866327 111.915564 
L 622.532989 114.377602 
L 631.199651 116.570999 
L 639.866313 118.505084 
L 648.532975 120.193412 
L 657.199636 121.65269 
L 665.866298 122.901757 
L 674.53296 123.960669 
L 683.199622 124.849894 
L 691.866284 125.589651 
L 700.532945 126.199374 
L 709.199607 126.697319 
L 717.866269 127.100284 
L 726.532931 127.423448 
L 735.199593 127.680296 
L 743.866255 127.882621 
L 752.532916 128.040589 
L 761.199578 128.162841 
L 769.86624 128.256624 
L 778.532902 128.327942 
L 787.199564 128.381707 
L 795.866225 128.421888 
L 804.532887 128.45166 
L 813.199549 128.47353 
L 821.866211 128.489458 
L 830.532873 128.50096 
L 839.199535 128.509195 
L 847.866196 128.515041 
L 856.532858 128.519156 
L 865.19952 128.522029 
" clip-path="url(#p4e7146a8b3)" style="fill: none; stroke: #1f77b4; stroke-width: 1.5; stroke-linecap: square"/>
   </g>
   <g id="text_13">
    <g id="patch_96">
     <path d="M 49.446122 38.307963 
L 65.753935 38.307963 
Q 68.753935 38.307963 68.753935 35.307963 
L 68.753935 25.629838 
Q 68.753935 22.629838 65.753935 22.629838 
L 49.446122 22.629838 
Q 46.446122 22.629838 46.446122 25.629838 
L 46.446122 35.307963 
Q 46.446122 38.307963 49.446122 38.307963 
z
" style="fill: #ffffff"/>
    </g>
    <!-- -4σ -->
    <g transform="translate(49.446122 33.228276) scale(0.1 -0.1)">
     <use xlink:href="#DejaVuSans-2d"/>
     <use xlink:href="#DejaVuSans-34" x="36.083984"/>
     <use xlink:href="#DejaVuSans-3c3" x="99.707031"/>
    </g>
   </g>
   <g id="text_14">
    <g id="patch_97">
     <path d="M 146.242179 38.307963 
L 162.549991 38.307963 
Q 165.549991 38.307963 165.549991 35.307963 
L 165.549991 25.629838 
Q 165.549991 22.629838 162.549991 22.629838 
L 146.242179 22.629838 
Q 143.242179 22.629838 143.242179 25.629838 
L 143.242179 35.307963 
Q 143.242179 38.307963 146.242179 38.307963 
z
" style="fill: #ffffff"/>
    </g>
    <!-- -3σ -->
    <g transform="translate(146.242179 33.228276) scale(0.1 -0.1)">
     <use xlink:href="#DejaVuSans-2d"/>
     <use xlink:href="#DejaVuSans-33" x="36.083984"/>
     <use xlink:href="#DejaVuSans-3c3" x="99.707031"/>
    </g>
   </g>
   <g id="text_15">
    <g id="patch_98">
     <path d="M 243.038235 38.307963 
L 259.346048 38.307963 
Q 262.346048 38.307963 262.346048 35.307963 
L 262.346048 25.629838 
Q 262.346048 22.629838 259.346048 22.629838 
L 243.038235 22.629838 
Q 240.038235 22.629838 240.038235 25.629838 
L 240.038235 35.307963 
Q 240.038235 38.307963 243.038235 38.307963 
z
" style="fill: #ffffff"/>
    </g>
    <!-- -2σ -->
    <g transform="translate(243.038235 33.228276) scale(0.1 -0.1)">
     <use xlink:href="#DejaVuSans-2d"/>
     <use xlink:href="#DejaVuSans-32" x="36.083984"/>
     <use xlink:href="#DejaVuSans-3c3" x="99.707031"/>
    </g>
   </g>
   <g id="text_16">
    <g id="patch_99">
     <path d="M 343.015542 38.307963 
L 352.960854 38.307963 
Q 355.960854 38.307963 355.960854 35.307963 
L 355.960854 25.629838 
Q 355.960854 22.629838 352.960854 22.629838 
L 343.015542 22.629838 
Q 340.015542 22.629838 340.015542 25.629838 
L 340.015542 35.307963 
Q 340.015542 38.307963 343.015542 38.307963 
z
" style="fill: #ffffff"/>
    </g>
    <!-- -σ -->
    <g transform="translate(343.015542 33.228276) scale(0.1 -0.1)">
     <use xlink:href="#DejaVuSans-2d"/>
     <use xlink:href="#DejaVuSans-3c3" x="36.083984"/>
    </g>
   </g>
   <g id="text_17">
    <g id="patch_100">
     <path d="M 441.105349 38.307963 
L 448.463161 38.307963 
Q 451.463161 38.307963 451.463161 35.307963 
L 451.463161 25.629838 
Q 451.463161 22.629838 448.463161 22.629838 
L 441.105349 22.629838 
Q 438.105349 22.629838 438.105349 25.629838 
L 438.105349 35.307963 
Q 438.105349 38.307963 441.105349 38.307963 
z
" style="fill: #ffffff"/>
    </g>
    <!-- μ -->
    <g transform="translate(441.105349 33.217338) scale(0.1 -0.1)">
     <defs>
      <path id="DejaVuSans-Bold-3bc" d="M 544 -1338 
L 544 3500 
L 1672 3500 
L 1672 1466 
Q 1672 1103 1828 926 
Q 1984 750 2303 750 
Q 2625 750 2781 926 
Q 2938 1103 2938 1466 
L 2938 3500 
L 4063 3500 
L 4063 1159 
Q 4063 938 4114 850 
Q 4166 763 4288 763 
Q 4344 763 4395 778 
Q 4447 794 4506 831 
L 4506 50 
Q 4341 -22 4195 -56 
Q 4050 -91 3909 -91 
Q 3631 -91 3454 26 
Q 3278 144 3169 403 
Q 3022 156 2811 32 
Q 2600 -91 2322 -91 
Q 2091 -91 1928 -17 
Q 1766 56 1672 206 
L 1672 -1338 
L 544 -1338 
z
" transform="scale(0.015625)"/>
     </defs>
     <use xlink:href="#DejaVuSans-Bold-3bc"/>
    </g>
   </g>
   <g id="text_18">
    <g id="patch_101">
     <path d="M 534.221718 38.307963 
L 548.938905 38.307963 
Q 551.938905 38.307963 551.938905 35.307963 
L 551.938905 25.629838 
Q 551.938905 22.629838 548.938905 22.629838 
L 534.221718 22.629838 
Q 531.221718 22.629838 531.221718 25.629838 
L 531.221718 35.307963 
Q 531.221718 38.307963 534.221718 38.307963 
z
" style="fill: #ffffff"/>
    </g>
    <!-- +σ -->
    <g transform="translate(534.221718 33.228276) scale(0.1 -0.1)">
     <defs>
      <path id="DejaVuSans-2b" d="M 2944 4013 
L 2944 2272 
L 4684 2272 
L 4684 1741 
L 2944 1741 
L 2944 0 
L 2419 0 
L 2419 1741 
L 678 1741 
L 678 2272 
L 2419 2272 
L 2419 4013 
L 2944 4013 
z
" transform="scale(0.015625)"/>
     </defs>
     <use xlink:href="#DejaVuSans-2b"/>
     <use xlink:href="#DejaVuSans-3c3" x="83.789062"/>
    </g>
   </g>
   <g id="text_19">
    <g id="patch_102">
     <path d="M 627.836524 38.307963 
L 648.916212 38.307963 
Q 651.916212 38.307963 651.916212 35.307963 
L 651.916212 25.629838 
Q 651.916212 22.629838 648.916212 22.629838 
L 627.836524 22.629838 
Q 624.836524 22.629838 624.836524 25.629838 
L 624.836524 35.307963 
Q 624.836524 38.307963 627.836524 38.307963 
z
" style="fill: #ffffff"/>
    </g>
    <!-- +2σ -->
    <g transform="translate(627.836524 33.228276) scale(0.1 -0.1)">
     <use xlink:href="#DejaVuSans-2b"/>
     <use xlink:href="#DejaVuSans-32" x="83.789062"/>
     <use xlink:href="#DejaVuSans-3c3" x="147.412109"/>
    </g>
   </g>
   <g id="text_20">
    <g id="patch_103">
     <path d="M 724.632581 38.307963 
L 745.712268 38.307963 
Q 748.712268 38.307963 748.712268 35.307963 
L 748.712268 25.629838 
Q 748.712268 22.629838 745.712268 22.629838 
L 724.632581 22.629838 
Q 721.632581 22.629838 721.632581 25.629838 
L 721.632581 35.307963 
Q 721.632581 38.307963 724.632581 38.307963 
z
" style="fill: #ffffff"/>
    </g>
    <!-- +3σ -->
    <g transform="translate(724.632581 33.228276) scale(0.1 -0.1)">
     <use xlink:href="#DejaVuSans-2b"/>
     <use xlink:href="#DejaVuSans-33" x="83.789062"/>
     <use xlink:href="#DejaVuSans-3c3" x="147.412109"/>
    </g>
   </g>
   <g id="text_21">
    <g id="patch_104">
     <path d="M 821.428638 38.307963 
L 842.508325 38.307963 
Q 845.508325 38.307963 845.508325 35.307963 
L 845.508325 25.629838 
Q 845.508325 22.629838 842.508325 22.629838 
L 821.428638 22.629838 
Q 818.428638 22.629838 818.428638 25.629838 
L 818.428638 35.307963 
Q 818.428638 38.307963 821.428638 38.307963 
z
" style="fill: #ffffff"/>
    </g>
    <!-- +4σ -->
    <g transform="translate(821.428638 33.228276) scale(0.1 -0.1)">
     <use xlink:href="#DejaVuSans-2b"/>
     <use xlink:href="#DejaVuSans-34" x="83.789062"/>
     <use xlink:href="#DejaVuSans-3c3" x="147.412109"/>
    </g>
   </g>
  </g>
 </g>
 <defs>
  <clipPath id="p4e7146a8b3">
   <rect x="7.2" y="20.214138" width="857.99952" height="108.31401"/>
  </clipPath>
 </defs>
</svg>
