<?xml version="1.0" encoding="utf-8" standalone="no"?>
<!DOCTYPE svg PUBLIC "-//W3C//DTD SVG 1.1//EN"
  "http://www.w3.org/Graphics/SVG/1.1/DTD/svg11.dtd">
<svg xmlns:xlink="http://www.w3.org/1999/xlink" width="872.39952pt" height="152.406273pt" viewBox="0 0 872.39952 152.406273" xmlns="http://www.w3.org/2000/svg" version="1.1">
 <metadata>
  <rdf:RDF xmlns:dc="http://purl.org/dc/elements/1.1/" xmlns:cc="http://creativecommons.org/ns#" xmlns:rdf="http://www.w3.org/1999/02/22-rdf-syntax-ns#">
   <cc:Work>
    <dc:type rdf:resource="http://purl.org/dc/dcmitype/StillImage"/>
    <dc:format>image/svg+xml</dc:format>
    <dc:creator>
     <cc:Agent>
      <dc:title>Matplotlib, https://matplotlib.org/</dc:title>
     </cc:Agent>
    </dc:creator>
   </cc:Work>
  </rdf:RDF>
 </metadata>
 <defs>
  <style type="text/css">*{stroke-linejoin: round; stroke-linecap: butt}</style>
 </defs>
 <g id="figure_1">
  <g id="patch_1">
   <path d="M 0 152.406273 
L 872.39952 152.406273 
L 872.39952 0 
L 0 0 
z
" style="fill: #ffffff"/>
  </g>
  <g id="axes_1">
   <g id="patch_2">
    <path d="M 7.2 128.528148 
L 865.19952 128.528148 
L 865.19952 20.214138 
L 7.2 20.214138 
z
" style="fill: #ffffff"/>
   </g>
   <g id="matplotlib.axis_1">
    <g id="xtick_1">
     <g id="line2d_1">
      <defs>
       <path id="m8f1de1206a" d="M 0 0 
L 0 3.5 
" style="stroke: #000000; stroke-width: 0.8"/>
      </defs>
      <g>
       <use xlink:href="#m8f1de1206a" x="92.060439" y="128.528148" style="stroke: #000000; stroke-width: 0.8"/>
      </g>
     </g>
     <g id="text_1">
      <!-- −6 -->
      <g transform="translate(84.689345 143.126585) scale(0.1 -0.1)">
       <defs>
        <path id="DejaVuSans-2212" d="M 678 2272 
L 4684 2272 
L 4684 1741 
L 678 1741 
L 678 2272 
z
" transform="scale(0.015625)"/>
        <path id="DejaVuSans-36" d="M 2113 2584 
Q 1688 2584 1439 2293 
Q 1191 2003 1191 1497 
Q 1191 994 1439 701 
Q 1688 409 2113 409 
Q 2538 409 2786 701 
Q 3034 994 3034 1497 
Q 3034 2003 2786 2293 
Q 2538 2584 2113 2584 
z
M 3366 4563 
L 3366 3988 
Q 3128 4100 2886 4159 
Q 2644 4219 2406 4219 
Q 1781 4219 1451 3797 
Q 1122 3375 1075 2522 
Q 1259 2794 1537 2939 
Q 1816 3084 2150 3084 
Q 2853 3084 3261 2657 
Q 3669 2231 3669 1497 
Q 3669 778 3244 343 
Q 2819 -91 2113 -91 
Q 1303 -91 875 529 
Q 447 1150 447 2328 
Q 447 3434 972 4092 
Q 1497 4750 2381 4750 
Q 2619 4750 2861 4703 
Q 3103 4656 3366 4563 
z
" transform="scale(0.015625)"/>
       </defs>
       <use xlink:href="#DejaVuSans-2212"/>
       <use xlink:href="#DejaVuSans-36" transform="translate(83.789062 0)"/>
      </g>
     </g>
    </g>
    <g id="xtick_2">
     <g id="line2d_2">
      <g>
       <use xlink:href="#m8f1de1206a" x="206.718567" y="128.528148" style="stroke: #000000; stroke-width: 0.8"/>
      </g>
     </g>
     <g id="text_2">
      <!-- −4 -->
      <g transform="translate(199.347473 143.126585) scale(0.1 -0.1)">
       <defs>
        <path id="DejaVuSans-34" d="M 2419 4116 
L 825 1625 
L 2419 1625 
L 2419 4116 
z
M 2253 4666 
L 3047 4666 
L 3047 1625 
L 3713 1625 
L 3713 1100 
L 3047 1100 
L 3047 0 
L 2419 0 
L 2419 1100 
L 313 1100 
L 313 1709 
L 2253 4666 
z
" transform="scale(0.015625)"/>
       </defs>
       <use xlink:href="#DejaVuSans-2212"/>
       <use xlink:href="#DejaVuSans-34" transform="translate(83.789062 0)"/>
      </g>
     </g>
    </g>
    <g id="xtick_3">
     <g id="line2d_3">
      <g>
       <use xlink:href="#m8f1de1206a" x="321.376696" y="128.528148" style="stroke: #000000; stroke-width: 0.8"/>
      </g>
     </g>
     <g id="text_3">
      <!-- −2 -->
      <g transform="translate(314.005602 143.126585) scale(0.1 -0.1)">
       <defs>
        <path id="DejaVuSans-32" d="M 1228 531 
L 3431 531 
L 3431 0 
L 469 0 
L 469 531 
Q 828 903 1448 1529 
Q 2069 2156 2228 2338 
Q 2531 2678 2651 2914 
Q 2772 3150 2772 3378 
Q 2772 3750 2511 3984 
Q 2250 4219 1831 4219 
Q 1534 4219 1204 4116 
Q 875 4013 500 3803 
L 500 4441 
Q 881 4594 1212 4672 
Q 1544 4750 1819 4750 
Q 2544 4750 2975 4387 
Q 3406 4025 3406 3419 
Q 3406 3131 3298 2873 
Q 3191 2616 2906 2266 
Q 2828 2175 2409 1742 
Q 1991 1309 1228 531 
z
" transform="scale(0.015625)"/>
       </defs>
       <use xlink:href="#DejaVuSans-2212"/>
       <use xlink:href="#DejaVuSans-32" transform="translate(83.789062 0)"/>
      </g>
     </g>
    </g>
    <g id="xtick_4">
     <g id="line2d_4">
      <g>
       <use xlink:href="#m8f1de1206a" x="436.034824" y="128.528148" style="stroke: #000000; stroke-width: 0.8"/>
      </g>
     </g>
     <g id="text_4">
      <!-- 0 -->
      <g transform="translate(432.853574 143.126585) scale(0.1 -0.1)">
       <defs>
        <path id="DejaVuSans-30" d="M 2034 4250 
Q 1547 4250 1301 3770 
Q 1056 3291 1056 2328 
Q 1056 1369 1301 889 
Q 1547 409 2034 409 
Q 2525 409 2770 889 
Q 3016 1369 3016 2328 
Q 3016 3291 2770 3770 
Q 2525 4250 2034 4250 
z
M 2034 4750 
Q 2819 4750 3233 4129 
Q 3647 3509 3647 2328 
Q 3647 1150 3233 529 
Q 2819 -91 2034 -91 
Q 1250 -91 836 529 
Q 422 1150 422 2328 
Q 422 3509 836 4129 
Q 1250 4750 2034 4750 
z
" transform="scale(0.015625)"/>
       </defs>
       <use xlink:href="#DejaVuSans-30"/>
      </g>
     </g>
    </g>
    <g id="xtick_5">
     <g id="line2d_5">
      <g>
       <use xlink:href="#m8f1de1206a" x="550.692953" y="128.528148" style="stroke: #000000; stroke-width: 0.8"/>
      </g>
     </g>
     <g id="text_5">
      <!-- 2 -->
      <g transform="translate(547.511703 143.126585) scale(0.1 -0.1)">
       <use xlink:href="#DejaVuSans-32"/>
      </g>
     </g>
    </g>
    <g id="xtick_6">
     <g id="line2d_6">
      <g>
       <use xlink:href="#m8f1de1206a" x="665.351082" y="128.528148" style="stroke: #000000; stroke-width: 0.8"/>
      </g>
     </g>
     <g id="text_6">
      <!-- 4 -->
      <g transform="translate(662.169832 143.126585) scale(0.1 -0.1)">
       <use xlink:href="#DejaVuSans-34"/>
      </g>
     </g>
    </g>
    <g id="xtick_7">
     <g id="line2d_7">
      <g>
       <use xlink:href="#m8f1de1206a" x="780.00921" y="128.528148" style="stroke: #000000; stroke-width: 0.8"/>
      </g>
     </g>
     <g id="text_7">
      <!-- 6 -->
      <g transform="translate(776.82796 143.126585) scale(0.1 -0.1)">
       <use xlink:href="#DejaVuSans-36"/>
      </g>
     </g>
    </g>
   </g>
   <g id="matplotlib.axis_2"/>
   <g id="line2d_8">
    <path d="M 379.260653 128.528148 
L 379.260653 20.214138 
" clip-path="url(#pe06c225962)" style="fill: none; stroke: #000000; stroke-width: 1.5; stroke-linecap: square"/>
   </g>
   <g id="line2d_9">
    <path d="M 436.481532 128.528148 
L 436.481532 20.214138 
" clip-path="url(#pe06c225962)" style="fill: none; stroke: #000000; stroke-width: 1.5; stroke-linecap: square"/>
   </g>
   <g id="line2d_10">
    <path d="M 493.702405 128.528148 
L 493.702405 20.214138 
" clip-path="url(#pe06c225962)" style="fill: none; stroke: #000000; stroke-width: 1.5; stroke-linecap: square"/>
   </g>
   <g id="line2d_11">
    <path d="M 550.923278 128.528148 
L 550.923278 20.214138 
" clip-path="url(#pe06c225962)" style="fill: none; stroke: #000000; stroke-width: 1.5; stroke-linecap: square"/>
   </g>
   <g id="line2d_12">
    <path d="M 608.144157 128.528148 
L 608.144157 20.214138 
" clip-path="url(#pe06c225962)" style="fill: none; stroke: #000000; stroke-width: 1.5; stroke-linecap: square"/>
   </g>
   <g id="line2d_13">
    <path d="M 665.365023 128.528148 
L 665.365023 20.214138 
" clip-path="url(#pe06c225962)" style="fill: none; stroke: #000000; stroke-width: 1.5; stroke-linecap: square"/>
   </g>
   <g id="line2d_14">
    <path d="M 722.585917 128.528148 
L 722.585917 20.214138 
" clip-path="url(#pe06c225962)" style="fill: none; stroke: #000000; stroke-width: 1.5; stroke-linecap: square"/>
   </g>
   <g id="line2d_15">
    <path d="M 779.806783 128.528148 
L 779.806783 20.214138 
" clip-path="url(#pe06c225962)" style="fill: none; stroke: #000000; stroke-width: 1.5; stroke-linecap: square"/>
   </g>
   <g id="line2d_16">
    <path d="M 837.027676 128.528148 
L 837.027676 20.214138 
" clip-path="url(#pe06c225962)" style="fill: none; stroke: #000000; stroke-width: 1.5; stroke-linecap: square"/>
   </g>
   <g id="line2d_17">
    <path d="M 351.107104 128.528148 
L 351.107104 20.214138 
" clip-path="url(#pe06c225962)" style="fill: none; stroke: #ff0000; stroke-width: 1.5; stroke-linecap: square"/>
   </g>
   <g id="line2d_18">
    <path d="M 848.376012 128.528148 
L 848.376012 20.214138 
" clip-path="url(#pe06c225962)" style="fill: none; stroke: #ff0000; stroke-width: 1.5; stroke-linecap: square"/>
   </g>
   <g id="patch_3">
    <path d="M 7.2 128.528148 
L 7.2 20.214138 
" style="fill: none; stroke: #000000; stroke-width: 0.8; stroke-linejoin: miter; stroke-linecap: square"/>
   </g>
   <g id="patch_4">
    <path d="M 865.19952 128.528148 
L 865.19952 20.214138 
" style="fill: none; stroke: #000000; stroke-width: 0.8; stroke-linejoin: miter; stroke-linecap: square"/>
   </g>
   <g id="patch_5">
    <path d="M 7.2 128.528148 
L 865.19952 128.528148 
" style="fill: none; stroke: #000000; stroke-width: 0.8; stroke-linejoin: miter; stroke-linecap: square"/>
   </g>
   <g id="patch_6">
    <path d="M 7.2 20.214138 
L 865.19952 20.214138 
" style="fill: none; stroke: #000000; stroke-width: 0.8; stroke-linejoin: miter; stroke-linecap: square"/>
   </g>
   <g id="text_8">
    <g id="patch_7">
     <path d="M 350.107104 104.10708 
L 350.107104 44.635205 
Q 350.107104 44.635205 350.107104 44.635205 
L 340.428979 44.635205 
Q 340.428979 44.635205 340.428979 44.635205 
L 340.428979 104.10708 
Q 340.428979 104.10708 340.428979 104.10708 
L 350.107104 104.10708 
Q 350.107104 104.10708 350.107104 104.10708 
z
" style="fill: #ffffff"/>
    </g>
    <!-- min=-1.481 -->
    <g transform="translate(348.027416 104.10708) rotate(-90) scale(0.1 -0.1)">
     <defs>
      <path id="DejaVuSans-6d" d="M 3328 2828 
Q 3544 3216 3844 3400 
Q 4144 3584 4550 3584 
Q 5097 3584 5394 3201 
Q 5691 2819 5691 2113 
L 5691 0 
L 5113 0 
L 5113 2094 
Q 5113 2597 4934 2840 
Q 4756 3084 4391 3084 
Q 3944 3084 3684 2787 
Q 3425 2491 3425 1978 
L 3425 0 
L 2847 0 
L 2847 2094 
Q 2847 2600 2669 2842 
Q 2491 3084 2119 3084 
Q 1678 3084 1418 2786 
Q 1159 2488 1159 1978 
L 1159 0 
L 581 0 
L 581 3500 
L 1159 3500 
L 1159 2956 
Q 1356 3278 1631 3431 
Q 1906 3584 2284 3584 
Q 2666 3584 2933 3390 
Q 3200 3197 3328 2828 
z
" transform="scale(0.015625)"/>
      <path id="DejaVuSans-69" d="M 603 3500 
L 1178 3500 
L 1178 0 
L 603 0 
L 603 3500 
z
M 603 4863 
L 1178 4863 
L 1178 4134 
L 603 4134 
L 603 4863 
z
" transform="scale(0.015625)"/>
      <path id="DejaVuSans-6e" d="M 3513 2113 
L 3513 0 
L 2938 0 
L 2938 2094 
Q 2938 2591 2744 2837 
Q 2550 3084 2163 3084 
Q 1697 3084 1428 2787 
Q 1159 2491 1159 1978 
L 1159 0 
L 581 0 
L 581 3500 
L 1159 3500 
L 1159 2956 
Q 1366 3272 1645 3428 
Q 1925 3584 2291 3584 
Q 2894 3584 3203 3211 
Q 3513 2838 3513 2113 
z
" transform="scale(0.015625)"/>
      <path id="DejaVuSans-3d" d="M 678 2906 
L 4684 2906 
L 4684 2381 
L 678 2381 
L 678 2906 
z
M 678 1631 
L 4684 1631 
L 4684 1100 
L 678 1100 
L 678 1631 
z
" transform="scale(0.015625)"/>
      <path id="DejaVuSans-2d" d="M 313 2009 
L 1997 2009 
L 1997 1497 
L 313 1497 
L 313 2009 
z
" transform="scale(0.015625)"/>
      <path id="DejaVuSans-31" d="M 794 531 
L 1825 531 
L 1825 4091 
L 703 3866 
L 703 4441 
L 1819 4666 
L 2450 4666 
L 2450 531 
L 3481 531 
L 3481 0 
L 794 0 
L 794 531 
z
" transform="scale(0.015625)"/>
      <path id="DejaVuSans-2e" d="M 684 794 
L 1344 794 
L 1344 0 
L 684 0 
L 684 794 
z
" transform="scale(0.015625)"/>
      <path id="DejaVuSans-38" d="M 2034 2216 
Q 1584 2216 1326 1975 
Q 1069 1734 1069 1313 
Q 1069 891 1326 650 
Q 1584 409 2034 409 
Q 2484 409 2743 651 
Q 3003 894 3003 1313 
Q 3003 1734 2745 1975 
Q 2488 2216 2034 2216 
z
M 1403 2484 
Q 997 2584 770 2862 
Q 544 3141 544 3541 
Q 544 4100 942 4425 
Q 1341 4750 2034 4750 
Q 2731 4750 3128 4425 
Q 3525 4100 3525 3541 
Q 3525 3141 3298 2862 
Q 3072 2584 2669 2484 
Q 3125 2378 3379 2068 
Q 3634 1759 3634 1313 
Q 3634 634 3220 271 
Q 2806 -91 2034 -91 
Q 1263 -91 848 271 
Q 434 634 434 1313 
Q 434 1759 690 2068 
Q 947 2378 1403 2484 
z
M 1172 3481 
Q 1172 3119 1398 2916 
Q 1625 2713 2034 2713 
Q 2441 2713 2670 2916 
Q 2900 3119 2900 3481 
Q 2900 3844 2670 4047 
Q 2441 4250 2034 4250 
Q 1625 4250 1398 4047 
Q 1172 3844 1172 3481 
z
" transform="scale(0.015625)"/>
     </defs>
     <use xlink:href="#DejaVuSans-6d"/>
     <use xlink:href="#DejaVuSans-69" transform="translate(97.412109 0)"/>
     <use xlink:href="#DejaVuSans-6e" transform="translate(125.195312 0)"/>
     <use xlink:href="#DejaVuSans-3d" transform="translate(188.574219 0)"/>
     <use xlink:href="#DejaVuSans-2d" transform="translate(272.363281 0)"/>
     <use xlink:href="#DejaVuSans-31" transform="translate(308.447266 0)"/>
     <use xlink:href="#DejaVuSans-2e" transform="translate(372.070312 0)"/>
     <use xlink:href="#DejaVuSans-34" transform="translate(403.857422 0)"/>
     <use xlink:href="#DejaVuSans-38" transform="translate(467.480469 0)"/>
     <use xlink:href="#DejaVuSans-31" transform="translate(531.103516 0)"/>
    </g>
   </g>
   <g id="text_9">
    <g id="patch_8">
     <path d="M 860.054137 103.768799 
L 860.054137 44.973487 
Q 860.054137 44.973487 860.054137 44.973487 
L 850.376012 44.973487 
Q 850.376012 44.973487 850.376012 44.973487 
L 850.376012 103.768799 
Q 850.376012 103.768799 850.376012 103.768799 
L 860.054137 103.768799 
Q 860.054137 103.768799 860.054137 103.768799 
z
" style="fill: #ffffff"/>
    </g>
    <!-- max=7.193 -->
    <g transform="translate(857.97445 103.768799) rotate(-90) scale(0.1 -0.1)">
     <defs>
      <path id="DejaVuSans-61" d="M 2194 1759 
Q 1497 1759 1228 1600 
Q 959 1441 959 1056 
Q 959 750 1161 570 
Q 1363 391 1709 391 
Q 2188 391 2477 730 
Q 2766 1069 2766 1631 
L 2766 1759 
L 2194 1759 
z
M 3341 1997 
L 3341 0 
L 2766 0 
L 2766 531 
Q 2569 213 2275 61 
Q 1981 -91 1556 -91 
Q 1019 -91 701 211 
Q 384 513 384 1019 
Q 384 1609 779 1909 
Q 1175 2209 1959 2209 
L 2766 2209 
L 2766 2266 
Q 2766 2663 2505 2880 
Q 2244 3097 1772 3097 
Q 1472 3097 1187 3025 
Q 903 2953 641 2809 
L 641 3341 
Q 956 3463 1253 3523 
Q 1550 3584 1831 3584 
Q 2591 3584 2966 3190 
Q 3341 2797 3341 1997 
z
" transform="scale(0.015625)"/>
      <path id="DejaVuSans-78" d="M 3513 3500 
L 2247 1797 
L 3578 0 
L 2900 0 
L 1881 1375 
L 863 0 
L 184 0 
L 1544 1831 
L 300 3500 
L 978 3500 
L 1906 2253 
L 2834 3500 
L 3513 3500 
z
" transform="scale(0.015625)"/>
      <path id="DejaVuSans-37" d="M 525 4666 
L 3525 4666 
L 3525 4397 
L 1831 0 
L 1172 0 
L 2766 4134 
L 525 4134 
L 525 4666 
z
" transform="scale(0.015625)"/>
      <path id="DejaVuSans-39" d="M 703 97 
L 703 672 
Q 941 559 1184 500 
Q 1428 441 1663 441 
Q 2288 441 2617 861 
Q 2947 1281 2994 2138 
Q 2813 1869 2534 1725 
Q 2256 1581 1919 1581 
Q 1219 1581 811 2004 
Q 403 2428 403 3163 
Q 403 3881 828 4315 
Q 1253 4750 1959 4750 
Q 2769 4750 3195 4129 
Q 3622 3509 3622 2328 
Q 3622 1225 3098 567 
Q 2575 -91 1691 -91 
Q 1453 -91 1209 -44 
Q 966 3 703 97 
z
M 1959 2075 
Q 2384 2075 2632 2365 
Q 2881 2656 2881 3163 
Q 2881 3666 2632 3958 
Q 2384 4250 1959 4250 
Q 1534 4250 1286 3958 
Q 1038 3666 1038 3163 
Q 1038 2656 1286 2365 
Q 1534 2075 1959 2075 
z
" transform="scale(0.015625)"/>
      <path id="DejaVuSans-33" d="M 2597 2516 
Q 3050 2419 3304 2112 
Q 3559 1806 3559 1356 
Q 3559 666 3084 287 
Q 2609 -91 1734 -91 
Q 1441 -91 1130 -33 
Q 819 25 488 141 
L 488 750 
Q 750 597 1062 519 
Q 1375 441 1716 441 
Q 2309 441 2620 675 
Q 2931 909 2931 1356 
Q 2931 1769 2642 2001 
Q 2353 2234 1838 2234 
L 1294 2234 
L 1294 2753 
L 1863 2753 
Q 2328 2753 2575 2939 
Q 2822 3125 2822 3475 
Q 2822 3834 2567 4026 
Q 2313 4219 1838 4219 
Q 1578 4219 1281 4162 
Q 984 4106 628 3988 
L 628 4550 
Q 988 4650 1302 4700 
Q 1616 4750 1894 4750 
Q 2613 4750 3031 4423 
Q 3450 4097 3450 3541 
Q 3450 3153 3228 2886 
Q 3006 2619 2597 2516 
z
" transform="scale(0.015625)"/>
     </defs>
     <use xlink:href="#DejaVuSans-6d"/>
     <use xlink:href="#DejaVuSans-61" transform="translate(97.412109 0)"/>
     <use xlink:href="#DejaVuSans-78" transform="translate(158.691406 0)"/>
     <use xlink:href="#DejaVuSans-3d" transform="translate(217.871094 0)"/>
     <use xlink:href="#DejaVuSans-37" transform="translate(301.660156 0)"/>
     <use xlink:href="#DejaVuSans-2e" transform="translate(365.283203 0)"/>
     <use xlink:href="#DejaVuSans-31" transform="translate(397.070312 0)"/>
     <use xlink:href="#DejaVuSans-39" transform="translate(460.693359 0)"/>
     <use xlink:href="#DejaVuSans-33" transform="translate(524.316406 0)"/>
    </g>
   </g>
   <g id="text_10">
    <!-- 10000 samples (μ=3.002, σ=0.998) of Tensor[100000] x∈[-1.481, 7.193] μ=3.001 σ=1.002 CPU Realized ADD -->
    <g transform="translate(7.2 14.798437) scale(0.1 -0.1)">
     <defs>
      <path id="DejaVuSans-20" transform="scale(0.015625)"/>
      <path id="DejaVuSans-73" d="M 2834 3397 
L 2834 2853 
Q 2591 2978 2328 3040 
Q 2066 3103 1784 3103 
Q 1356 3103 1142 2972 
Q 928 2841 928 2578 
Q 928 2378 1081 2264 
Q 1234 2150 1697 2047 
L 1894 2003 
Q 2506 1872 2764 1633 
Q 3022 1394 3022 966 
Q 3022 478 2636 193 
Q 2250 -91 1575 -91 
Q 1294 -91 989 -36 
Q 684 19 347 128 
L 347 722 
Q 666 556 975 473 
Q 1284 391 1588 391 
Q 1994 391 2212 530 
Q 2431 669 2431 922 
Q 2431 1156 2273 1281 
Q 2116 1406 1581 1522 
L 1381 1569 
Q 847 1681 609 1914 
Q 372 2147 372 2553 
Q 372 3047 722 3315 
Q 1072 3584 1716 3584 
Q 2034 3584 2315 3537 
Q 2597 3491 2834 3397 
z
" transform="scale(0.015625)"/>
      <path id="DejaVuSans-70" d="M 1159 525 
L 1159 -1331 
L 581 -1331 
L 581 3500 
L 1159 3500 
L 1159 2969 
Q 1341 3281 1617 3432 
Q 1894 3584 2278 3584 
Q 2916 3584 3314 3078 
Q 3713 2572 3713 1747 
Q 3713 922 3314 415 
Q 2916 -91 2278 -91 
Q 1894 -91 1617 61 
Q 1341 213 1159 525 
z
M 3116 1747 
Q 3116 2381 2855 2742 
Q 2594 3103 2138 3103 
Q 1681 3103 1420 2742 
Q 1159 2381 1159 1747 
Q 1159 1113 1420 752 
Q 1681 391 2138 391 
Q 2594 391 2855 752 
Q 3116 1113 3116 1747 
z
" transform="scale(0.015625)"/>
      <path id="DejaVuSans-6c" d="M 603 4863 
L 1178 4863 
L 1178 0 
L 603 0 
L 603 4863 
z
" transform="scale(0.015625)"/>
      <path id="DejaVuSans-65" d="M 3597 1894 
L 3597 1613 
L 953 1613 
Q 991 1019 1311 708 
Q 1631 397 2203 397 
Q 2534 397 2845 478 
Q 3156 559 3463 722 
L 3463 178 
Q 3153 47 2828 -22 
Q 2503 -91 2169 -91 
Q 1331 -91 842 396 
Q 353 884 353 1716 
Q 353 2575 817 3079 
Q 1281 3584 2069 3584 
Q 2775 3584 3186 3129 
Q 3597 2675 3597 1894 
z
M 3022 2063 
Q 3016 2534 2758 2815 
Q 2500 3097 2075 3097 
Q 1594 3097 1305 2825 
Q 1016 2553 972 2059 
L 3022 2063 
z
" transform="scale(0.015625)"/>
      <path id="DejaVuSans-28" d="M 1984 4856 
Q 1566 4138 1362 3434 
Q 1159 2731 1159 2009 
Q 1159 1288 1364 580 
Q 1569 -128 1984 -844 
L 1484 -844 
Q 1016 -109 783 600 
Q 550 1309 550 2009 
Q 550 2706 781 3412 
Q 1013 4119 1484 4856 
L 1984 4856 
z
" transform="scale(0.015625)"/>
      <path id="DejaVuSans-3bc" d="M 544 -1331 
L 544 3500 
L 1119 3500 
L 1119 1325 
Q 1119 872 1334 640 
Q 1550 409 1972 409 
Q 2434 409 2667 671 
Q 2900 934 2900 1459 
L 2900 3500 
L 3475 3500 
L 3475 806 
Q 3475 619 3529 530 
Q 3584 441 3700 441 
Q 3728 441 3778 458 
Q 3828 475 3916 513 
L 3916 50 
Q 3788 -22 3673 -56 
Q 3559 -91 3450 -91 
Q 3234 -91 3106 31 
Q 2978 153 2931 403 
Q 2775 156 2548 32 
Q 2322 -91 2016 -91 
Q 1697 -91 1473 31 
Q 1250 153 1119 397 
L 1119 -1331 
L 544 -1331 
z
" transform="scale(0.015625)"/>
      <path id="DejaVuSans-2c" d="M 750 794 
L 1409 794 
L 1409 256 
L 897 -744 
L 494 -744 
L 750 256 
L 750 794 
z
" transform="scale(0.015625)"/>
      <path id="DejaVuSans-3c3" d="M 1959 3044 
Q 1484 3044 1228 2700 
Q 959 2341 959 1747 
Q 959 1119 1226 758 
Q 1494 397 1959 397 
Q 2419 397 2687 759 
Q 2956 1122 2956 1747 
Q 2956 2319 2688 2700 
Q 2441 3044 1959 3044 
z
M 1959 3500 
L 3869 3500 
L 3869 2925 
L 3225 2925 
Q 3566 2438 3566 1747 
Q 3566 888 3138 400 
Q 2709 -91 1959 -91 
Q 1206 -91 781 400 
Q 353 888 353 1747 
Q 353 2613 781 3097 
Q 1134 3500 1959 3500 
z
" transform="scale(0.015625)"/>
      <path id="DejaVuSans-29" d="M 513 4856 
L 1013 4856 
Q 1481 4119 1714 3412 
Q 1947 2706 1947 2009 
Q 1947 1309 1714 600 
Q 1481 -109 1013 -844 
L 513 -844 
Q 928 -128 1133 580 
Q 1338 1288 1338 2009 
Q 1338 2731 1133 3434 
Q 928 4138 513 4856 
z
" transform="scale(0.015625)"/>
      <path id="DejaVuSans-6f" d="M 1959 3097 
Q 1497 3097 1228 2736 
Q 959 2375 959 1747 
Q 959 1119 1226 758 
Q 1494 397 1959 397 
Q 2419 397 2687 759 
Q 2956 1122 2956 1747 
Q 2956 2369 2687 2733 
Q 2419 3097 1959 3097 
z
M 1959 3584 
Q 2709 3584 3137 3096 
Q 3566 2609 3566 1747 
Q 3566 888 3137 398 
Q 2709 -91 1959 -91 
Q 1206 -91 779 398 
Q 353 888 353 1747 
Q 353 2609 779 3096 
Q 1206 3584 1959 3584 
z
" transform="scale(0.015625)"/>
      <path id="DejaVuSans-66" d="M 2375 4863 
L 2375 4384 
L 1825 4384 
Q 1516 4384 1395 4259 
Q 1275 4134 1275 3809 
L 1275 3500 
L 2222 3500 
L 2222 3053 
L 1275 3053 
L 1275 0 
L 697 0 
L 697 3053 
L 147 3053 
L 147 3500 
L 697 3500 
L 697 3744 
Q 697 4328 969 4595 
Q 1241 4863 1831 4863 
L 2375 4863 
z
" transform="scale(0.015625)"/>
      <path id="DejaVuSans-54" d="M -19 4666 
L 3928 4666 
L 3928 4134 
L 2272 4134 
L 2272 0 
L 1638 0 
L 1638 4134 
L -19 4134 
L -19 4666 
z
" transform="scale(0.015625)"/>
      <path id="DejaVuSans-72" d="M 2631 2963 
Q 2534 3019 2420 3045 
Q 2306 3072 2169 3072 
Q 1681 3072 1420 2755 
Q 1159 2438 1159 1844 
L 1159 0 
L 581 0 
L 581 3500 
L 1159 3500 
L 1159 2956 
Q 1341 3275 1631 3429 
Q 1922 3584 2338 3584 
Q 2397 3584 2469 3576 
Q 2541 3569 2628 3553 
L 2631 2963 
z
" transform="scale(0.015625)"/>
      <path id="DejaVuSans-5b" d="M 550 4863 
L 1875 4863 
L 1875 4416 
L 1125 4416 
L 1125 -397 
L 1875 -397 
L 1875 -844 
L 550 -844 
L 550 4863 
z
" transform="scale(0.015625)"/>
      <path id="DejaVuSans-5d" d="M 1947 4863 
L 1947 -844 
L 622 -844 
L 622 -397 
L 1369 -397 
L 1369 4416 
L 622 4416 
L 622 4863 
L 1947 4863 
z
" transform="scale(0.015625)"/>
      <path id="DejaVuSans-2208" d="M 1072 1959 
Q 1094 1728 1291 1353 
Q 1522 919 1959 675 
Q 2388 438 2850 434 
L 5028 434 
L 5028 -63 
L 2850 -63 
Q 2250 -63 1695 246 
Q 1141 556 844 1106 
Q 547 1656 547 2241 
Q 547 2819 844 3369 
Q 1141 3919 1695 4231 
Q 2250 4544 2850 4544 
L 5028 4544 
L 5028 4047 
L 2850 4047 
Q 2388 4044 1959 3803 
Q 1525 3556 1291 3125 
Q 1091 2750 1063 2459 
L 5028 2459 
L 5028 1959 
L 1072 1959 
z
" transform="scale(0.015625)"/>
      <path id="DejaVuSans-43" d="M 4122 4306 
L 4122 3641 
Q 3803 3938 3442 4084 
Q 3081 4231 2675 4231 
Q 1875 4231 1450 3742 
Q 1025 3253 1025 2328 
Q 1025 1406 1450 917 
Q 1875 428 2675 428 
Q 3081 428 3442 575 
Q 3803 722 4122 1019 
L 4122 359 
Q 3791 134 3420 21 
Q 3050 -91 2638 -91 
Q 1578 -91 968 557 
Q 359 1206 359 2328 
Q 359 3453 968 4101 
Q 1578 4750 2638 4750 
Q 3056 4750 3426 4639 
Q 3797 4528 4122 4306 
z
" transform="scale(0.015625)"/>
      <path id="DejaVuSans-50" d="M 1259 4147 
L 1259 2394 
L 2053 2394 
Q 2494 2394 2734 2622 
Q 2975 2850 2975 3272 
Q 2975 3691 2734 3919 
Q 2494 4147 2053 4147 
L 1259 4147 
z
M 628 4666 
L 2053 4666 
Q 2838 4666 3239 4311 
Q 3641 3956 3641 3272 
Q 3641 2581 3239 2228 
Q 2838 1875 2053 1875 
L 1259 1875 
L 1259 0 
L 628 0 
L 628 4666 
z
" transform="scale(0.015625)"/>
      <path id="DejaVuSans-55" d="M 556 4666 
L 1191 4666 
L 1191 1831 
Q 1191 1081 1462 751 
Q 1734 422 2344 422 
Q 2950 422 3222 751 
Q 3494 1081 3494 1831 
L 3494 4666 
L 4128 4666 
L 4128 1753 
Q 4128 841 3676 375 
Q 3225 -91 2344 -91 
Q 1459 -91 1007 375 
Q 556 841 556 1753 
L 556 4666 
z
" transform="scale(0.015625)"/>
      <path id="DejaVuSans-52" d="M 2841 2188 
Q 3044 2119 3236 1894 
Q 3428 1669 3622 1275 
L 4263 0 
L 3584 0 
L 2988 1197 
Q 2756 1666 2539 1819 
Q 2322 1972 1947 1972 
L 1259 1972 
L 1259 0 
L 628 0 
L 628 4666 
L 2053 4666 
Q 2853 4666 3247 4331 
Q 3641 3997 3641 3322 
Q 3641 2881 3436 2590 
Q 3231 2300 2841 2188 
z
M 1259 4147 
L 1259 2491 
L 2053 2491 
Q 2509 2491 2742 2702 
Q 2975 2913 2975 3322 
Q 2975 3731 2742 3939 
Q 2509 4147 2053 4147 
L 1259 4147 
z
" transform="scale(0.015625)"/>
      <path id="DejaVuSans-7a" d="M 353 3500 
L 3084 3500 
L 3084 2975 
L 922 459 
L 3084 459 
L 3084 0 
L 275 0 
L 275 525 
L 2438 3041 
L 353 3041 
L 353 3500 
z
" transform="scale(0.015625)"/>
      <path id="DejaVuSans-64" d="M 2906 2969 
L 2906 4863 
L 3481 4863 
L 3481 0 
L 2906 0 
L 2906 525 
Q 2725 213 2448 61 
Q 2172 -91 1784 -91 
Q 1150 -91 751 415 
Q 353 922 353 1747 
Q 353 2572 751 3078 
Q 1150 3584 1784 3584 
Q 2172 3584 2448 3432 
Q 2725 3281 2906 2969 
z
M 947 1747 
Q 947 1113 1208 752 
Q 1469 391 1925 391 
Q 2381 391 2643 752 
Q 2906 1113 2906 1747 
Q 2906 2381 2643 2742 
Q 2381 3103 1925 3103 
Q 1469 3103 1208 2742 
Q 947 2381 947 1747 
z
" transform="scale(0.015625)"/>
      <path id="DejaVuSans-41" d="M 2188 4044 
L 1331 1722 
L 3047 1722 
L 2188 4044 
z
M 1831 4666 
L 2547 4666 
L 4325 0 
L 3669 0 
L 3244 1197 
L 1141 1197 
L 716 0 
L 50 0 
L 1831 4666 
z
" transform="scale(0.015625)"/>
      <path id="DejaVuSans-44" d="M 1259 4147 
L 1259 519 
L 2022 519 
Q 2988 519 3436 956 
Q 3884 1394 3884 2338 
Q 3884 3275 3436 3711 
Q 2988 4147 2022 4147 
L 1259 4147 
z
M 628 4666 
L 1925 4666 
Q 3281 4666 3915 4102 
Q 4550 3538 4550 2338 
Q 4550 1131 3912 565 
Q 3275 0 1925 0 
L 628 0 
L 628 4666 
z
" transform="scale(0.015625)"/>
     </defs>
     <use xlink:href="#DejaVuSans-31"/>
     <use xlink:href="#DejaVuSans-30" transform="translate(63.623047 0)"/>
     <use xlink:href="#DejaVuSans-30" transform="translate(127.246094 0)"/>
     <use xlink:href="#DejaVuSans-30" transform="translate(190.869141 0)"/>
     <use xlink:href="#DejaVuSans-30" transform="translate(254.492188 0)"/>
     <use xlink:href="#DejaVuSans-20" transform="translate(318.115234 0)"/>
     <use xlink:href="#DejaVuSans-73" transform="translate(349.902344 0)"/>
     <use xlink:href="#DejaVuSans-61" transform="translate(402.001953 0)"/>
     <use xlink:href="#DejaVuSans-6d" transform="translate(463.28125 0)"/>
     <use xlink:href="#DejaVuSans-70" transform="translate(560.693359 0)"/>
     <use xlink:href="#DejaVuSans-6c" transform="translate(624.169922 0)"/>
     <use xlink:href="#DejaVuSans-65" transform="translate(651.953125 0)"/>
     <use xlink:href="#DejaVuSans-73" transform="translate(713.476562 0)"/>
     <use xlink:href="#DejaVuSans-20" transform="translate(765.576172 0)"/>
     <use xlink:href="#DejaVuSans-28" transform="translate(797.363281 0)"/>
     <use xlink:href="#DejaVuSans-3bc" transform="translate(836.376953 0)"/>
     <use xlink:href="#DejaVuSans-3d" transform="translate(900 0)"/>
     <use xlink:href="#DejaVuSans-33" transform="translate(983.789062 0)"/>
     <use xlink:href="#DejaVuSans-2e" transform="translate(1047.412109 0)"/>
     <use xlink:href="#DejaVuSans-30" transform="translate(1079.199219 0)"/>
     <use xlink:href="#DejaVuSans-30" transform="translate(1142.822266 0)"/>
     <use xlink:href="#DejaVuSans-32" transform="translate(1206.445312 0)"/>
     <use xlink:href="#DejaVuSans-2c" transform="translate(1270.068359 0)"/>
     <use xlink:href="#DejaVuSans-20" transform="translate(1301.855469 0)"/>
     <use xlink:href="#DejaVuSans-3c3" transform="translate(1333.642578 0)"/>
     <use xlink:href="#DejaVuSans-3d" transform="translate(1397.021484 0)"/>
     <use xlink:href="#DejaVuSans-30" transform="translate(1480.810547 0)"/>
     <use xlink:href="#DejaVuSans-2e" transform="translate(1544.433594 0)"/>
     <use xlink:href="#DejaVuSans-39" transform="translate(1576.220703 0)"/>
     <use xlink:href="#DejaVuSans-39" transform="translate(1639.84375 0)"/>
     <use xlink:href="#DejaVuSans-38" transform="translate(1703.466797 0)"/>
     <use xlink:href="#DejaVuSans-29" transform="translate(1767.089844 0)"/>
     <use xlink:href="#DejaVuSans-20" transform="translate(1806.103516 0)"/>
     <use xlink:href="#DejaVuSans-6f" transform="translate(1837.890625 0)"/>
     <use xlink:href="#DejaVuSans-66" transform="translate(1899.072266 0)"/>
     <use xlink:href="#DejaVuSans-20" transform="translate(1934.277344 0)"/>
     <use xlink:href="#DejaVuSans-54" transform="translate(1966.064453 0)"/>
     <use xlink:href="#DejaVuSans-65" transform="translate(2010.148438 0)"/>
     <use xlink:href="#DejaVuSans-6e" transform="translate(2071.671875 0)"/>
     <use xlink:href="#DejaVuSans-73" transform="translate(2135.050781 0)"/>
     <use xlink:href="#DejaVuSans-6f" transform="translate(2187.150391 0)"/>
     <use xlink:href="#DejaVuSans-72" transform="translate(2248.332031 0)"/>
     <use xlink:href="#DejaVuSans-5b" transform="translate(2289.445312 0)"/>
     <use xlink:href="#DejaVuSans-31" transform="translate(2328.458984 0)"/>
     <use xlink:href="#DejaVuSans-30" transform="translate(2392.082031 0)"/>
     <use xlink:href="#DejaVuSans-30" transform="translate(2455.705078 0)"/>
     <use xlink:href="#DejaVuSans-30" transform="translate(2519.328125 0)"/>
     <use xlink:href="#DejaVuSans-30" transform="translate(2582.951172 0)"/>
     <use xlink:href="#DejaVuSans-30" transform="translate(2646.574219 0)"/>
     <use xlink:href="#DejaVuSans-5d" transform="translate(2710.197266 0)"/>
     <use xlink:href="#DejaVuSans-20" transform="translate(2749.210938 0)"/>
     <use xlink:href="#DejaVuSans-78" transform="translate(2780.998047 0)"/>
     <use xlink:href="#DejaVuSans-2208" transform="translate(2840.177734 0)"/>
     <use xlink:href="#DejaVuSans-5b" transform="translate(2927.287109 0)"/>
     <use xlink:href="#DejaVuSans-2d" transform="translate(2966.300781 0)"/>
     <use xlink:href="#DejaVuSans-31" transform="translate(3002.384766 0)"/>
     <use xlink:href="#DejaVuSans-2e" transform="translate(3066.007812 0)"/>
     <use xlink:href="#DejaVuSans-34" transform="translate(3097.794922 0)"/>
     <use xlink:href="#DejaVuSans-38" transform="translate(3161.417969 0)"/>
     <use xlink:href="#DejaVuSans-31" transform="translate(3225.041016 0)"/>
     <use xlink:href="#DejaVuSans-2c" transform="translate(3288.664062 0)"/>
     <use xlink:href="#DejaVuSans-20" transform="translate(3320.451172 0)"/>
     <use xlink:href="#DejaVuSans-37" transform="translate(3352.238281 0)"/>
     <use xlink:href="#DejaVuSans-2e" transform="translate(3415.861328 0)"/>
     <use xlink:href="#DejaVuSans-31" transform="translate(3447.648438 0)"/>
     <use xlink:href="#DejaVuSans-39" transform="translate(3511.271484 0)"/>
     <use xlink:href="#DejaVuSans-33" transform="translate(3574.894531 0)"/>
     <use xlink:href="#DejaVuSans-5d" transform="translate(3638.517578 0)"/>
     <use xlink:href="#DejaVuSans-20" transform="translate(3677.53125 0)"/>
     <use xlink:href="#DejaVuSans-3bc" transform="translate(3709.318359 0)"/>
     <use xlink:href="#DejaVuSans-3d" transform="translate(3772.941406 0)"/>
     <use xlink:href="#DejaVuSans-33" transform="translate(3856.730469 0)"/>
     <use xlink:href="#DejaVuSans-2e" transform="translate(3920.353516 0)"/>
     <use xlink:href="#DejaVuSans-30" transform="translate(3952.140625 0)"/>
     <use xlink:href="#DejaVuSans-30" transform="translate(4015.763672 0)"/>
     <use xlink:href="#DejaVuSans-31" transform="translate(4079.386719 0)"/>
     <use xlink:href="#DejaVuSans-20" transform="translate(4143.009766 0)"/>
     <use xlink:href="#DejaVuSans-3c3" transform="translate(4174.796875 0)"/>
     <use xlink:href="#DejaVuSans-3d" transform="translate(4238.175781 0)"/>
     <use xlink:href="#DejaVuSans-31" transform="translate(4321.964844 0)"/>
     <use xlink:href="#DejaVuSans-2e" transform="translate(4385.587891 0)"/>
     <use xlink:href="#DejaVuSans-30" transform="translate(4417.375 0)"/>
     <use xlink:href="#DejaVuSans-30" transform="translate(4480.998047 0)"/>
     <use xlink:href="#DejaVuSans-32" transform="translate(4544.621094 0)"/>
     <use xlink:href="#DejaVuSans-20" transform="translate(4608.244141 0)"/>
     <use xlink:href="#DejaVuSans-43" transform="translate(4640.03125 0)"/>
     <use xlink:href="#DejaVuSans-50" transform="translate(4709.855469 0)"/>
     <use xlink:href="#DejaVuSans-55" transform="translate(4770.158203 0)"/>
     <use xlink:href="#DejaVuSans-20" transform="translate(4843.351562 0)"/>
     <use xlink:href="#DejaVuSans-52" transform="translate(4875.138672 0)"/>
     <use xlink:href="#DejaVuSans-65" transform="translate(4940.121094 0)"/>
     <use xlink:href="#DejaVuSans-61" transform="translate(5001.644531 0)"/>
     <use xlink:href="#DejaVuSans-6c" transform="translate(5062.923828 0)"/>
     <use xlink:href="#DejaVuSans-69" transform="translate(5090.707031 0)"/>
     <use xlink:href="#DejaVuSans-7a" transform="translate(5118.490234 0)"/>
     <use xlink:href="#DejaVuSans-65" transform="translate(5170.980469 0)"/>
     <use xlink:href="#DejaVuSans-64" transform="translate(5232.503906 0)"/>
     <use xlink:href="#DejaVuSans-20" transform="translate(5295.980469 0)"/>
     <use xlink:href="#DejaVuSans-41" transform="translate(5327.767578 0)"/>
     <use xlink:href="#DejaVuSans-44" transform="translate(5396.175781 0)"/>
     <use xlink:href="#DejaVuSans-44" transform="translate(5473.177734 0)"/>
    </g>
   </g>
   <g id="patch_9">
    <path d="M 374.147658 128.528148 
L 382.674413 128.528148 
L 382.674413 128.400369 
L 374.147658 128.400369 
z
" clip-path="url(#pe06c225962)" style="fill: #00bfff"/>
   </g>
   <g id="patch_10">
    <path d="M 382.674413 128.528148 
L 391.201169 128.528148 
L 391.201169 128.400369 
L 382.674413 128.400369 
z
" clip-path="url(#pe06c225962)" style="fill: #00bfff"/>
   </g>
   <g id="patch_11">
    <path d="M 391.201169 128.528148 
L 399.727924 128.528148 
L 399.727924 128.528148 
L 391.201169 128.528148 
z
" clip-path="url(#pe06c225962)" style="fill: #00bfff"/>
   </g>
   <g id="patch_12">
    <path d="M 399.727924 128.528148 
L 408.25468 128.528148 
L 408.25468 128.528148 
L 399.727924 128.528148 
z
" clip-path="url(#pe06c225962)" style="fill: #00bfff"/>
   </g>
   <g id="patch_13">
    <path d="M 408.25468 128.528148 
L 416.781436 128.528148 
L 416.781436 128.144811 
L 408.25468 128.144811 
z
" clip-path="url(#pe06c225962)" style="fill: #00bfff"/>
   </g>
   <g id="patch_14">
    <path d="M 416.781436 128.528148 
L 425.308191 128.528148 
L 425.308191 127.889253 
L 416.781436 127.889253 
z
" clip-path="url(#pe06c225962)" style="fill: #00bfff"/>
   </g>
   <g id="patch_15">
    <path d="M 425.308191 128.528148 
L 433.834943 128.528148 
L 433.834943 128.400369 
L 425.308191 128.400369 
z
" clip-path="url(#pe06c225962)" style="fill: #00bfff"/>
   </g>
   <g id="patch_16">
    <path d="M 433.834943 128.528148 
L 442.361703 128.528148 
L 442.361703 127.633696 
L 433.834943 127.633696 
z
" clip-path="url(#pe06c225962)" style="fill: #00bfff"/>
   </g>
   <g id="patch_17">
    <path d="M 442.361703 128.528148 
L 450.888462 128.528148 
L 450.888462 128.017032 
L 442.361703 128.017032 
z
" clip-path="url(#pe06c225962)" style="fill: #00bfff"/>
   </g>
   <g id="patch_18">
    <path d="M 450.888462 128.528148 
L 459.415214 128.528148 
L 459.415214 126.228126 
L 450.888462 126.228126 
z
" clip-path="url(#pe06c225962)" style="fill: #00bfff"/>
   </g>
   <g id="patch_19">
    <path d="M 459.415214 128.528148 
L 467.941966 128.528148 
L 467.941966 125.84479 
L 459.415214 125.84479 
z
" clip-path="url(#pe06c225962)" style="fill: #00bfff"/>
   </g>
   <g id="patch_20">
    <path d="M 467.941966 128.528148 
L 476.468725 128.528148 
L 476.468725 125.589234 
L 467.941966 125.589234 
z
" clip-path="url(#pe06c225962)" style="fill: #00bfff"/>
   </g>
   <g id="patch_21">
    <path d="M 476.468725 128.528148 
L 484.995484 128.528148 
L 484.995484 120.989195 
L 476.468725 120.989195 
z
" clip-path="url(#pe06c225962)" style="fill: #00bfff"/>
   </g>
   <g id="patch_22">
    <path d="M 484.995484 128.528148 
L 493.522229 128.528148 
L 493.522229 118.944718 
L 484.995484 118.944718 
z
" clip-path="url(#pe06c225962)" style="fill: #00bfff"/>
   </g>
   <g id="patch_23">
    <path d="M 493.522229 128.528148 
L 502.048988 128.528148 
L 502.048988 117.411387 
L 493.522229 117.411387 
z
" clip-path="url(#pe06c225962)" style="fill: #00bfff"/>
   </g>
   <g id="patch_24">
    <path d="M 502.048988 128.528148 
L 510.575747 128.528148 
L 510.575747 112.939127 
L 502.048988 112.939127 
z
" clip-path="url(#pe06c225962)" style="fill: #00bfff"/>
   </g>
   <g id="patch_25">
    <path d="M 510.575747 128.528148 
L 519.102506 128.528148 
L 519.102506 107.572416 
L 510.575747 107.572416 
z
" clip-path="url(#pe06c225962)" style="fill: #00bfff"/>
   </g>
   <g id="patch_26">
    <path d="M 519.102506 128.528148 
L 527.629265 128.528148 
L 527.629265 103.100156 
L 519.102506 103.100156 
z
" clip-path="url(#pe06c225962)" style="fill: #00bfff"/>
   </g>
   <g id="patch_27">
    <path d="M 527.629265 128.528148 
L 536.156011 128.528148 
L 536.156011 96.583383 
L 527.629265 96.583383 
z
" clip-path="url(#pe06c225962)" style="fill: #00bfff"/>
   </g>
   <g id="patch_28">
    <path d="M 536.156011 128.528148 
L 544.68277 128.528148 
L 544.68277 88.661145 
L 536.156011 88.661145 
z
" clip-path="url(#pe06c225962)" style="fill: #00bfff"/>
   </g>
   <g id="patch_29">
    <path d="M 544.68277 128.528148 
L 553.209536 128.528148 
L 553.209536 82.272239 
L 544.68277 82.272239 
z
" clip-path="url(#pe06c225962)" style="fill: #00bfff"/>
   </g>
   <g id="patch_30">
    <path d="M 553.209536 128.528148 
L 561.736267 128.528148 
L 561.736267 83.294288 
L 553.209536 83.294288 
z
" clip-path="url(#pe06c225962)" style="fill: #00bfff"/>
   </g>
   <g id="patch_31">
    <path d="M 561.736267 128.528148 
L 570.263026 128.528148 
L 570.263026 70.133211 
L 561.736267 70.133211 
z
" clip-path="url(#pe06c225962)" style="fill: #00bfff"/>
   </g>
   <g id="patch_32">
    <path d="M 570.263026 128.528148 
L 578.789785 128.528148 
L 578.789785 63.233153 
L 570.263026 63.233153 
z
" clip-path="url(#pe06c225962)" style="fill: #00bfff"/>
   </g>
   <g id="patch_33">
    <path d="M 578.789785 128.528148 
L 587.316545 128.528148 
L 587.316545 55.310864 
L 578.789785 55.310864 
z
" clip-path="url(#pe06c225962)" style="fill: #00bfff"/>
   </g>
   <g id="patch_34">
    <path d="M 587.316545 128.528148 
L 595.843304 128.528148 
L 595.843304 57.227547 
L 587.316545 57.227547 
z
" clip-path="url(#pe06c225962)" style="fill: #00bfff"/>
   </g>
   <g id="patch_35">
    <path d="M 595.843304 128.528148 
L 604.370063 128.528148 
L 604.370063 52.116393 
L 595.843304 52.116393 
z
" clip-path="url(#pe06c225962)" style="fill: #00bfff"/>
   </g>
   <g id="patch_36">
    <path d="M 604.370063 128.528148 
L 612.896794 128.528148 
L 612.896794 49.177225 
L 604.370063 49.177225 
z
" clip-path="url(#pe06c225962)" style="fill: #00bfff"/>
   </g>
   <g id="patch_37">
    <path d="M 612.896794 128.528148 
L 621.423553 128.528148 
L 621.423553 55.82198 
L 612.896794 55.82198 
z
" clip-path="url(#pe06c225962)" style="fill: #00bfff"/>
   </g>
   <g id="patch_38">
    <path d="M 621.423553 128.528148 
L 629.950312 128.528148 
L 629.950312 59.272009 
L 621.423553 59.272009 
z
" clip-path="url(#pe06c225962)" style="fill: #00bfff"/>
   </g>
   <g id="patch_39">
    <path d="M 629.950312 128.528148 
L 638.477071 128.528148 
L 638.477071 57.099768 
L 629.950312 57.099768 
z
" clip-path="url(#pe06c225962)" style="fill: #00bfff"/>
   </g>
   <g id="patch_40">
    <path d="M 638.477071 128.528148 
L 647.00383 128.528148 
L 647.00383 66.93874 
L 638.477071 66.93874 
z
" clip-path="url(#pe06c225962)" style="fill: #00bfff"/>
   </g>
   <g id="patch_41">
    <path d="M 647.00383 128.528148 
L 655.530589 128.528148 
L 655.530589 73.327683 
L 647.00383 73.327683 
z
" clip-path="url(#pe06c225962)" style="fill: #00bfff"/>
   </g>
   <g id="patch_42">
    <path d="M 655.530589 128.528148 
L 664.057348 128.528148 
L 664.057348 83.166654 
L 655.530589 83.166654 
z
" clip-path="url(#pe06c225962)" style="fill: #00bfff"/>
   </g>
   <g id="patch_43">
    <path d="M 664.057348 128.528148 
L 672.584107 128.528148 
L 672.584107 85.338895 
L 664.057348 85.338895 
z
" clip-path="url(#pe06c225962)" style="fill: #00bfff"/>
   </g>
   <g id="patch_44">
    <path d="M 672.584107 128.528148 
L 681.110867 128.528148 
L 681.110867 91.983395 
L 672.584107 91.983395 
z
" clip-path="url(#pe06c225962)" style="fill: #00bfff"/>
   </g>
   <g id="patch_45">
    <path d="M 681.110867 128.528148 
L 689.637598 128.528148 
L 689.637598 95.04998 
L 681.110867 95.04998 
z
" clip-path="url(#pe06c225962)" style="fill: #00bfff"/>
   </g>
   <g id="patch_46">
    <path d="M 689.637598 128.528148 
L 698.164357 128.528148 
L 698.164357 100.800136 
L 689.637598 100.800136 
z
" clip-path="url(#pe06c225962)" style="fill: #00bfff"/>
   </g>
   <g id="patch_47">
    <path d="M 698.164357 128.528148 
L 706.691116 128.528148 
L 706.691116 108.21131 
L 698.164357 108.21131 
z
" clip-path="url(#pe06c225962)" style="fill: #00bfff"/>
   </g>
   <g id="patch_48">
    <path d="M 706.691116 128.528148 
L 715.217875 128.528148 
L 715.217875 114.85581 
L 706.691116 114.85581 
z
" clip-path="url(#pe06c225962)" style="fill: #00bfff"/>
   </g>
   <g id="patch_49">
    <path d="M 715.217875 128.528148 
L 723.744634 128.528148 
L 723.744634 119.200291 
L 715.217875 119.200291 
z
" clip-path="url(#pe06c225962)" style="fill: #00bfff"/>
   </g>
   <g id="patch_50">
    <path d="M 723.744634 128.528148 
L 732.271393 128.528148 
L 732.271393 119.711407 
L 723.744634 119.711407 
z
" clip-path="url(#pe06c225962)" style="fill: #00bfff"/>
   </g>
   <g id="patch_51">
    <path d="M 732.271393 128.528148 
L 740.798152 128.528148 
L 740.798152 121.755868 
L 732.271393 121.755868 
z
" clip-path="url(#pe06c225962)" style="fill: #00bfff"/>
   </g>
   <g id="patch_52">
    <path d="M 740.798152 128.528148 
L 749.324884 128.528148 
L 749.324884 123.544756 
L 740.798152 123.544756 
z
" clip-path="url(#pe06c225962)" style="fill: #00bfff"/>
   </g>
   <g id="patch_53">
    <path d="M 749.324884 128.528148 
L 757.851643 128.528148 
L 757.851643 124.439224 
L 749.324884 124.439224 
z
" clip-path="url(#pe06c225962)" style="fill: #00bfff"/>
   </g>
   <g id="patch_54">
    <path d="M 757.851643 128.528148 
L 766.378402 128.528148 
L 766.378402 126.739244 
L 757.851643 126.739244 
z
" clip-path="url(#pe06c225962)" style="fill: #00bfff"/>
   </g>
   <g id="patch_55">
    <path d="M 766.378402 128.528148 
L 774.905161 128.528148 
L 774.905161 127.378138 
L 766.378402 127.378138 
z
" clip-path="url(#pe06c225962)" style="fill: #00bfff"/>
   </g>
   <g id="patch_56">
    <path d="M 774.905161 128.528148 
L 783.43192 128.528148 
L 783.43192 127.378138 
L 774.905161 127.378138 
z
" clip-path="url(#pe06c225962)" style="fill: #00bfff"/>
   </g>
   <g id="patch_57">
    <path d="M 783.43192 128.528148 
L 791.958679 128.528148 
L 791.958679 128.144811 
L 783.43192 128.144811 
z
" clip-path="url(#pe06c225962)" style="fill: #00bfff"/>
   </g>
   <g id="patch_58">
    <path d="M 791.958679 128.528148 
L 800.485438 128.528148 
L 800.485438 128.400369 
L 791.958679 128.400369 
z
" clip-path="url(#pe06c225962)" style="fill: #00bfff"/>
   </g>
   <g id="patch_59">
    <path d="M 800.485438 128.528148 
L 809.012197 128.528148 
L 809.012197 128.528148 
L 800.485438 128.528148 
z
" clip-path="url(#pe06c225962)" style="fill: #00bfff"/>
   </g>
   <g id="patch_60">
    <path d="M 809.012197 128.528148 
L 817.538956 128.528148 
L 817.538956 128.400369 
L 809.012197 128.400369 
z
" clip-path="url(#pe06c225962)" style="fill: #00bfff"/>
   </g>
   <g id="patch_61">
    <path d="M 817.538956 128.528148 
L 826.065688 128.528148 
L 826.065688 128.400368 
L 817.538956 128.400368 
z
" clip-path="url(#pe06c225962)" style="fill: #00bfff"/>
   </g>
   <g id="patch_62">
    <path d="M 826.065688 128.528148 
L 834.592474 128.528148 
L 834.592474 128.272591 
L 826.065688 128.272591 
z
" clip-path="url(#pe06c225962)" style="fill: #00bfff"/>
   </g>
   <g id="line2d_19">
    <path d="M 7.2 128.528148 
L 15.866662 128.528148 
L 24.533324 128.528148 
L 33.199985 128.528148 
L 41.866647 128.528148 
L 50.533309 128.528148 
L 59.199971 128.528148 
L 67.866633 128.528148 
L 76.533295 128.528148 
L 85.199956 128.528148 
L 93.866618 128.528148 
L 102.53328 128.528148 
L 111.199942 128.528148 
L 119.866604 128.528148 
L 128.533265 128.528148 
L 137.199927 128.528148 
L 145.866589 128.528148 
L 154.533251 128.528148 
L 163.199913 128.528148 
L 171.866575 128.528148 
L 180.533236 128.528148 
L 189.199898 128.528148 
L 197.86656 128.528148 
L 206.533222 128.528148 
L 215.199884 128.528148 
L 223.866545 128.528148 
L 232.533207 128.528148 
L 241.199869 128.528148 
L 249.866531 128.528147 
L 258.533193 128.528147 
L 267.199855 128.528146 
L 275.866516 128.528144 
L 284.533178 128.528139 
L 293.19984 128.528128 
L 301.866502 128.528102 
L 310.533164 128.528046 
L 319.199825 128.527927 
L 327.866487 128.527679 
L 336.533149 128.527175 
L 345.199811 128.526174 
L 353.866473 128.524234 
L 362.533135 128.520564 
L 371.199796 128.513786 
L 379.866458 128.501564 
L 388.53312 128.480059 
L 397.199782 128.443128 
L 405.866444 128.381246 
L 414.533105 128.280078 
L 423.199767 128.118739 
L 431.866429 127.867792 
L 440.533091 127.487182 
L 449.199753 126.924415 
L 457.866415 126.113439 
L 466.533076 124.974823 
L 475.199738 123.417897 
L 483.8664 121.345462 
L 492.533062 118.66152 
L 501.199724 115.282052 
L 509.866385 111.148367 
L 518.533047 106.241849 
L 527.199709 100.598281 
L 535.866371 94.319411 
L 544.533033 87.579228 
L 553.199695 80.622675 
L 561.866356 73.755333 
L 570.533018 67.323804 
L 579.19968 61.68811 
L 587.866342 57.188923 
L 596.533004 54.113687 
L 605.199665 52.666278 
L 613.866327 52.944646 
L 622.532989 54.929858 
L 631.199651 58.488219 
L 639.866313 63.386172 
L 648.532975 69.315646 
L 657.199636 75.92604 
L 665.866298 82.858239 
L 674.53296 89.776123 
L 683.199622 96.391846 
L 691.866284 102.48253 
L 700.532945 107.897604 
L 709.199607 112.557448 
L 717.866269 116.445156 
L 726.532931 119.593812 
L 735.199593 122.071794 
L 743.866255 123.968308 
L 752.532916 125.380768 
L 761.199578 126.404972 
L 769.86624 127.128367 
L 778.532902 127.626221 
L 787.199564 127.960185 
L 795.866225 128.178601 
L 804.532887 128.317901 
L 813.199549 128.404556 
L 821.866211 128.457143 
L 830.532873 128.48828 
L 839.199535 128.50627 
L 847.866196 128.516415 
L 856.532858 128.521998 
L 865.19952 128.524997 
" clip-path="url(#pe06c225962)" style="fill: none; stroke: #1f77b4; stroke-width: 1.5; stroke-linecap: square"/>
   </g>
   <g id="text_11">
    <g id="patch_63">
     <path d="M 371.106746 38.307963 
L 387.414559 38.307963 
Q 390.414559 38.307963 390.414559 35.307963 
L 390.414559 25.629838 
Q 390.414559 22.629838 387.414559 22.629838 
L 371.106746 22.629838 
Q 368.106746 22.629838 368.106746 25.629838 
L 368.106746 35.307963 
Q 368.106746 38.307963 371.106746 38.307963 
z
" style="fill: #ffffff"/>
    </g>
    <!-- -4σ -->
    <g transform="translate(371.106746 33.228276) scale(0.1 -0.1)">
     <use xlink:href="#DejaVuSans-2d"/>
     <use xlink:href="#DejaVuSans-34" transform="translate(36.083984 0)"/>
     <use xlink:href="#DejaVuSans-3c3" transform="translate(99.707031 0)"/>
    </g>
   </g>
   <g id="text_12">
    <g id="patch_64">
     <path d="M 428.327626 38.307963 
L 444.635439 38.307963 
Q 447.635439 38.307963 447.635439 35.307963 
L 447.635439 25.629838 
Q 447.635439 22.629838 444.635439 22.629838 
L 428.327626 22.629838 
Q 425.327626 22.629838 425.327626 25.629838 
L 425.327626 35.307963 
Q 425.327626 38.307963 428.327626 38.307963 
z
" style="fill: #ffffff"/>
    </g>
    <!-- -3σ -->
    <g transform="translate(428.327626 33.228276) scale(0.1 -0.1)">
     <use xlink:href="#DejaVuSans-2d"/>
     <use xlink:href="#DejaVuSans-33" transform="translate(36.083984 0)"/>
     <use xlink:href="#DejaVuSans-3c3" transform="translate(99.707031 0)"/>
    </g>
   </g>
   <g id="text_13">
    <g id="patch_65">
     <path d="M 485.548499 38.307963 
L 501.856311 38.307963 
Q 504.856311 38.307963 504.856311 35.307963 
L 504.856311 25.629838 
Q 504.856311 22.629838 501.856311 22.629838 
L 485.548499 22.629838 
Q 482.548499 22.629838 482.548499 25.629838 
L 482.548499 35.307963 
Q 482.548499 38.307963 485.548499 38.307963 
z
" style="fill: #ffffff"/>
    </g>
    <!-- -2σ -->
    <g transform="translate(485.548499 33.228276) scale(0.1 -0.1)">
     <use xlink:href="#DejaVuSans-2d"/>
     <use xlink:href="#DejaVuSans-32" transform="translate(36.083984 0)"/>
     <use xlink:href="#DejaVuSans-3c3" transform="translate(99.707031 0)"/>
    </g>
   </g>
   <g id="text_14">
    <g id="patch_66">
     <path d="M 545.950622 38.307963 
L 555.895934 38.307963 
Q 558.895934 38.307963 558.895934 35.307963 
L 558.895934 25.629838 
Q 558.895934 22.629838 555.895934 22.629838 
L 545.950622 22.629838 
Q 542.950622 22.629838 542.950622 25.629838 
L 542.950622 35.307963 
Q 542.950622 38.307963 545.950622 38.307963 
z
" style="fill: #ffffff"/>
    </g>
    <!-- -σ -->
    <g transform="translate(545.950622 33.228276) scale(0.1 -0.1)">
     <use xlink:href="#DejaVuSans-2d"/>
     <use xlink:href="#DejaVuSans-3c3" transform="translate(36.083984 0)"/>
    </g>
   </g>
   <g id="text_15">
    <g id="patch_67">
     <path d="M 604.465251 38.307963 
L 611.823064 38.307963 
Q 614.823064 38.307963 614.823064 35.307963 
L 614.823064 25.629838 
Q 614.823064 22.629838 611.823064 22.629838 
L 604.465251 22.629838 
Q 601.465251 22.629838 601.465251 25.629838 
L 601.465251 35.307963 
Q 601.465251 38.307963 604.465251 38.307963 
z
" style="fill: #ffffff"/>
    </g>
    <!-- μ -->
    <g transform="translate(604.465251 33.217338) scale(0.1 -0.1)">
     <defs>
      <path id="DejaVuSans-Bold-3bc" d="M 544 -1338 
L 544 3500 
L 1672 3500 
L 1672 1466 
Q 1672 1103 1828 926 
Q 1984 750 2303 750 
Q 2625 750 2781 926 
Q 2938 1103 2938 1466 
L 2938 3500 
L 4063 3500 
L 4063 1159 
Q 4063 938 4114 850 
Q 4166 763 4288 763 
Q 4344 763 4395 778 
Q 4447 794 4506 831 
L 4506 50 
Q 4341 -22 4195 -56 
Q 4050 -91 3909 -91 
Q 3631 -91 3454 26 
Q 3278 144 3169 403 
Q 3022 156 2811 32 
Q 2600 -91 2322 -91 
Q 2091 -91 1928 -17 
Q 1766 56 1672 206 
L 1672 -1338 
L 544 -1338 
z
" transform="scale(0.015625)"/>
     </defs>
     <use xlink:href="#DejaVuSans-Bold-3bc"/>
    </g>
   </g>
   <g id="text_16">
    <g id="patch_68">
     <path d="M 658.00643 38.307963 
L 672.723617 38.307963 
Q 675.723617 38.307963 675.723617 35.307963 
L 675.723617 25.629838 
Q 675.723617 22.629838 672.723617 22.629838 
L 658.00643 22.629838 
Q 655.00643 22.629838 655.00643 25.629838 
L 655.00643 35.307963 
Q 655.00643 38.307963 658.00643 38.307963 
z
" style="fill: #ffffff"/>
    </g>
    <!-- +σ -->
    <g transform="translate(658.00643 33.228276) scale(0.1 -0.1)">
     <defs>
      <path id="DejaVuSans-2b" d="M 2944 4013 
L 2944 2272 
L 4684 2272 
L 4684 1741 
L 2944 1741 
L 2944 0 
L 2419 0 
L 2419 1741 
L 678 1741 
L 678 2272 
L 2419 2272 
L 2419 4013 
L 2944 4013 
z
" transform="scale(0.015625)"/>
     </defs>
     <use xlink:href="#DejaVuSans-2b"/>
     <use xlink:href="#DejaVuSans-3c3" transform="translate(83.789062 0)"/>
    </g>
   </g>
   <g id="text_17">
    <g id="patch_69">
     <path d="M 712.046073 38.307963 
L 733.12576 38.307963 
Q 736.12576 38.307963 736.12576 35.307963 
L 736.12576 25.629838 
Q 736.12576 22.629838 733.12576 22.629838 
L 712.046073 22.629838 
Q 709.046073 22.629838 709.046073 25.629838 
L 709.046073 35.307963 
Q 709.046073 38.307963 712.046073 38.307963 
z
" style="fill: #ffffff"/>
    </g>
    <!-- +2σ -->
    <g transform="translate(712.046073 33.228276) scale(0.1 -0.1)">
     <use xlink:href="#DejaVuSans-2b"/>
     <use xlink:href="#DejaVuSans-32" transform="translate(83.789062 0)"/>
     <use xlink:href="#DejaVuSans-3c3" transform="translate(147.412109 0)"/>
    </g>
   </g>
   <g id="text_18">
    <g id="patch_70">
     <path d="M 769.266939 38.307963 
L 790.346626 38.307963 
Q 793.346626 38.307963 793.346626 35.307963 
L 793.346626 25.629838 
Q 793.346626 22.629838 790.346626 22.629838 
L 769.266939 22.629838 
Q 766.266939 22.629838 766.266939 25.629838 
L 766.266939 35.307963 
Q 766.266939 38.307963 769.266939 38.307963 
z
" style="fill: #ffffff"/>
    </g>
    <!-- +3σ -->
    <g transform="translate(769.266939 33.228276) scale(0.1 -0.1)">
     <use xlink:href="#DejaVuSans-2b"/>
     <use xlink:href="#DejaVuSans-33" transform="translate(83.789062 0)"/>
     <use xlink:href="#DejaVuSans-3c3" transform="translate(147.412109 0)"/>
    </g>
   </g>
   <g id="text_19">
    <g id="patch_71">
     <path d="M 826.487832 38.307963 
L 847.56752 38.307963 
Q 850.56752 38.307963 850.56752 35.307963 
L 850.56752 25.629838 
Q 850.56752 22.629838 847.56752 22.629838 
L 826.487832 22.629838 
Q 823.487832 22.629838 823.487832 25.629838 
L 823.487832 35.307963 
Q 823.487832 38.307963 826.487832 38.307963 
z
" style="fill: #ffffff"/>
    </g>
    <!-- +4σ -->
    <g transform="translate(826.487832 33.228276) scale(0.1 -0.1)">
     <use xlink:href="#DejaVuSans-2b"/>
     <use xlink:href="#DejaVuSans-34" transform="translate(83.789062 0)"/>
     <use xlink:href="#DejaVuSans-3c3" transform="translate(147.412109 0)"/>
    </g>
   </g>
  </g>
 </g>
 <defs>
  <clipPath id="pe06c225962">
   <rect x="7.2" y="20.214138" width="857.99952" height="108.31401"/>
  </clipPath>
 </defs>
</svg>
